<?xml version="1.0" encoding="utf-8"?>
<!-- Generator: Adobe Illustrator 22.1.0, SVG Export Plug-In . SVG Version: 6.00 Build 0)  -->
<svg version="1.1" id="Layer_1" xmlns="http://www.w3.org/2000/svg" xmlns:xlink="http://www.w3.org/1999/xlink" x="0px" y="0px"
	 viewBox="0 0 960 560" style="enable-background:new 0 0 960 560;" xml:space="preserve">
<style type="text/css">
	.st0{fill:#1874CD;}
	.st1{fill:#FFFFFF;}
</style>
<path class="st0" d="M132.1,143.9c0,0-2.2,1.5-3,1.6c-0.8,0.1-1.2,0.9-1.2,0.9l-2.3,0.6c0,0-3.8,1.9-4,1.9c-0.2,0,0.5-0.8,0.5-1.2
	c0-0.4,0.8-1.3,0.8-1.3l3.9-2.4c0,0,1.7-0.5,1.9-0.6C128.9,143.2,131.8,143.9,132.1,143.9z"/>
<path class="st0" d="M186.3,123.2c1.6,0.1-0.4,1.3-0.4,1.3s-2.2,0.6-2.5,0.6c-0.2,0-1.8,1.8-1.8,1.8s-2,0.3-2.2,0.3
	c-0.2,0-1.8-0.6-1.9-0.6c-0.2,0-0.5,1.2-0.5,1.2h-2.7c0,0,1.5-2.6,1.7-2.7c0.2-0.1,1.2-0.5,1.5-1.1c0.3-0.5,3-0.7,4.1-0.9
	C182.6,123,186.3,123.2,186.3,123.2z"/>
<path class="st0" d="M129.7,140.3c-2.7,1.9-15.7,10-16.3,9.7c0,0,8.8-10.2,36.4-21.8c28.7-12.1,40.1-11.2,40.1-11.2l-0.6,1
	c0,0-8.2,1.8-9.5,2.9c-1.3,1.1-16,5.2-20.4,7c-4.3,1.8-18,8.5-21.1,9.6C135.1,138.8,132.4,138.4,129.7,140.3z"/>
<path class="st0" d="M199.8,132.4c0.1-0.2,0.8-3.1,3.2-4.2c2.4-1.1,3.8-2.7,4.8-2.9c1.1-0.2,4.3-2.1,5.5-1.3
	c1.2,0.8-0.4,1.3-0.4,1.3s-6.7,3-6.9,3.5c-0.2,0.5-2.5,2.6-1.5,3.3c1.1,0.6,3.3,1.2,2.1,1.8c-1.2,0.6-1,1.4-3.5,0.5
	C200.6,133.5,199.7,132.6,199.8,132.4z"/>
<path class="st0" d="M223.1,416.5c0,0.8-2.8,9-3.2,9c-0.3,0-2,10.6-2,10.6l-3.2,3.6c0,0-2.1,0.1-10.3-2.3c-8.2-2.5-0.3-1.3-2-3
	s-0.8-1.5-0.7-3.1c0.1-1.5,0.8-4.2,0.9-5.3c0.1-1.1-0.9-4.7-0.9-5.6c0-0.9,3-2.1,3-2.1s4.9-1.3,5-2c0.1-0.7,6.6-7.8,7.3-8.8h0.7
	C222.5,405.4,223.1,415.7,223.1,416.5z"/>
<path class="st0" d="M220.8,118.1c0.3,0,4.9,0,4.9,0s3.8,1.2,0.6,1.9c0,0-3.9-0.3-4.7-0.5C220.8,119.2,220.5,118.1,220.8,118.1z"/>
<path class="st0" d="M326.8,318.1c0,0.3,1.2,2-1,5.6c-2.2,3.6-1.4,2.3-3,0.5c-1.6-1.8-1.3-11.6-1.3-11.6l0-0.4
	C323.1,312.2,326.8,317.8,326.8,318.1z"/>
<path class="st0" d="M354.8,290.1c0.8,2-1.5,3.5-1.6,2.6s-1.2-8-0.9-8.2C352.3,284.5,354,288,354.8,290.1z"/>
<path class="st0" d="M377.3,226.4c-1.9-2.6-3.2-10-3.2-10c0.4-1.3,2.5,2.9,5.2,8.1C382,229.7,379.2,229,377.3,226.4z"/>
<path class="st0" d="M102.5,210.4c-0.2,0.2-1.2,1.2-1.4,1.2c-0.2,0-0.6,1.6-0.6,1.6l-0.1,1.4c0,0-1.7,4-1.8,4.2
	c-0.1,0.2,0.1,1.7,0.1,1.7s-1.4,0.1-2.3-2.3c-0.9-2.4,0.8-2.2,0.9-2.5c0.2-0.3,1.2-1.8,1.7-2c0.5-0.2,1-2,1-2s1-1.5,1.1-2.1
	c0.1-0.6,1.4-0.9,1.4-0.9C104,207.3,102.8,210.1,102.5,210.4z"/>
<path class="st0" d="M119,160.5c0,0-1.2,0.9-3,0.9s-3.4,5.5-3.4,5.5l-3,1c0,0-0.4-0.2-0.6-0.4c-0.2-0.2-1.9,1.2-2.2,1.2
	s-1.8,1.3-1.8,1.3s-1.8,2.8-2.7,3.2s-2.7,3.2-2.7,3.2h2.8l1.2,1.6c0,0-0.8,1.6-1.5,1.7c-0.7,0.1-2,1.6-2,1.6s4.1-0.3,6.4-0.6
	c0.1,0,0.2,0,0.3,0c0,0,0,0,0,0l2-1.5c0.6-0.5,1-0.9,1-0.9l1.6-1.2l0.8-1l0.5-0.6c0,0-0.2-1-0.2-2c0-1,0.4-0.9,0.5-1.2
	c0.1-0.3,0.6-1.1,1.2-2.3c0.6-1.2,0.8-1.6,0.9-2.2c0.2-0.6,1.1-1.3,1.8-2.3c0.7-1,2.7-2.2,3-2.8C120.5,162.2,119,160.5,119,160.5z
	 M375.5,245c0-0.6-0.1-1-0.1-1s-2.6,1.5-2.9,4c-0.3,2.5,2.5,3.1,2.9,1.6C375.7,248.6,375.6,246.3,375.5,245z M184.9,139.7
	c-0.4-0.1-1.2,0-1.5,0c-0.2,0-3.8-0.8-4-0.9c-0.2-0.1-0.9-0.6-1.9-1.7c-0.9-1-5.2-1.2-5.8-1.3c-0.6-0.1-3.8,1.3-4.6,1.5
	c-0.9,0.2-5,1.2-5.9,1.2s-4.1,2.6-5.1,2.7s-3,1.9-3.4,1.9c-0.3,0-1.9,3.4-2.2,3.4c-0.3,0-4.1,2.3-4.3,2.4c-0.2,0.1-3.3,1.6-3.7,1.7
	s-2.9,0.5-3.2,0.5c-0.3,0-6.1,2.8-6.9,2.8c-0.8,0-5.1,7.3-5.4,7.5c-0.3,0.2,0.7,1.2,0.7,1.2s1,0,1.9-0.3c0.9-0.3,4.4-0.9,4.4-0.9
	s-1,2.6-1.3,3.1c-0.1,0.2-0.1,0.6-0.1,1.1c4.1-2.5,25.9-15.5,40-19.8l2-2.6c0.5,0.7,1,1.2,1.5,1.7c0,0,0.1,0.1,0.1,0.1
	c0.1-0.1,0.2-0.1,0.2-0.2c0.9-0.7,2.2-1.6,2.2-1.6s3.9,0.3,5,0.3c1.1,0,1.3-1.1,1.3-1.1l1.4-2.1
	C186.6,140.5,185.3,139.8,184.9,139.7z"/>
<path class="st0" d="M389.7,261.5c2,0.9,1.4,9.7,0.6,12.1c-0.9,2.4-0.9-2.3-0.9-4.1C389.3,267.9,389.7,261.5,389.7,261.5z"/>
<path class="st0" d="M393.6,322.7c0,0.2-2,4.7-2,4.7l-2.4,4.9c0,0-2.6,2-2.8,2.1c-0.2,0.1-4,0.9-4,0.9v-1.8c0,0-2.4-1.1-2.7-1.2
	c-0.3-0.2-2.6-3.4-3-3.8c-0.5-0.4-0.7-2.1-1.1-2.7c-0.4-0.6-0.7-1.7-1-2.6c-0.3-0.9-1.7-2.7-1.7-2.7l-1-1.9c0,0-1.2-1.4-1.5-2
	c-0.3-0.5-1.4-1.2-2.8-2.4c-1.4-1.2-2.9-1.5-3.8-4.2c-0.9-2.6,1.5-1.1,1.8-1.2s2-1.1,2.3-1.2c0.1-0.1,0.5,0.3,0.9,0.7
	c0.4,0.4,0.7,0.8,1,1.1c0.3,0.4,0.5,0.6,0.5,0.6s0.3-0.5,1.1,0.5c0.8,1,2.3,1.5,2.6,1.7c0.3,0.2,1.6,1,2.7,1.4
	c1,0.4,1.8,0.9,1.8,0.9c0,0.1,1.1,0,1.4,0.2c0.3,0.2,1.1,0.6,1.1,0.6l-0.2,1.3c0,0,0,1.3,0,1.9c0,0.5,1.4,1.6,1.6,2
	c0.2,0.3,0.5,0.2,0.5,0.2s0.5-1.5,0.9-1.8c0.4-0.3,0.9,0.1,0.9,0.1l0.5,2.4l-1.9,1c0,0-0.1,2.2-0.3,2.2s0,3.5-0.1,3.9
	c-0.1,0.4,1.1,2.3,1.1,2.3s0.9-0.2,2.4-1.1c1.5-0.8,3.1-3.4,3.3-3.9C389.9,325.2,393.6,322.5,393.6,322.7z"/>
<path class="st0" d="M393.8,291l1,6.5l-0.9,7.8c0,0-0.6,4.4-1.7,6.4c-1.1,2-1.9,4.9-4,5.6c-2.1,0.6-0.3-1.6-0.7-3
	c-0.4-1.4-0.8-3.7-1.2-4.7c-0.4-1,0-3.4-0.4-4.1c-0.4-0.7-0.5-2.1-0.5-2.1s1.9-0.1,2.1-0.4c0.2-0.3,0.1-1.7,0.5-3.5
	c0.4-1.8-0.5-2-0.5-2.2c0-0.2,0.6-2.1,1.5-5.3c0.8-2.9,0.5-2.3,0.4-2.2c0.1-0.4,1.3-4.3,1.4-5.4c0.1-1.1,0-6.8,0-6.8l-0.1-0.4
	c0.9-3.7,1.3,3,1.3,3L393.8,291z"/>
<path class="st0" d="M385,243.3c-1.8-3.5-1.1-6.7-1.1-6.7c0.1-0.7,4.1,8.8,5.8,12c1.7,3.2,4.9,13.5,5.2,20.3
	c0.3,6.8-1.8,5.4-1.8,5.4s0.1-1.8,0-3.8c-0.1-2-1.2-10.9-2.1-12c-1-1.1-1.8-4.2-2.5-5.3C387.8,252.3,386.8,246.9,385,243.3z"/>
<path class="st0" d="M212.9,125.3c0,0-6.7,3-6.9,3.5c-0.2,0.5-2.5,2.6-1.5,3.3c1.1,0.6,3.3,1.2,2.1,1.8c-1.2,0.6-1,1.4-3.5,0.5
	c-2.5-0.9-3.5-1.9-3.4-2.1s0.8-3.1,3.2-4.2c2.4-1.1,3.8-2.7,4.8-2.9c1.1-0.2,4.3-2.1,5.5-1.3C214.5,124.8,212.9,125.3,212.9,125.3z"
	/>
<path class="st0" d="M226.3,120c0,0-3.9-0.3-4.7-0.5c-0.8-0.2-1.1-1.4-0.8-1.4c0.3,0,4.9,0,4.9,0S229.5,119.3,226.3,120z"/>
<path class="st0" d="M189.9,117.1l-0.6,1c0,0-8.2,1.8-9.5,2.9c-1.3,1.1-16,5.2-20.4,7c-4.3,1.8-18,8.5-21.1,9.6
	c-3.2,1.2-5.9,0.8-8.6,2.7c-2.7,1.9-15.7,10-16.3,9.7c0,0,8.8-10.2,36.4-21.8C178.5,116.1,189.9,117.1,189.9,117.1z"/>
<path class="st0" d="M132.1,143.9c0,0-2.2,1.5-3,1.6c-0.8,0.1-1.2,0.9-1.2,0.9l-2.3,0.6c0,0-3.8,1.9-4,1.9c-0.2,0,0.5-0.8,0.5-1.2
	c0-0.4,0.8-1.3,0.8-1.3l3.9-2.4c0,0,1.7-0.5,1.9-0.6C128.9,143.2,131.8,143.9,132.1,143.9z"/>
<path class="st0" d="M185.8,124.5c0,0-2.2,0.6-2.5,0.6c-0.2,0-1.8,1.8-1.8,1.8s-2,0.3-2.2,0.3c-0.2,0-1.8-0.6-1.9-0.6
	c-0.2,0-0.5,1.2-0.5,1.2h-2.7c0,0,1.5-2.6,1.7-2.7c0.2-0.1,1.2-0.5,1.5-1.1c0.3-0.5,3-0.7,4.1-0.9c1.1-0.2,4.7,0,4.7,0
	C187.8,123.3,185.8,124.5,185.8,124.5z"/>
<path class="st0" d="M223.1,416.5c0,0.8-2.8,9-3.2,9c-0.3,0-2,10.6-2,10.6l-3.2,3.6c0,0-2.1,0.1-10.3-2.3c-8.2-2.5-0.3-1.3-2-3
	s-0.8-1.5-0.7-3.1c0.1-1.5,0.8-4.2,0.9-5.3c0.1-1.1-0.9-4.7-0.9-5.6c0-0.9,3-2.1,3-2.1s4.9-1.3,5-2c0.1-0.7,6.6-7.8,7.3-8.8h0.7
	C222.5,405.4,223.1,415.7,223.1,416.5z"/>
<path class="st0" d="M325.8,323.6c-2.2,3.6-1.4,2.3-3,0.5c-1.6-1.8-1.3-11.6-1.3-11.6l0-0.4c1.5,0,5.3,5.6,5.3,5.9
	S328,320,325.8,323.6z"/>
<path class="st0" d="M353.2,292.7c-0.1-0.9-1.2-8-0.9-8.2c0,0,1.7,3.6,2.5,5.6C355.6,292.1,353.3,293.6,353.2,292.7z"/>
<path class="st0" d="M393.6,322.7c0,0.2-2,4.7-2,4.7l-2.4,4.9c0,0-2.6,2-2.8,2.1c-0.2,0.1-4,0.9-4,0.9v-1.8c0,0-2.4-1.1-2.7-1.2
	c-0.3-0.2-2.6-3.4-3-3.8c-0.5-0.4-0.7-2.1-1.1-2.7c-0.4-0.6-0.7-1.7-1-2.6c-0.3-0.9-1.7-2.7-1.7-2.7l-1-1.9c0,0-1.2-1.4-1.5-2
	c-0.3-0.5-1.4-1.2-2.8-2.4c-1.4-1.2-2.9-1.5-3.8-4.2c-0.9-2.6,1.5-1.1,1.8-1.2s2-1.1,2.3-1.2c0.1-0.1,0.5,0.3,0.9,0.7
	c0.4,0.4,0.7,0.8,1,1.1c0.3,0.4,0.5,0.6,0.5,0.6s0.3-0.5,1.1,0.5c0.8,1,2.3,1.5,2.6,1.7c0.3,0.2,1.6,1,2.7,1.4
	c1,0.4,1.8,0.9,1.8,0.9c0,0.1,1.1,0,1.4,0.2c0.3,0.2,1.1,0.6,1.1,0.6l-0.2,1.3c0,0,0,1.3,0,1.9c0,0.5,1.4,1.6,1.6,2
	c0.2,0.3,0.5,0.2,0.5,0.2s0.5-1.5,0.9-1.8c0.4-0.3,0.9,0.1,0.9,0.1l0.5,2.4l-1.9,1c0,0-0.1,2.2-0.3,2.2s0,3.5-0.1,3.9
	c-0.1,0.4,1.1,2.3,1.1,2.3s0.9-0.2,2.4-1.1c1.5-0.8,3.1-3.4,3.3-3.9C389.9,325.2,393.6,322.5,393.6,322.7z"/>
<path class="st0" d="M394.8,297.6l-0.9,7.8c0,0-0.6,4.4-1.7,6.4c-1.1,2-1.9,4.9-4,5.6c-2.1,0.6-0.3-1.6-0.7-3
	c-0.4-1.4-0.8-3.7-1.2-4.7c-0.4-1,0-3.4-0.4-4.1c-0.4-0.7-0.5-2.1-0.5-2.1s1.9-0.1,2.1-0.4c0.2-0.3,0.1-1.7,0.5-3.5
	c0.4-1.8-0.5-2-0.5-2.2c0-0.2,0.6-2.1,1.5-5.3c0.8-2.9,0.5-2.3,0.4-2.2c0.1-0.4,1.3-4.3,1.4-5.4c0.1-1.1,0-6.8,0-6.8l-0.1-0.4
	c0.9-3.7,1.3,3,1.3,3l1.6,10.7L394.8,297.6z"/>
<path class="st0" d="M390.2,273.7c-0.9,2.4-0.9-2.3-0.9-4.1c0-1.7,0.4-8.1,0.4-8.1C391.7,262.5,391.1,271.2,390.2,273.7z"/>
<path class="st0" d="M375.4,249.6c-0.4,1.5-3.2,0.9-2.9-1.6c0.3-2.5,2.9-4,2.9-4s0,0.4,0.1,1C375.6,246.3,375.7,248.6,375.4,249.6z"
	/>
<path class="st0" d="M393.1,274.3c0,0,0.1-1.8,0-3.8c-0.1-2-1.2-10.9-2.1-12c-1-1.1-1.8-4.2-2.5-5.3c-0.7-1.1-1.8-6.5-3.6-10
	c-1.8-3.5-1.1-6.7-1.1-6.7c0.1-0.7,4.1,8.8,5.8,12c1.7,3.2,4.9,13.5,5.2,20.3C395.2,275.7,393.1,274.3,393.1,274.3z"/>
<path class="st0" d="M377.3,226.4c-1.9-2.6-3.2-10-3.2-10c0.4-1.3,2.5,2.9,5.2,8.1C382,229.7,379.2,229,377.3,226.4z"/>
<path class="st0" d="M102.5,210.4c-0.2,0.2-1.2,1.2-1.4,1.2c-0.2,0-0.6,1.6-0.6,1.6l-0.1,1.4c0,0-1.7,4-1.8,4.2
	c-0.1,0.2,0.1,1.7,0.1,1.7s-1.4,0.1-2.3-2.3c-0.9-2.4,0.8-2.2,0.9-2.5c0.2-0.3,1.2-1.8,1.7-2c0.5-0.2,1-2,1-2s1-1.5,1.1-2.1
	c0.1-0.6,1.4-0.9,1.4-0.9C104,207.3,102.8,210.1,102.5,210.4z"/>
<path class="st0" d="M120.1,162.9c-0.4,0.6-2.4,1.8-3,2.8c-0.7,1-1.7,1.7-1.8,2.3c-0.2,0.6-0.3,1-0.9,2.2c-0.6,1.2-1.2,2-1.2,2.3
	c-0.1,0.3-0.5,0.2-0.5,1.2c0,1,0.2,2,0.2,2l-0.5,0.6l-0.8,1l-1.6,1.2c0,0-0.4,0.4-1,0.9l-2,1.5c0,0,0,0,0,0c-0.1,0-0.2,0-0.3,0
	c-2.3,0.3-6.4,0.6-6.4,0.6s1.2-1.5,2-1.6c0.7-0.1,1.5-1.7,1.5-1.7l-1.2-1.6h-2.8c0,0,1.8-2.8,2.7-3.2s2.7-3.2,2.7-3.2
	s1.5-1.3,1.8-1.3s2-1.4,2.2-1.2c0.2,0.2,0.6,0.4,0.6,0.4l3-1c0,0,1.6-5.5,3.4-5.5s3-0.9,3-0.9S120.5,162.2,120.1,162.9z"/>
<path class="st0" d="M184.9,139.7c-0.4-0.1-1.2,0-1.5,0c-0.2,0-3.8-0.8-4-0.9c-0.2-0.1-0.9-0.6-1.9-1.7c-0.9-1-5.2-1.2-5.8-1.3
	c-0.6-0.1-3.8,1.3-4.6,1.5c-0.9,0.2-5,1.2-5.9,1.2s-4.1,2.6-5.1,2.7s-3,1.9-3.4,1.9c-0.3,0-1.9,3.4-2.2,3.4c-0.3,0-4.1,2.3-4.3,2.4
	c-0.2,0.1-3.3,1.6-3.7,1.7s-2.9,0.5-3.2,0.5c-0.3,0-6.1,2.8-6.9,2.8c-0.8,0-5.1,7.3-5.4,7.5c-0.3,0.2,0.7,1.2,0.7,1.2s1,0,1.9-0.3
	c0.9-0.3,4.4-0.9,4.4-0.9s-1,2.6-1.3,3.1c-0.1,0.2-0.1,0.6-0.1,1.1c4.1-2.5,25.9-15.5,40-19.8l2-2.6c0.5,0.7,1,1.2,1.5,1.7
	c0,0,0.1,0.1,0.1,0.1c0.1-0.1,0.2-0.1,0.2-0.2c0.9-0.7,2.2-1.6,2.2-1.6s3.9,0.3,5,0.3c1.1,0,1.3-1.1,1.3-1.1l1.4-2.1
	C186.6,140.5,185.3,139.8,184.9,139.7z M49.8,256.8c-0.1,0.2-0.2,0.7-0.4,1.5c0.2-0.6,0.4-1.1,0.5-1.3l0.6,3.8c0.3-2,0.6-4,0.9-6
	C50.4,256,49.8,256.8,49.8,256.8z M111.7,176.5c0,0-2.6,2.5-4.8,4.4c0,0,0,0,0,0l2-1.5c0.6-0.5,1-0.9,1-0.9l1.6-1.2l0.8-1
	L111.7,176.5z M375.4,244c0,0-2.6,1.5-2.9,4l0.2,0.6c0,0,2-2.4,2.8-3.6C375.5,244.4,375.4,244,375.4,244z"/>
<path class="st0" d="M121.2,246c-0.9-1.1-4.4-1.5-4.6-1.6c-0.2-0.1-0.8,1.1-2.5,1.6c-0.7,0.2-1,0.8-1.1,1.3
	C115.7,246.7,118.5,246.3,121.2,246C121.2,246,121.2,246,121.2,246z M145.7,250.5c0,0-0.2,0-0.4,0c0.4,0.2,0.8,0.4,1.2,0.6
	C146.3,250.8,145.7,250.5,145.7,250.5z M202.6,225c-0.9-1.2-1.1,0-1.1,0s0,0-2.6-1.2c-2.6-1.2-0.3-0.4-0.7-1.2
	c-0.4-0.8,0.5-2.1,1.2-3.4c0.7-1.3,0.9-3,1.4-3.2c0.5-0.2,0.2-1.2,0.1-2c-0.2-0.7-0.2,0-0.2,0s-2.7-2.1-3.6-3
	c-0.9-0.9-1-0.9-4.2-6.2c-0.3-0.5-0.6-0.9-0.8-1.3c-13.6,18.2-22.4,40.1-26.5,51.9c6.9-6.3,18.4-16,32.7-25c2-1.2,4-2.5,6.2-3.8
	C203.5,226.4,203.4,226.1,202.6,225z M121.2,246c-0.9-1.1-4.4-1.5-4.6-1.6c-0.2-0.1-0.8,1.1-2.5,1.6c-0.7,0.2-1,0.8-1.1,1.3
	C115.7,246.7,118.5,246.3,121.2,246C121.2,246,121.2,246,121.2,246z M228.3,252.2c-4.5-0.7-9.2-1-13.7-1c-24,0-42.6,9.5-49.9,13.9
	c0,0.2,0,0.3,0,0.5c0,2.5-2,4.5-4.4,4.5c-2.5,0-4.4-2-4.4-4.5c0-0.3,0-0.5,0.1-0.8c-5.7-5.9-12.2-9.9-19.2-12c0,0,0,0,0,0
	c-1.4-0.3-4-0.8-5.9-1.2c-1.8-0.3-3.7-0.4-5.7-0.4h-0.7c-4.5,0.1-9,0.8-13.6,2.1h0c-0.3,0.2-0.5,0.4-0.5,0.4s-0.2-0.1-0.4-0.2
	c-21.5,6.3-42.5,24-55.2,36.4c5.1-2.3,11.1-4,17.7-4c3.4,0,6.9,0.5,10.2,1.4c14.6,4,28.1,16.7,39.9,37.7
	c14.4,25.3,26.6,63.1,36.4,112.3c1.2,0.8,2,2.2,2,3.7c0,2.5-2,4.4-4.5,4.4c-2.4,0-4.4-2-4.4-4.4c0-1.4,0.7-2.6,1.7-3.5
	c-21.9-109.4-51.4-139.4-72.4-145.2c-2.9-0.8-5.9-1.2-8.9-1.2c-12.9,0-23.4,7.5-28.2,11.7c0,0,0,0,0,0c0,2.5-2,4.5-4.5,4.5
	c-1.1,0-2.1-0.4-2.8-1c0.2,3.6,0.6,7.5,1,10.2c0,0.1,0.1,0.3,0.1,0.5c-0.1,0-0.1,0-0.1,0c0.3,0.9,3,21.1,10.9,27.6
	c0.5,0.4,3.3-0.1,5.9-0.6c2.3-0.5,4.4-1,4.9-0.9c0.5,0.1,2.3-1,4.2-1.8c2.2-1,4.7-1.7,5.7-0.2c1.8,2.8,4.2,1.5,7.4,2.8
	c3.2,1.2,3.3,1.4,2.3,5c-1,3.6-1.1,2.8,0.5,7.4c1.6,4.6,3.5,3.3,4.7,9c1.2,5.7,4.5,5.2,2,10.2s-3.9,7.4-1.2,12.1
	c2.7,4.6-0.3,9.3,3.3,12.7c22.9,21.8,38.1,28.9,38.7,29.2h0c0,0,0,0,0,0c9.3,7.2,22,16.6,26.8,18.2c8,2.8,20.7-4.7,20.7-4.7v-2.3
	l2.8-6.1v-9.4l11.3-6.1l-1.9-14.5c0,0-3.5-6.3-3.5-7s-7.7-10.6-7.7-10.6l4.7-7.5l16.9-16c0,0,16.2-18.1,17.4-21.6
	c1.2-3.5,2.6-17.6,2.6-17.6l-1.7,0.8c-6.8,8.5-11.3,16.7-13.6,21.1c0.5,0.7,0.7,1.5,0.7,2.5c0,2.5-2,4.5-4.4,4.5
	c-2.5,0-4.5-2-4.5-4.5c0-2,1.4-3.7,3.2-4.2c1.6-3.2,4.6-8.6,8.8-14.8l-2.2,1H189l-8.7-6.1l-3.5-5.9l-4.7-4.5l-8.5-12l-2.1-3.8
	l-4.5-17.8l-6.6-10.3l-0.9-3.8l3.3-1.7l12.9,14.8l3.5,12.7l8.5,7.8l0.9,10.1l10.3,14.8l10.3-5.6l13.1-6.6l4.7-2.3l6.3-7.5l6.8-1.9
	l8.9-11.5l1.4-6.6l-1.4-7.5l-7-1.2l-5.4-5.6l-2.1,2.1l-3.3,3.3l-6.6,0.9l-4.7-4l-0.7-2.3l-6.6-2.6l-4.7-7.7l5.4-4.7l9.8,6.8
	c0,0,8,4,11.7,4c3.8,0,8.9-1.9,8.9-1.9s-0.7,3.3-0.7,4c0,0.7,11.5,1.6,11.5,1.6l13.6-3.8l4.2,0.3C251.5,258.1,240.1,254,228.3,252.2
	z M276.5,273.7v1.5c0,0.7,4.9,2.6,4.9,2.6l0.1,0C279.9,276.3,278.2,275,276.5,273.7z M292.9,288.2c0.3,1,0.6,2.1,1.5,5
	c0.4,1.2,0.6,2,0.7,2.5c2.8,1.2,5.6,2.7,8.4,4.3C300,295.8,296.5,291.9,292.9,288.2z M314.3,316.7c-2.5,0-4.5-2-4.5-4.5
	c0-0.6,0.1-1.1,0.3-1.6c-3.8-2.7-7.6-5.1-11.3-7.1c1.7,2.9,3.5,6.2,3.9,7.1c0.7,1.6,5.2,10.1,5.2,10.1l7.8,0.2l1.7-5.5
	C316.6,316.2,315.5,316.7,314.3,316.7z M317.9,309.5c0.4,0.5,0.7,1.2,0.8,1.9l2.4-6.6C319.7,306.7,318.6,308.4,317.9,309.5z
	 M287,213.6c-5.5-1.2-11.3-1.8-17.2-1.8c-39.2,0-76.2,26.4-95,42.3c10-4.2,23.7-8.2,39.8-8.2c4.8,0,9.7,0.4,14.5,1.1
	c21.2,3.2,41.2,13.4,60,30.3l1.1-0.6c0,0,0,0.7,0.1,1.7c8.3,7.6,16.3,16.6,24.1,26.9c1.6-2.4,4-5.8,7-9.1v-3.8l-2.1-3.3l8.2-13.6
	l2.6-9.2l2.8-4.2l5.9-6.3l7,3.5l4.1,4.5c-0.6-0.6-2.5-2.4,0.1,2.5c3,5.6,3,5.6,3,5.6l2.6,2.1l1.4-1.4
	C337.7,239.3,314.3,219.4,287,213.6z M364.6,287.4l0.7,3.7c0.7,0.7,1.4,1.4,2,2.1C366.5,291.2,365.6,289.3,364.6,287.4z
	 M375.3,298.1l-0.1-0.1c1.3,3.1,2.6,6.2,3.9,9.5v-4.9L375.3,298.1z M379,261.1l-4.9-5.2l-2.3-3.5c0,0-0.9-1.4-1.4-2.8
	c-0.5-1.4-1.4-7.3-1.4-7.3h1.9l1.7,5.7c0.3-2.5,2.9-4,2.9-4s0,0.4,0.1,1c0.2-0.3,0.3-0.5,0.3-0.6c0-0.7-1.2-4.7-1.2-4.7l0.5-7.5
	c0,0-5.6-27-7.3-29.8c-1.6-2.8-16-14.6-16-14.6l-1.2-4.2l-6.3-2.3l2.3-3h2.3l10.8,7l4.5,8l-4.9-10.3l-15.6-17.6
	c-3.9-6.2-42.1-30.4-51.8-35.6c-8.8-4.6-21.4-8-27.7-9.5c0,0,0,0,0,0l-0.9-0.2c-1.9-0.5-3.1-0.7-3.1-0.7l-13.2-3v0.6l5.1,1.3
	c0,0,0,0.7,0,1.1l0.3,1.5c-0.8-0.6-4.7,1-5.6,1c-0.9,0-7.4-2.2-7.8-2.2c-0.3,0-5.4-1.4-5.8,0c-0.2,0.9,0.3,1.4,0.8,1.7
	c-0.6,0.2-1.2,0.4-1.4,0.4l-0.5,0c0,0,0,0,0.1,0c-0.2,0-0.4,0.1-0.5,0.1c-0.2,0-1.2,1.6-1.2,1.8c-0.1,0.2,0.6,1.3,0.6,1.3l-1.8,1.1
	c0-0.1,0.2-0.5,0-0.3c-0.2,0.2-0.5-0.1-0.8,0s-1.2,1.2-1.6,1.8c-0.4,0.6-0.2,1.7-0.4,1.8c-0.2,0.1-0.5-1-0.7-1.2
	c-0.1-0.2-3.3-0.8-3.7-0.5c-0.2,0.2-0.1,0.4-0.2,0.5l-1.1-0.7l0.2,0.6c-0.1,0-0.2-0.1-0.3-0.1c-1.8-0.6-0.8-0.2-1.2,0
	c-0.5,0.2-1.2,0-1.2,0s-1.1,2.7-1.1,3c0,0.3,0.5,0.9,0.8,2.2s2.4,1.8,2.4,1.8s-1.4,0.2-1.9,0c-0.5-0.2-2-0.5-3.6-1.2
	c-1.6-0.7-2,0.1-4.5,0c-2.5,0-1.4,0.5-1.4,0.5l3.3,1.5c0,0-0.1,0.3-0.4,0.8H203l-10.1,4.7h-4.7l-5.6,5.4c0,0-2.2,0.8-4.6-0.4
	l-2.3,1.1c0,0.2,0,0.4,0.1,0.6l-1.6,0.1l-41.3,20c0,0.1,0,0.1,0,0.2c0,0.3-2.3,0.2-2.9,0.2c-0.6,0-1.1,0-1.1-0.9s0.1-0.4,0.2-0.9
	c0.1-0.4,0.5-1.4,0.5-1.6c-0.2,0-2.7,0.6-3,0.6s-0.5,0-1.2-0.2c-0.6-0.1-0.7,2.1-0.7,2.1s-0.6,1.7-1,2.3c-0.4,0.5-0.6,2.6-0.9,3.5
	s-1.7,1.1-2,1.1c-0.2,0-2.2,1.2-3.6,1.2c-1.4,0-2.8-0.2-2.8-0.2l-2.3,0.8l-0.8,1l-1.6,1.2c0,0-0.4,0.4-1,0.9l-2,1.5c0,0,0,0,0,0
	c-0.3,0.3-0.6,0.5-0.9,0.7c-0.3,0.6-0.8,1.2-1.5,1.5c-0.8,0.8-1.9,1.8-2.9,2.1c-1.5,0.4-1.4-1.5-1.6-1.9c-0.2-0.4-0.6,2.2-1.2,3
	c-0.7,0.9-1.3,0.5-2.6-0.1s-2.1,1.3-2,4.9c0.1,3.6-3.6,9.5-5.3,10c-1.7,0.5-3.4,0.1-5.7-1.4c-2.3-1.5-3,2.7-3.4,3.1
	c-0.5,0.4-1.6,3.9-3.2,5.7c-1.6,1.8-4.7,9.5-5.2,11.1c-0.5,1.6,0.9,1,1.2,2.6c0.3,1.6-0.7,3.7-0.7,3.7s-3.6,4.8-5.6,6
	c-2,1.2-3.5,4.5-5.2,8.7c-1.2,3.1-6.7,10.4-9.5,14c-0.3,2-0.7,4-0.9,6l-0.6-3.8c-0.1,0.2-0.2,0.7-0.5,1.3c-0.9,2.4-3.1,7.2-6.7,9.1
	c-1,0.5-2.7,2.6-2.2,6.5c0.6,4.2,0.2,6.4-0.3,6.9c-3.1,3.2-3.1,8.9-3.1,8.9s-0.2,6-0.4,9.3c0,0.2,0,0.3,0,0.5
	c0.7-0.7,1.7-1.1,2.7-1.2c7.6-8.6,35.4-38.4,65.7-48.8c-1-0.5-2.2-0.9-2.7-1.2c-0.7-0.4,0.1-2.3,0-2.5c-0.1-0.2,0.1-0.6,0-0.8
	c-0.1-0.2-0.6-0.7-3.1-2.2c-2.5-1.5-1.6-0.5-3.5-1.3c-1.9-0.8-2.1-2.3-2.3-3.6c-0.2-1.2,2.3-2.9,2.3-3.9c0.1-1,0.4-3.7,0.6-4
	c0.2-0.3,0.5-1.7,0.2-2.6c-0.3-0.9-1.3-0.6-1.5-0.6c-0.2,0-1.7-0.1-2.9-0.2c-1.2-0.1-1.2,0-3-0.5c-1.8-0.5-2.6-0.6-3.4-0.8
	c-0.8-0.1-2.8,0.1-3.4,0.2c-0.6,0.1-5.3,2.8-5.5,3.2c-0.2,0.4-1.5,0.9-3.3-1.3c-1.9-2.3,1.8-4.2,1.8-4.2s2.6,0.3,3.2,0
	c0.6-0.3,0,0,0.5-0.6c0.5-0.6,0.9-1.1,1.8-2s0.8-0.5,1.3-1c0.5-0.5,1.2-1.1,1.2-1.1s0.4-1.6,1.2-3.1c0.9-1.5,0.5-0.9,0.9-1.5
	c0.5-0.6,1.4-1.5,2.1-2.1c0.7-0.6,2-1.6,2.7-2c0.7-0.5,2.4-1.2,2.5-1.5c0.2-0.2,0.5-1.4,1.5-2.7c1-1.3,1.1-0.5,2.5-0.6
	c1.4-0.1,1.7,1.2,1.7,1.2s2.3-1.5,2.7-1.7c0.4-0.2,2.1-0.8,2.8-1.2c0.7-0.4,0.9,0.2,0.9,0.2l1,1.2c0,0-0.2,1-0.2,1.2
	c0,0.2,1.1,3.3,1.1,3.5c0,0.2,1.3,2.6,1.4,2.8s0.7,1.6,1.6,3.9c0.9,2.2,0.9,1.5,0.9,1.8v2.6c0,0.7-0.1,1.4-0.1,1.4l-3.7,1.5
	c0,0-2.5,0.6-2.7,0.6c-0.2,0-0.5-0.2-0.8-0.2c-0.2,0-0.8,0.5-1.2,1.2c-0.4,0.7,0.2,0.9,0.5,1.4c0.3,0.5,1.6,2.6,2.1,3
	c0.5,0.4,1.3,0.1,1.9-0.1c0.5-0.1,0.6-1.1,0.8-2.3l1.9-1.8c0,0,1.3-0.9,2.3-1.3c0.9-0.4,0.4-0.2,0.5-0.3c0.2-0.1,0.8-0.8,0.8-1.9
	c0-1.1-0.4-1-0.4-1.8s0.2-1.5,0.2-1.8c0-0.3,1.7,0.1,1.7,0.1l2.2,1.2c0,0,0.4-0.9,0.5-1.4c0.1-0.5-1.3-1.9-1.4-2.2
	c-0.1-0.3-1.7-3.3-2-3.7c-0.3-0.4-0.6-0.8-0.6-0.8s-1.1-0.7-1.2-1.3c-0.1-0.6,0.1-1.9-0.8-3.9c-0.9-2-0.7-2.1-0.7-2.9
	s0.9-2.8,1.2-3.8c0.3-0.9,2,0.3,2,0.3l0.9,0.8l0.1,1.3l1.1,2.9l0.6,1c0,0,2,2.3,2.2,2.5c0.1,0.2,1.3,3.1,1.7,4.1
	c0.4,1-0.3,1.5-0.3,1.5l-0.8,3.1c0,0,0,2.4,0,2.6c0,0.2,0.6,1.8,0.6,1.8l0.4,2.9c0,0-0.4,2.3,0.8,5.3c1.2,3,2.3,1.8,2.3,1.8l1.5-2.9
	l1.2-0.5c0,0,0.6-0.1,0.6-0.2c0-0.2,0.4-0.4,0.4-0.4l1.8-1c0,0-1.9-3.9-1.9-4.2c0-0.3,0.1-0.5,0.3-1.5c0.2-0.9,0.3-0.9,0.3-0.9
	l1.7-2.1c0,0,0.1-0.7,1.8-1.4c1.7-0.7,2,0.2,2.2,0.3c0.2,0.1,1.4,0.7,1.4,0.7l0.5,0.9c0,0-0.9,1.3-1.1,1.7c-0.2,0.4-0.1,1.2-0.3,1.4
	c-0.2,0.2,0.1,1.5,0.1,1.8c0,0.2,0,0.3-0.2,0.3c-0.2,0-1.1,1-1.5,1.5c-0.4,0.5,1.1,0.8,1.3,0.9c0.2,0.2-0.1,1.5-0.1,1.5l3,2l2.3,2.5
	l1.2,1.5c0,0,1.7,0,3.2-1.1c1.5-1.1,1.5-0.7,1.5-0.7l1.9,0.5c0,0,1.3,1.4,1.9,2.1c0.7,0.7,1.2,0.5,1.2,0.5l3.2-1.5
	c0,0,1.9-1.3,2-1.5s3.7-0.3,3.9-0.3s-0.5,7.5-0.5,7.5l-0.9,1.6l-2,2.7c0,0-1.2,4.5-1.4,4.6c-0.2,0.1-1.2,2-1.3,2.1
	c-0.2,0.1-2.8,1.6-2.9,1.7c-0.1,0-1.8,0-2.6-0.1c4,2.2,7.9,5.1,11.5,8.6c4.8-15,25.6-73.7,64.5-88.6c12.9-4.9,26.7-4.7,41,0.6
	c-25.5-19.5-49.6-27.1-71.7-22.4c-35.1,7.5-55.3,44.2-59.9,53.6c0.4,0.7,0.6,1.4,0.6,2.3c0,2.5-2,4.4-4.5,4.4c-2.4,0-4.4-2-4.4-4.4
	c0-1.3,0.6-2.5,1.5-3.3c-4.2-9.6-8.7-14.8-13-15h-0.3c-3.1,0-6.1,2.7-8.1,5.3c0.2,0.5,0.4,1.1,0.4,1.7c0,2.5-2,4.4-4.5,4.4
	c-2.5,0-4.4-2-4.4-4.4c0-2.3,1.8-4.2,4-4.4c2.6-3.5,7.1-8.1,13.1-7.8c6,0.3,11.6,5.6,16.5,15.7c7.4-13.9,27.9-46,61.9-53.2
	c4.6-1,9.4-1.5,14.1-1.5c23.3,0,48.2,11.8,74.1,35c5.2-15.3,12.5-23.3,21.6-24c0.4,0,0.8,0,1.2,0c26.5,0,57.5,62.9,65.2,79.7
	c2,0.4,3.6,2.2,3.6,4.3c0,2.5-2,4.5-4.5,4.5c-2.5,0-4.4-2-4.4-4.5c0-0.8,0.2-1.5,0.6-2.2c-11.2-24.1-39.9-76.7-60.5-76.7
	c-0.3,0-0.6,0-0.8,0c-7.1,0.5-12.9,7.9-17.5,21.9c0.7,0.8,1.2,1.8,1.2,3c0,2.5-2,4.5-4.5,4.5c-2.5,0-4.4-2-4.4-4.5
	c0-0.1,0-0.2,0-0.3c-18.2-11-35.5-13.6-51.3-7.5c-9.6,3.7-18,10.3-25.4,18.3c1-0.7,1.3-1,1.6-1.1c0.3-0.1,5.6-0.9,5.6-0.9l0.5,3.3
	l-1.7,0.6l-2,2.7c0,0-0.7,0.9-1.7,0.9s0.1,1.3,0.1,1.3l1.6,1.2l1.7,2.4c0,0,0.3,0.9,2.4,1.1c2,0.2,0.8,1.3,0.8,1.3l0.6,3.8l2.1,2.8
	c0,0,0.2,2.4,0.3,3c0.2,0.5,1.7,1.7,1.7,1.7s0.2,1.2,0.8,3.1c15.8-8,35.5-14.9,56.2-14.9c6.2,0,12.4,0.6,18.2,1.9
	c32.4,6.9,59.4,32.2,80.6,75.4l-0.7-5.2c3,0,3,0,3,0c4.2,0.9,4.2,1.4,4.7,2.6c0.5,1.2,0.7,2.6,0.7,2.6l2.6,2.8c0,0,0.7,1.4,1.4-3.1
	c0.7-4.5,1.9-10.1,2.1-10.8C382.8,272.1,379,261.1,379,261.1z M141.2,208.3c0.3-0.2,0.8-0.2,2-1.9c1.2-1.7,1-1.1,1.9-2.8
	c0.9-1.7,1.4-2.5,2.3-3.4c0.9-0.9,3.9-3.3,3.9-3.3s-0.9-1.2,1.3,0.1c2.1,1.3,2.4,1.6,2.4,1.6s0.1,0,0.1,1.7c0,1.7-0.2,1.1,0,2
	c0.2,0.9,2.7,2.2,2.7,2.2l4.6-2.6l1.2-0.9c0,0-1.2-1.6-1.6-1.6c-0.3,0-4.9,1-1.2-1.4c3.7-2.4,7.6-3.5,7.6-3.5l2.2,0.9l-4.2,5.2
	c0,0-1.8,1.5,0,2.2c1.8,0.7,2.8,0.2,4.2,1.8c1.4,1.6,1.8,1.6,2,1.9c0.2,0.3-0.5-0.9,1.7,1.3c2.1,2.3,2.1,2.3,2.1,2.3
	s-0.2,1.9-0.7,2.7c-0.5,0.9,1.8,0.7-1.4,1.2c-3.2,0.5-5.2,1.2-7.3,1.2s-3.8-0.9-4.5-1.1c-0.7-0.2-0.5-0.8-2.4-1.3
	c-1.9-0.5-0.4-1.2-3.5-1c-3.1,0.2-4.1,0.2-4.5,0.5c-0.4,0.3-3.1,1.2-4.1,1.6c-1,0.5-2,0.7-3.1,0.7c-1.2,0-3-1.1-3-1.1
	s-0.6-1.6-0.5-2.6C141.3,210,140.9,208.4,141.2,208.3z"/>
<g>
	<path class="st0" d="M509.7,157.5c0,1.4-1,2.2-3,2.5c-2.8,0.4-4.4,0.7-4.9,0.9c-1.5,0.6-2.3,1.9-2.3,3.7v19.9c0,2.5-3.3,5.2-9.8,8
		c-7.3,3.2-15.6,4.8-24.7,4.8c-13.3,0-24.4-4-33.2-11.9c-9-8-13.5-18.4-13.5-30.9c0-12.8,4.6-23.5,13.9-32
		c9-8.2,19.8-12.3,32.4-12.3c9.7,0,17.9,1.2,24.7,3.5c5,1.7,7.6,3.4,7.8,5.1c0.4,3.2,0.6,8,0.6,14.3c0,1.4-0.9,2.1-2.6,2.2
		c-2,0.1-3.3-0.5-3.7-1.7c-2.3-6.3-5.6-10.8-9.8-13.6c-4.2-2.8-10-4.2-17.4-4.2c-10.2,0-18.1,3.1-23.8,9.3
		c-5.9,6.5-8.8,15.8-8.8,27.8c0,11.6,3.4,21,10.2,28.1c6.6,6.9,15,10.4,25.3,10.4c5.3,0,10.2-1,14.8-2.9c4.4-1.8,6.5-3.7,6.5-5.5
		v-13.2c0-3.1-0.6-5.4-1.9-6.8c-1.1-1.3-3.3-2.4-6.5-3.4c-2.4-0.7-3.6-1.6-3.4-2.6c0.2-1.1,0.5-1.8,0.9-2c0.4-0.3,1.4-0.3,3.1-0.1
		c9,1.1,17.8,1.2,26.3,0.3c0.5,0,0.8-0.1,1.1-0.1C509.1,155.1,509.7,155.9,509.7,157.5z"/>
	<path class="st0" d="M583.4,179.5c-1.4,5.4-2.2,10.5-2.2,15.2c0,0.8-1.4,1.1-4.1,1c-6.7-0.3-15-0.5-24.8-0.5
		c-10.5,0-19.9,0.2-28.1,0.6c-1.2,0.1-2,0-2.3-0.3c-0.3-0.3-0.4-0.9-0.4-1.9c0-1.1,0.9-1.7,2.7-1.9c4.1-0.4,6.2-2.6,6.2-6.7v-58.6
		c0-3-0.4-5.2-1.2-6.6c-1-1.7-2.8-3-5.6-3.9c-1.7-0.6-2.4-1.5-2.2-2.9c0.1-0.9,0.4-1.5,0.8-1.7c0.4-0.2,1.5-0.1,3.3,0.1
		c6.2,0.7,13.5,0.6,22.1-0.1c1.5-0.1,2.4-0.2,2.6-0.1c0.8,0.1,1.3,0.7,1.5,1.7c0.1,1.1-0.1,1.9-0.8,2.3c-0.3,0.2-1.1,0.4-2.6,0.8
		c-3,0.7-4.8,1.5-5.6,2.3c-0.8,0.9-1.1,2.7-1.1,5.5v56.8c0,3.6,1.2,6,3.6,7.3c2.4,1.3,6.7,1.9,13.1,1.9c6,0,10.5-0.8,13.4-2.3
		c2.9-1.5,5.3-4.5,7.1-8.7c0.7-1.7,1.7-2.3,3.1-1.7C583.2,177.4,583.7,178.2,583.4,179.5z"/>
	<path class="st0" d="M684.7,153.5c0,12.2-4.5,22.6-13.6,31.1c-8.9,8.4-19.6,12.6-32.1,12.6c-13.1,0-24-3.9-32.7-11.8
		c-8.9-8.1-13.3-18.6-13.3-31.5c0-12.4,4.5-22.9,13.5-31.4c8.9-8.3,19.7-12.4,32.5-12.4c13,0,23.9,4,32.5,12.1
		C680.4,130.4,684.7,140.8,684.7,153.5z M671.8,155.6c0-12.3-3.4-22.1-10.1-29.2c-6.5-6.9-15-10.3-25.7-10.3c-8.8,0-16,3.2-21.7,9.7
		c-5.7,6.5-8.5,15-8.5,25.4c0,12.5,3.3,22.3,9.8,29.5c6.4,6.9,15.1,10.4,26,10.4c8.8,0,16.1-3.3,21.7-9.8
		C669.1,174.8,671.8,166.3,671.8,155.6z"/>
	<path class="st0" d="M764.8,171.8c0,8.2-3.2,14.3-9.5,18.4c-5.8,3.8-13.8,5.7-24.1,5.7c-1.1,0-3.9-0.1-8.2-0.4
		c-4.3-0.3-7.8-0.4-10.4-0.4c-4.3,0-7.7,0.3-10.2,0.8c-1.6,0.3-2.5-0.1-2.7-1.3c-0.3-1.1,0.7-2,2.7-2.9c2.4-1,3.9-1.9,4.6-2.7
		c1.1-1.1,1.6-2.9,1.6-5.3v-59.6c0-4-2.3-6.5-7-7.4c-2.3-0.5-3.5-1.2-3.5-2.2c0-1.3,0.3-2,1-2.3c0.4-0.2,1.4-0.1,2.9,0.1
		c1.9,0.3,4.9,0.4,9.1,0.4c2.3,0,6.1-0.1,11.3-0.2c5.2-0.1,8.5-0.2,9.7-0.2c7.9,0,14.1,1.5,18.6,4.4c5.1,3.3,7.6,8.2,7.6,14.7
		c0,8.6-5.3,14.6-15.8,18c-1.2,0.4-1.1,0.7,0.1,0.9C757.4,152.7,764.8,159.9,764.8,171.8z M745.5,132.4c0-5.5-1.4-9.6-4.2-12
		c-2.8-2.5-7.3-3.7-13.5-3.7c-4.9,0-7.6,0.7-7.9,2.2c-0.1,0.3-0.1,0.8-0.1,1.3v27.6h5.6c7,0,12.1-1.2,15.3-3.6
		C743.9,141.8,745.5,137.9,745.5,132.4z M751.7,173.2c0-7-2.3-12.3-7-15.9c-4-3-9.3-4.6-15.8-4.6c-3.8,0-6.8,0.2-9.2,0.7v31.4
		c0,4.1,4.2,6.1,12.6,6.1C745.3,191,751.7,185.1,751.7,173.2z"/>
	<path class="st0" d="M866.2,194.1c-0.3,1.1-0.5,1.8-0.8,2c-0.3,0.2-0.8,0.1-1.8-0.1c-6.1-1.1-14.9-1.2-26.5-0.4
		c-2.2,0.2-3.4-0.3-3.6-1.3c-0.2-1.2,0.5-2.1,2.1-2.7c4.6-1.9,6.9-3.6,6.9-5.2c0-0.6-0.3-1.5-0.8-2.7c-3.1-7.5-5.7-13.5-7.8-18.1
		c-3,0.2-8.3,0.3-15.9,0.3c-6.3,0-11.6-0.2-16-0.5c-1.5,3.6-3.6,8.7-6.2,15.2c-0.6,1.5-0.9,2.8-0.9,4c0,2.4,1.3,4.1,3.9,5.2
		c4,1.7,5.9,3,5.8,3.9c-0.1,1.4-1.4,2-4,1.7c-8-0.8-15.3-0.6-22.1,0.8c-1.8,0.4-2.8-0.3-3-1.9c-0.2-1.1,1.2-2.3,4.1-3.6
		c3.1-1.3,5.8-4.3,7.9-9.1c8.3-17.9,13.6-29.7,16-35.3c5.8-13.5,10-24.5,12.4-33.1c0.3-1.3,2-2.5,5-3.7c0.7-0.3,1.6,1,2.7,3.7
		c9.1,22,19.4,45.6,30.7,70.6c1.8,4,4.9,6.6,9.2,7.9C865.5,192.3,866.4,193,866.2,194.1z M831.7,160.6c-2.8-6.4-7.2-16.2-13.1-29.5
		c-0.3-0.7-0.7-1.1-1.1-1.1c-0.4,0-0.8,0.4-1.1,1.1l-12.1,29.3c4.5,0.3,9.6,0.5,15.2,0.5C823,160.8,827,160.8,831.7,160.6z"/>
	<path class="st0" d="M939.2,179.5c-1.4,5.4-2.2,10.5-2.2,15.2c0,0.8-1.4,1.1-4.1,1c-6.7-0.3-15-0.5-24.8-0.5
		c-10.5,0-19.9,0.2-28.1,0.6c-1.2,0.1-2,0-2.3-0.3c-0.3-0.3-0.4-0.9-0.4-1.9c0-1.1,0.9-1.7,2.7-1.9c4.1-0.4,6.2-2.6,6.2-6.7v-58.6
		c0-3-0.4-5.2-1.2-6.6c-1-1.7-2.8-3-5.6-3.9c-1.7-0.6-2.4-1.5-2.2-2.9c0.1-0.9,0.4-1.5,0.8-1.7c0.4-0.2,1.5-0.1,3.3,0.1
		c6.2,0.7,13.5,0.6,22.1-0.1c1.5-0.1,2.4-0.2,2.6-0.1c0.8,0.1,1.3,0.7,1.5,1.7c0.1,1.1-0.1,1.9-0.8,2.3c-0.3,0.2-1.1,0.4-2.6,0.8
		c-3,0.7-4.8,1.5-5.6,2.3c-0.8,0.9-1.1,2.7-1.1,5.5v56.8c0,3.6,1.2,6,3.6,7.3c2.4,1.3,6.7,1.9,13.1,1.9c6,0,10.5-0.8,13.4-2.3
		c2.9-1.5,5.3-4.5,7.1-8.7c0.7-1.7,1.7-2.3,3.1-1.7C939,177.4,939.5,178.2,939.2,179.5z"/>
	<path class="st0" d="M499.2,259.2c0,0.8-0.1,1.3-0.3,1.6c-0.1,0.3-0.6,0.5-1.3,0.6c-1.6,0.3-2.6-0.3-3.1-1.8
		c-1.8-5.6-4-9.4-6.5-11.2c-3.5-2.6-9.5-3.9-18.2-3.9c-3.5,0-5.4,0.4-5.8,1.1c-0.1,0.3-0.2,0.6-0.2,1.1V310c0,2.7,0.6,4.6,1.9,5.7
		c1.3,1.1,3.8,2.1,7.6,3c1.6,0.3,2.5,0.6,2.7,0.7c0.6,0.4,0.8,1.2,0.6,2.4c-0.1,1-0.6,1.5-1.4,1.6c-0.1,0-1,0-2.6-0.2
		c-11.2-1-20.4-1-27.7-0.1c-1.7,0.2-2.9,0.2-3.4,0c-0.4-0.2-0.7-0.7-0.8-1.5c-0.3-1.4,0.4-2.3,2.2-2.7c3.6-0.9,6.1-2.1,7.4-3.4
		c1.4-1.5,2.2-3.9,2.2-7.2v-61.5c0-1.2-0.8-1.9-2.3-2.2c-0.2,0-1.4-0.1-3.7-0.1c-8,0-14,1.4-17.8,4.2c-2.9,2.1-5.4,5.9-7.7,11.4
		c-0.7,1.7-1.7,2.3-3,1.7c-1.4-0.3-2-1.1-1.6-2.3c1.5-4.6,2.2-11,2.2-19.4c0-1,1.3-1.4,3.9-1.2c9.1,0.6,19.3,0.9,30.4,0.9
		c21,0,34.6-0.4,40.8-1.3c2.4-0.3,3.7,0,3.9,1.1C498.8,245.3,499.3,251.8,499.2,259.2z"/>
	<path class="st0" d="M585.4,322.6c0,1-0.8,1.5-2.5,1.5c-15.2,0-29.6-13-43.1-39.1c-5.2,0.3-8,0.4-8.3,0.4v26.7c0,2,0.5,3.3,1.5,4
		c1,0.7,3.1,1.2,6.5,1.7c2.3,0.4,3.5,1.2,3.5,2.5c0,1.1-0.2,1.7-0.6,2c-0.4,0.3-1.4,0.3-3.2,0.3c-7.7-0.3-16-0.2-25.1,0.5
		c-1.8,0.1-2.7-0.6-2.7-2.2c0-1.1,0.9-1.7,2.7-1.9c4.1-0.4,6.2-2.7,6.2-6.8v-60.8c0-4-2.3-6.5-7-7.4c-2.3-0.5-3.5-1.2-3.5-2.2
		c0-1.6,0.8-2.3,2.3-2.3c0.5,0,1,0,1.5,0.1c1.7,0.3,4.4,0.4,7.9,0.4c1.2,0,4.2-0.1,9-0.2c4.8-0.1,9.2-0.2,13.3-0.2
		c8.5,0,15.2,1.6,20.1,4.8c5.5,3.5,8.3,8.7,8.3,15.6c0,11.7-6.8,19.5-20.3,23.2c4.3,9.8,9.4,18.2,15.2,25.3
		c6,7.2,11.3,11.2,16.1,11.9C584.6,320.4,585.3,321.2,585.4,322.6z M559.9,261.2c0-6.3-1.6-10.7-4.8-13.4c-3.2-2.7-8.4-4-15.4-4
		c-3.2,0-5.3,0.4-6.4,1.3c-1.1,0.9-1.7,2.7-1.7,5.6v29.9c10.2-0.3,17.6-2.1,22.1-5.4C557.8,272.2,559.9,267.6,559.9,261.2z"/>
	<path class="st0" d="M679.9,321.2c-0.3,1.1-0.5,1.8-0.8,2c-0.3,0.2-0.8,0.1-1.8-0.1c-6.1-1.1-14.9-1.2-26.5-0.4
		c-2.2,0.2-3.4-0.3-3.6-1.3c-0.2-1.2,0.5-2.1,2.1-2.7c4.6-1.9,6.9-3.6,6.9-5.2c0-0.6-0.3-1.5-0.8-2.7c-3.1-7.5-5.7-13.5-7.8-18.1
		c-3,0.2-8.3,0.3-15.9,0.3c-6.3,0-11.6-0.2-16-0.5c-1.5,3.6-3.6,8.7-6.2,15.2c-0.6,1.5-0.9,2.8-0.9,4c0,2.4,1.3,4.1,3.9,5.2
		c4,1.7,5.9,3,5.8,3.9c-0.1,1.4-1.4,2-4,1.7c-8-0.8-15.3-0.6-22.1,0.8c-1.8,0.4-2.8-0.3-3-1.9c-0.2-1.1,1.2-2.3,4.1-3.6
		c3.1-1.3,5.8-4.3,7.9-9.1c8.3-17.9,13.6-29.7,16-35.3c5.8-13.5,10-24.5,12.4-33.1c0.3-1.3,2-2.5,5-3.7c0.7-0.3,1.6,1,2.7,3.7
		c9.1,22,19.4,45.6,30.7,70.6c1.8,4,4.9,6.6,9.2,7.9C679.3,319.4,680.1,320.2,679.9,321.2z M645.4,287.8
		c-2.8-6.4-7.2-16.2-13.1-29.5c-0.3-0.7-0.7-1.1-1.1-1.1c-0.4,0-0.8,0.4-1.1,1.1L618,287.5c4.5,0.3,9.6,0.5,15.2,0.5
		C636.7,288,640.8,287.9,645.4,287.8z"/>
	<path class="st0" d="M778.2,279.2c0,14.7-4.9,25.9-14.6,33.5c-9.1,7-21.8,10.5-38,10.5c-1.4,0-4.4-0.1-9.2-0.4
		c-4.8-0.3-8.5-0.4-11.1-0.4c-3.5,0-7.3,0.2-11.6,0.5c-1.8,0.2-2.7-0.6-2.7-2.2c0-1.1,0.9-1.7,2.7-1.9c4.1-0.4,6.2-2.7,6.2-6.8
		v-60.8c0-2.3-0.5-3.8-1.4-4.6c-0.8-0.6-2.4-1.2-5-1.8c-2.2-0.4-3.5-0.8-3.9-1.1c-0.5-0.3-0.7-0.9-0.8-1.9c-0.1-1,0.3-1.7,1.3-2
		c0.2,0,1.1-0.1,2.8-0.3c9.1-0.6,21.2-0.9,36.2-0.9c14.6,0,26.4,3.5,35.2,10.5C773.6,256.6,778.2,266.5,778.2,279.2z M764.9,280.9
		c0-24.6-12.6-36.8-37.9-36.8h-8.9c-4.7,0.4-7,1.7-7,3.9v58.9c0,4.1,1.1,6.9,3.3,8.3c2.2,1.4,6.6,2.1,13.2,2.1
		C752.5,317.3,764.9,305.2,764.9,280.9z"/>
	<path class="st0" d="M856.3,306.6c-1.2,5-2,10.1-2.3,15.2c0,0.8-1.3,1.1-3.9,1c-6.6-0.3-15-0.5-25.3-0.5c-11.3,0-21,0.2-29.1,0.6
		c-1.8,0.1-2.7-0.7-2.7-2.2c0-1.1,0.9-1.7,2.7-1.9c2.5-0.3,4.2-0.8,4.9-1.5c0.9-0.8,1.3-2.6,1.3-5.3v-58.5c0-3.9-0.4-6.4-1.1-7.5
		c-0.7-1-2.7-2.1-6-3.1c-1.7-0.5-2.4-1.6-1.9-3.1c0.2-0.8,0.5-1.2,1-1.3c0.4-0.1,1.5,0,3.4,0.3c2.7,0.4,9.8,0.6,21.2,0.6
		c11.4,0,21.2-0.3,29.4-0.8c2.8-0.2,4.1,0,4.1,0.6c0,0.2,0,0.4-0.1,0.6c-0.9,4.1-1.3,8.9-1.1,14.3c0,1.3-0.6,2-1.8,2
		c-1.2,0-2-0.6-2.5-1.7c-1.2-3-2.2-5-3.1-6c-1.4-1.6-3.3-2.6-5.8-3c-2-0.4-9.2-0.6-21.5-0.6c-1.4,0-2.3,0.2-2.7,0.7
		c-0.2,0.3-0.3,0.9-0.3,1.9V274c0,1.1,0.6,1.6,1.8,1.6c3.9-0.1,9.5-0.4,16.8-0.8c1.3-0.1,2.2-0.7,2.8-1.8c0.5-0.8,1-2.6,1.5-5.3
		c0.4-1.8,1.4-2.5,3-2c1.4,0.3,2.1,0.9,1.8,2c-1.2,5.8-1.6,13.3-1.1,22.5c0,1-0.7,1.6-2.1,1.8c-1.3,0.2-2-0.5-2.2-2.1
		c-0.4-3.3-1-5.4-1.6-6.4c-0.7-1-1.9-1.7-3.7-1.9c-3.5-0.4-8.7-0.6-15.8-0.6c-0.8,0-1.1,0.3-1.1,0.9v27.7c0,3.9,2.3,6.4,6.9,7.2
		c1.1,0.2,5.1,0.3,11.9,0.3c10.5,0,17.1-3.7,19.8-11c0.6-1.7,1.7-2.3,3.1-1.7C856.1,304.6,856.6,305.4,856.3,306.6z"/>
	<path class="st0" d="M505.8,448.4c-0.3,1.1-0.5,1.8-0.8,2c-0.3,0.2-0.8,0.1-1.8-0.1c-6.1-1.1-14.9-1.2-26.5-0.4
		c-2.2,0.2-3.4-0.3-3.6-1.3c-0.2-1.2,0.5-2.1,2.1-2.7c4.6-1.9,6.9-3.6,6.9-5.2c0-0.6-0.3-1.5-0.8-2.7c-3.1-7.5-5.7-13.5-7.8-18.1
		c-3,0.2-8.3,0.3-15.9,0.3c-6.3,0-11.6-0.2-16-0.5c-1.5,3.6-3.6,8.7-6.2,15.2c-0.6,1.5-0.9,2.8-0.9,4c0,2.4,1.3,4.1,3.9,5.2
		c4,1.7,5.9,3,5.8,3.9c-0.1,1.4-1.4,2-4,1.7c-8-0.8-15.3-0.6-22.1,0.8c-1.8,0.4-2.8-0.3-3-1.9c-0.2-1.1,1.2-2.3,4.1-3.6
		c3.1-1.3,5.8-4.3,7.9-9.1c8.3-17.9,13.6-29.7,16-35.3c5.8-13.5,10-24.5,12.4-33.1c0.3-1.3,2-2.5,5-3.7c0.7-0.3,1.6,1,2.7,3.7
		c9.1,22,19.4,45.6,30.7,70.6c1.8,4,4.9,6.6,9.2,7.9C505.1,446.6,506,447.4,505.8,448.4z M471.3,414.9c-2.8-6.4-7.2-16.2-13.1-29.5
		c-0.3-0.7-0.7-1.1-1.1-1.1c-0.4,0-0.8,0.4-1.1,1.1l-12.1,29.3c4.5,0.3,9.6,0.5,15.2,0.5C462.6,415.2,466.6,415.1,471.3,414.9z"/>
	<path class="st0" d="M578.7,433.8c-1.4,5.4-2.2,10.5-2.2,15.2c0,0.8-1.4,1.1-4.1,1c-6.7-0.3-15-0.5-24.8-0.5
		c-10.5,0-19.9,0.2-28.1,0.6c-1.2,0.1-2,0-2.3-0.3c-0.3-0.3-0.4-0.9-0.4-1.9c0-1.1,0.9-1.7,2.7-1.9c4.1-0.4,6.2-2.6,6.2-6.7v-58.6
		c0-3-0.4-5.2-1.2-6.6c-1-1.7-2.8-3-5.6-3.9c-1.7-0.6-2.4-1.5-2.2-2.9c0.1-0.9,0.4-1.5,0.8-1.7c0.4-0.2,1.5-0.1,3.3,0.1
		c6.2,0.7,13.5,0.6,22.1-0.1c1.5-0.1,2.4-0.2,2.6-0.1c0.8,0.1,1.3,0.7,1.5,1.7c0.1,1.1-0.1,1.9-0.8,2.3c-0.3,0.2-1.1,0.4-2.6,0.8
		c-3,0.7-4.8,1.5-5.6,2.3c-0.8,0.9-1.1,2.7-1.1,5.5V435c0,3.6,1.2,6,3.6,7.3c2.4,1.3,6.7,1.9,13.1,1.9c6,0,10.5-0.8,13.4-2.3
		c2.9-1.5,5.3-4.5,7.1-8.7c0.7-1.7,1.7-2.3,3.1-1.7C578.6,431.8,579.1,432.6,578.7,433.8z"/>
	<path class="st0" d="M653.3,433.8c-1.2,5-2,10.1-2.3,15.2c0,0.8-1.3,1.1-3.9,1c-6.6-0.3-15-0.5-25.3-0.5c-11.3,0-21,0.2-29.1,0.6
		c-1.8,0.1-2.7-0.7-2.7-2.2c0-1.1,0.9-1.7,2.7-1.9c2.5-0.3,4.2-0.8,4.9-1.5c0.9-0.8,1.3-2.6,1.3-5.3v-58.5c0-3.9-0.4-6.4-1.1-7.5
		c-0.7-1-2.7-2.1-6-3.1c-1.7-0.5-2.4-1.6-1.9-3.1c0.2-0.8,0.5-1.2,1-1.3c0.4-0.1,1.5,0,3.4,0.3c2.7,0.4,9.8,0.6,21.2,0.6
		c11.4,0,21.2-0.3,29.4-0.8c2.8-0.2,4.1,0,4.1,0.6c0,0.2,0,0.4-0.1,0.6c-0.9,4.1-1.3,8.9-1.1,14.3c0,1.3-0.6,2-1.8,2
		c-1.2,0-2-0.6-2.5-1.7c-1.2-3-2.2-5-3.1-6c-1.4-1.6-3.3-2.6-5.8-3c-2-0.4-9.2-0.6-21.5-0.6c-1.4,0-2.3,0.2-2.7,0.7
		c-0.2,0.3-0.3,0.9-0.3,1.9v26.5c0,1.1,0.6,1.6,1.8,1.6c3.9-0.1,9.5-0.4,16.8-0.8c1.3-0.1,2.2-0.7,2.8-1.8c0.5-0.8,1-2.6,1.5-5.3
		c0.4-1.8,1.4-2.5,3-2c1.4,0.3,2.1,0.9,1.8,2c-1.2,5.8-1.6,13.3-1.1,22.5c0,1-0.7,1.6-2.1,1.8c-1.3,0.2-2-0.5-2.2-2.1
		c-0.4-3.3-1-5.4-1.6-6.4c-0.7-1-1.9-1.7-3.7-1.9c-3.5-0.4-8.7-0.6-15.8-0.6c-0.8,0-1.1,0.3-1.1,0.9v27.7c0,3.9,2.3,6.4,6.9,7.2
		c1.1,0.2,5.1,0.3,11.9,0.3c10.5,0,17.1-3.7,19.8-11c0.6-1.7,1.7-2.3,3.1-1.7C653.1,431.8,653.6,432.6,653.3,433.8z"/>
	<path class="st0" d="M741.8,449.8c0,1-0.8,1.5-2.5,1.5c-15.2,0-29.6-13-43.1-39.1c-5.2,0.3-8,0.4-8.3,0.4v26.7c0,2,0.5,3.3,1.5,4
		c1,0.7,3.1,1.2,6.5,1.7c2.3,0.4,3.5,1.2,3.5,2.5c0,1.1-0.2,1.7-0.6,2c-0.4,0.3-1.4,0.3-3.2,0.3c-7.7-0.3-16-0.2-25.1,0.5
		c-1.8,0.1-2.7-0.6-2.7-2.2c0-1.1,0.9-1.7,2.7-1.9c4.1-0.4,6.2-2.7,6.2-6.8v-60.8c0-4-2.3-6.5-7-7.4c-2.3-0.5-3.5-1.2-3.5-2.2
		c0-1.6,0.8-2.3,2.3-2.3c0.5,0,1,0,1.5,0.1c1.7,0.3,4.4,0.4,7.9,0.4c1.2,0,4.2-0.1,9-0.2c4.8-0.1,9.2-0.2,13.3-0.2
		c8.5,0,15.2,1.6,20.1,4.8c5.5,3.5,8.3,8.7,8.3,15.6c0,11.7-6.8,19.5-20.3,23.2c4.3,9.8,9.4,18.2,15.2,25.3
		c6,7.2,11.3,11.2,16.1,11.9C741,447.5,741.7,448.3,741.8,449.8z M716.2,388.4c0-6.3-1.6-10.7-4.8-13.4c-3.2-2.7-8.4-4-15.4-4
		c-3.2,0-5.3,0.4-6.4,1.3c-1.1,0.9-1.7,2.7-1.7,5.6v29.9c10.2-0.3,17.6-2.1,22.1-5.4C714.2,399.4,716.2,394.7,716.2,388.4z"/>
	<path class="st0" d="M829.7,386.3c0,0.8-0.1,1.3-0.3,1.6c-0.1,0.3-0.6,0.5-1.3,0.6c-1.6,0.3-2.6-0.3-3.1-1.8
		c-1.8-5.6-4-9.4-6.5-11.2c-3.5-2.6-9.5-3.9-18.2-3.9c-3.5,0-5.4,0.4-5.8,1.1c-0.1,0.3-0.2,0.6-0.2,1.1v63.3c0,2.7,0.6,4.6,1.9,5.7
		c1.3,1.1,3.8,2.1,7.6,3c1.6,0.3,2.5,0.6,2.7,0.7c0.6,0.4,0.8,1.2,0.6,2.4c-0.1,1-0.6,1.5-1.4,1.6c-0.1,0-1,0-2.6-0.2
		c-11.2-1-20.4-1-27.7-0.1c-1.7,0.2-2.9,0.2-3.4,0c-0.4-0.2-0.7-0.7-0.8-1.5c-0.3-1.4,0.4-2.3,2.2-2.7c3.6-0.9,6.1-2.1,7.4-3.4
		c1.4-1.5,2.2-3.9,2.2-7.2v-61.5c0-1.2-0.8-1.9-2.3-2.2c-0.2,0-1.4-0.1-3.7-0.1c-8,0-14,1.4-17.8,4.2c-2.9,2.1-5.4,5.9-7.7,11.4
		c-0.7,1.7-1.7,2.3-3,1.7c-1.4-0.3-2-1.1-1.6-2.3c1.5-4.6,2.2-11,2.2-19.4c0-1,1.3-1.4,3.9-1.2c9.1,0.6,19.3,0.9,30.4,0.9
		c21,0,34.6-0.4,40.8-1.3c2.4-0.3,3.7,0,3.9,1.1C829.3,372.4,829.8,378.9,829.7,386.3z"/>
</g>
<path class="st0" d="M239.4,109.2c-6.1-0.6-12.2-0.9-18.4-0.9c-4.1,0-8.2,0.1-12.2,0.4h0c-0.1,0-0.2,0-0.3,0
	c-7.1-0.6-20.8,2.7-21.3,2.7c-0.2,0-0.7,0.2-1.3,0.4c-18.3,3.7-35.3,10.3-50.7,19.3c-4.5,2.2-10.8,6.2-12,6.9
	c-1.6,0.9-2.8,1.3-6,2.3c-3.3,1-4,1.7-5.8,1.6c-1.8-0.1-2.8,2.4-4.2,3c-1.3,0.7-14.8,13.1-18.3,16.6c-3.6,3.5-15.3,18.3-15.2,16.9
	c0.1-1.4,11.2-14.8,11.2-14.8s20.5-18.1,25.6-22.6c5-4.5,23.4-12.8,34.7-18.6c11.2-5.8,16.9-5.1,22.8-7.8c5.9-2.7,23.3-6.1,42.3-7.3
	C223.1,106.3,233.9,108.1,239.4,109.2z"/>
<path class="st0" d="M239.4,109.2c-6.1-0.6-12.2-0.9-18.4-0.9c-4.1,0-8.2,0.1-12.2,0.4h0c-0.1,0-0.2,0-0.3,0
	c-7.1-0.6-20.8,2.7-21.3,2.7c-0.2,0-0.7,0.2-1.3,0.4c-18.3,3.7-35.3,10.3-50.7,19.3c-4.5,2.2-10.8,6.2-12,6.9
	c-1.6,0.9-2.8,1.3-6,2.3c-3.3,1-4,1.7-5.8,1.6c-1.8-0.1-2.8,2.4-4.2,3c-1.3,0.7-14.8,13.1-18.3,16.6c-3.6,3.5-15.3,18.3-15.2,16.9
	c0.1-1.4,11.2-14.8,11.2-14.8s20.5-18.1,25.6-22.6c5-4.5,23.4-12.8,34.7-18.6c11.2-5.8,16.9-5.1,22.8-7.8c5.9-2.7,23.3-6.1,42.3-7.3
	C223.1,106.3,233.9,108.1,239.4,109.2z"/>
<path class="st0" d="M42.7,302.8c0,1.6-1.3,2.9-2.9,2.9c-1.6,0-2.9-1.3-2.9-2.9c0-1.6,1.3-2.9,2.9-2.9
	C41.4,299.9,42.7,301.2,42.7,302.8z"/>
<path class="st0" d="M101.8,185.2l0.5-0.3l0,1.3c0,0-1.4,2.1-2,0.1c-0.6-2,0.9-1,0.9-1L101.8,185.2z"/>
<path class="st0" d="M124,163l0-0.6l1.9,0c0,0,0.2,0.4,0,0.6c-0.2,0.2-0.6,0.6-0.9,0.5C124.7,163.4,124,163,124,163z"/>
<path class="st0" d="M178.3,179.5c-0.2-0.2,0.4-1.9,0.4-2c0-0.2,1.7,0.2,1.9,0.2c0.2,0,0.4,0.8,0.4,0.8l-1.1,1.3
	C179.9,179.8,178.6,179.6,178.3,179.5z"/>
<path class="st0" d="M186,147.3c0-0.3,3.2-2.2,3.2-2.6c0,0.1,0,0.3,0,0.3l-0.9,1.1c0,0-0.1,0.4-0.5,0.7c-0.4,0.2-1.4,0.5-1.4,0.5
	S186.1,147.7,186,147.3z"/>
<path class="st0" d="M183.3,169.2l0.9-1.5c0,0-0.1-2,0.1-2.3c0.2-0.2,2-3.4,2-3.4l0.5-2.1l0.2-0.5l3.3-3.8l6.3-2.9
	c0,0,1,1.9-0.3,2.8c-0.4,0.3-6.5,5.1-6.5,5.1l-0.9,3.4c0,0-2.8,3.9-2.8,4.5c0,0.6,3,2.4,3,2.4s0.9,1.2,0.1,1.3
	c-0.8,0.2-3.2,0.1-3.5,0.1c-0.2,0-1.6-1.5-1.6-1.5L183.3,169.2z"/>
<path class="st0" d="M204.4,139.5c-0.1-0.4,0.9-2.1,0.9-2.1l2.9,1.1l2.6,0.4l1.7,2l-0.3,0.6c0,0-4.8,0.7-5.6,0.5
	C205.8,141.8,204.5,139.9,204.4,139.5z"/>
<path class="st0" d="M215,138.9c0-0.2,0-0.3,0-0.4l2.5,0.3l0.1,2.9c0,0-1.1,0.2-1.9-0.8C214.8,139.9,215,139.6,215,138.9z"/>
<path class="st0" d="M237,125.5c1.5,0.9,2.2,1.2,2.3,1.7c0.1,0.5-2.1,2.4-3,2.5c-0.9,0.1-2,0.1-2.2,0.1c-0.2-0.1-0.7-1.5-0.7-1.9
	c0-0.4,1.3-4.5,2.5-4.6c1.1-0.1,2.4-0.5,2.1,1C237.9,124.3,235.5,124.6,237,125.5z"/>
<path class="st0" d="M49.6,257.4c0.1-0.3,0.1-0.5,0.2-0.6C49.8,256.9,49.7,257.1,49.6,257.4z"/>
<path class="st0" d="M141.9,206.2l-0.3-0.5C141.6,205.8,142.6,205.9,141.9,206.2z"/>
<path class="st0" d="M373.7,240.9c-1.2-2.8,0.6-3,0.6-3c3.5,6.4,4.2,9.5,2.4,9.1C374.9,246.7,374.8,243.7,373.7,240.9z"/>
<path class="st0" d="M146.5,251.1C146.5,251.1,146.5,251.2,146.5,251.1c0.1,0.2,0.2,0.2,0.5,0.2
	C146.8,251.3,146.6,251.2,146.5,251.1z M146.5,251.1C146.5,251.1,146.5,251.2,146.5,251.1c0.1,0.2,0.2,0.2,0.5,0.2
	C146.8,251.3,146.6,251.2,146.5,251.1z M146.5,251.1C146.5,251.1,146.5,251.2,146.5,251.1c0.1,0.2,0.2,0.2,0.5,0.2
	C146.8,251.3,146.6,251.2,146.5,251.1z M146.5,251.1C146.5,251.1,146.5,251.2,146.5,251.1c0.1,0.2,0.2,0.2,0.5,0.2
	C146.8,251.3,146.6,251.2,146.5,251.1z M146.5,251.1C146.5,251.1,146.5,251.2,146.5,251.1c0.1,0.2,0.2,0.2,0.5,0.2
	C146.8,251.3,146.6,251.2,146.5,251.1z M146.5,251.1C146.5,251.1,146.5,251.2,146.5,251.1c0.1,0.2,0.2,0.2,0.5,0.2
	C146.8,251.3,146.6,251.2,146.5,251.1z M146.5,251.1C146.5,251.1,146.5,251.2,146.5,251.1c0.1,0.2,0.2,0.2,0.5,0.2
	C146.8,251.3,146.6,251.2,146.5,251.1z M146.5,251.1C146.5,251.1,146.5,251.2,146.5,251.1c0.1,0.2,0.2,0.2,0.5,0.2
	C146.8,251.3,146.6,251.2,146.5,251.1z M146.5,251.1C146.5,251.1,146.5,251.2,146.5,251.1c0.1,0.2,0.2,0.2,0.5,0.2
	C146.8,251.3,146.6,251.2,146.5,251.1z M146.5,251.1C146.5,251.1,146.5,251.2,146.5,251.1c0.1,0.2,0.2,0.2,0.5,0.2
	C146.8,251.3,146.6,251.2,146.5,251.1z"/>
<path class="st0" d="M381.9,321c-22.7-64.9-54.5-102.1-94.5-110.7c-33.6-7.2-66.8,7.8-88.7,21.6c-18.3,11.6-32.1,24.3-37.4,29.5
	c4.5-14.5,24.7-72.3,62.6-86.8c17.1-6.5,35.6-3.5,55.2,9.1c0,0.1,0,0.1-0.1,0.2l1.7,0.5c4.9-17.2,11.7-26.3,20.2-26.9
	c0.3,0,0.6,0,1,0c27,0,63.2,80.1,63.6,80.9l1.6-0.7c-1.5-3.4-37.9-83.9-66.2-81.9c-8.8,0.6-15.8,9.2-20.9,25.3
	c-31.6-29-61.4-40.7-88.6-34.9c-36.6,7.8-57.5,45.6-62.4,55.5c-5-11.6-10.5-17.7-16.4-18c-8.1-0.4-13.6,10.1-13.8,10.5l1.5,0.8
	c0.1-0.1,5.2-9.9,12.2-9.6c5.4,0.2,10.6,6.3,15.4,18l0.3-0.1c-0.2,0.4-0.3,0.7-0.3,0.7l1.6,0.7c0.2-0.5,21.1-48.1,62.2-56.9
	c25.8-5.5,54,5.2,83.9,31.6c-18.4-10.5-35.9-12.8-52.2-6.5c-41.2,15.8-61.7,81.4-64.3,90.3c-9.8-10.5-21.5-15.8-34.8-15.6
	c-41.2,0.7-85.2,53.6-85.6,54.2l0.7,0.6c-0.4,0.4-0.7,0.7-0.7,0.7l1.3,1.2c0.2-0.2,18.5-20.1,41.7-13.7c21.7,6,52.1,36.8,74.2,149.3
	l1.7-0.3c-9.8-50-22.1-88.2-36.6-113.8c-11.6-20.5-24.7-33-38.9-36.9c-16.6-4.6-30.8,3.7-38.1,9.5c11.6-12.8,47-48.5,80.4-49
	c13.4-0.2,25,5.3,34.7,16.3l0.5,0.6l0.6-0.5c0.3-0.2,29.3-21.3,68.3-15.3c30,4.6,57.8,23.6,82.7,56.6c-19.9-14.1-39.2-18.8-57.5-14
	c-36.6,9.5-56.5,54.4-56.7,54.8l1.6,0.7c0.2-0.4,19.8-44.5,55.6-53.8c18.8-4.9,38.9,0.6,59.6,16.3l0.2-0.3l0.6,0.9l0.7-1.2
	c0.1-0.3,14.6-25.7,32.5-24.6c12,0.8,22.9,13.1,32.4,36.6l1-0.4c0.1,0,0.1,0,0.2,0c0.1,0,0.2,0,0.3,0
	C381.8,321.9,382.1,321.4,381.9,321z M347.6,284.2c-16.9-1.1-30.3,19.2-33.5,24.3c-25.6-34.8-54.4-54.9-85.6-59.7
	c-30.2-4.6-54.6,6.7-64.6,12.5c14.6-13.9,68.8-60.9,123.2-49.3c36.8,7.8,66.5,40.5,88.6,97.2C367.3,293.3,357.9,284.9,347.6,284.2z"
	/>
<path class="st0" d="M201,348.4c0,1.6-1.3,2.9-2.9,2.9s-2.9-1.3-2.9-2.9s1.3-2.9,2.9-2.9S201,346.7,201,348.4z"/>
<path class="st0" d="M159.4,440.8c0,1.6-1.3,2.9-2.9,2.9c-1.6,0-2.9-1.3-2.9-2.9c0-1.6,1.3-2.9,2.9-2.9
	C158.1,437.9,159.4,439.2,159.4,440.8z"/>
<path class="st0" d="M42.5,302.8c0,1.6-1.3,2.9-2.9,2.9c-1.6,0-2.9-1.3-2.9-2.9c0-1.6,1.3-2.9,2.9-2.9
	C41.2,299.9,42.5,301.2,42.5,302.8z"/>
<path class="st0" d="M163.2,265.5c0,1.6-1.3,2.9-2.9,2.9c-1.6,0-2.9-1.3-2.9-2.9c0-1.6,1.3-2.9,2.9-2.9
	C161.9,262.6,163.2,263.9,163.2,265.5z"/>
<path class="st0" d="M131.4,205.3c0,1.6-1.3,2.9-2.9,2.9c-1.6,0-2.9-1.3-2.9-2.9c0-1.6,1.3-2.9,2.9-2.9
	C130.1,202.4,131.4,203.7,131.4,205.3z"/>
<path class="st0" d="M283.4,184c0,1.6-1.3,2.9-2.9,2.9c-1.6,0-2.9-1.3-2.9-2.9s1.3-2.9,2.9-2.9C282.1,181.1,283.4,182.4,283.4,184z"
	/>
<path class="st0" d="M369.4,238c0,1.6-1.3,2.9-2.9,2.9c-1.6,0-2.9-1.3-2.9-2.9c0-1.6,1.3-2.9,2.9-2.9
	C368.1,235.1,369.4,236.4,369.4,238z"/>
<path class="st0" d="M382.7,321.9c0,1.6-1.3,2.9-2.9,2.9c-1.6,0-2.9-1.3-2.9-2.9c0-1.6,1.3-2.9,2.9-2.9
	C381.4,319,382.7,320.3,382.7,321.9z"/>
<path class="st0" d="M317.2,311.9c0,1.6-1.3,2.9-2.9,2.9c-1.6,0-2.9-1.3-2.9-2.9c0-1.6,1.3-2.9,2.9-2.9
	C315.9,308.9,317.2,310.3,317.2,311.9z"/>
<path class="st0" d="M103,194.2c0,1.6-1.3,2.9-2.9,2.9c-1.6,0-2.9-1.3-2.9-2.9c0-1.6,1.3-2.9,2.9-2.9
	C101.7,191.3,103,192.6,103,194.2z"/>
<path class="st0" d="M176.7,145c-0.1,0-0.2,0.1-0.2,0.2c0,0-0.1-0.1-0.1-0.1C176.5,145,176.6,145,176.7,145z"/>
<path class="st0" d="M215.5,473.8c-103.3,0-187.3-84-187.3-187.3s84-187.3,187.3-187.3s187.3,84,187.3,187.3
	S318.7,473.8,215.5,473.8z M215.5,103.2c-101.1,0-183.3,82.2-183.3,183.3c0,101.1,82.2,183.3,183.3,183.3
	c101.1,0,183.3-82.2,183.3-183.3C398.7,185.4,316.5,103.2,215.5,103.2z"/>
<path class="st0" d="M110.6,149.2c-4.9,4.3-9.6,8.9-14,13.7l-0.9,0.5c0,0-0.5-1.7-0.1-3.3s1.2-1.3,2.5-2.4c1.2-1.1,3.5-3.1,3.9-3.3
	c0.5-0.2,2.2-2.1,2.2-2.1l2.9-1.2C107.1,151,109.2,150,110.6,149.2z"/>
</svg>
