<?xml version="1.0" encoding="utf-8"?>
<!-- Generator: Adobe Illustrator 22.0.1, SVG Export Plug-In . SVG Version: 6.00 Build 0)  -->
<svg version="1.1" id="Layer_1" xmlns="http://www.w3.org/2000/svg" xmlns:xlink="http://www.w3.org/1999/xlink" x="0px" y="0px"
	 viewBox="0 0 915.5 374.6" style="enable-background:new 0 0 915.5 374.6;" xml:space="preserve">
<style type="text/css">
	.st0{fill:#E6E7E8;}
	.st1{fill:#FFFFFF;fill-opacity:0;}
	.st2{fill:#348BCB;}
</style>
<g>
	<path class="st0" d="M481.2,57.8c0,1.4-1,2.2-3,2.5c-2.8,0.4-4.4,0.7-4.9,0.9c-1.5,0.6-2.3,1.9-2.3,3.7v19.9c0,2.5-3.3,5.2-9.8,8
		c-7.3,3.2-15.6,4.8-24.7,4.8c-13.3,0-24.4-4-33.2-11.9c-9-8-13.5-18.4-13.5-30.9c0-12.8,4.6-23.5,13.9-32
		c9-8.2,19.8-12.3,32.4-12.3c9.7,0,17.9,1.2,24.7,3.5c5,1.7,7.6,3.4,7.8,5.1c0.4,3.2,0.6,8,0.6,14.3c0,1.4-0.9,2.1-2.6,2.2
		c-2,0.1-3.3-0.5-3.7-1.7c-2.3-6.3-5.6-10.8-9.8-13.6c-4.2-2.8-10-4.2-17.4-4.2c-10.2,0-18.1,3.1-23.8,9.3
		c-5.9,6.5-8.8,15.8-8.8,27.8c0,11.6,3.4,21,10.2,28.1c6.6,6.9,15,10.4,25.3,10.4c5.3,0,10.2-1,14.8-2.9c4.4-1.8,6.5-3.7,6.5-5.5
		V70.1c0-3.1-0.6-5.4-1.9-6.8c-1.1-1.3-3.3-2.4-6.5-3.4c-2.4-0.7-3.6-1.6-3.4-2.6c0.2-1.1,0.5-1.8,0.9-2c0.4-0.3,1.4-0.3,3.1-0.1
		c9,1.1,17.8,1.2,26.3,0.3c0.5,0,0.8-0.1,1.1-0.1C480.6,55.4,481.2,56.2,481.2,57.8z"/>
	<path class="st0" d="M554.9,79.8c-1.4,5.4-2.2,10.5-2.2,15.2c0,0.8-1.4,1.1-4.1,1c-6.7-0.3-15-0.5-24.8-0.5
		c-10.5,0-19.9,0.2-28.1,0.6c-1.2,0.1-2,0-2.3-0.3s-0.4-0.9-0.4-1.9c0-1.1,0.9-1.7,2.7-1.9c4.1-0.4,6.2-2.6,6.2-6.7V26.7
		c0-3-0.4-5.2-1.2-6.6c-1-1.7-2.8-3-5.6-3.9c-1.7-0.6-2.4-1.5-2.2-2.9c0.1-0.9,0.4-1.5,0.8-1.7c0.4-0.2,1.5-0.1,3.3,0.1
		c6.2,0.7,13.5,0.6,22.1-0.1c1.5-0.1,2.4-0.2,2.6-0.1c0.8,0.1,1.3,0.7,1.5,1.7c0.1,1.1-0.1,1.9-0.8,2.3c-0.3,0.2-1.1,0.4-2.6,0.8
		c-3,0.7-4.8,1.5-5.6,2.3c-0.8,0.9-1.1,2.7-1.1,5.5v56.8c0,3.6,1.2,6,3.6,7.3c2.4,1.3,6.7,1.9,13.1,1.9c6,0,10.5-0.8,13.4-2.3
		s5.3-4.5,7.1-8.7c0.7-1.7,1.7-2.3,3.1-1.7C554.7,77.7,555.2,78.5,554.9,79.8z"/>
	<path class="st0" d="M656.2,53.8c0,12.2-4.5,22.6-13.6,31.1c-8.9,8.4-19.6,12.6-32.1,12.6c-13.1,0-24-3.9-32.7-11.8
		c-8.9-8.1-13.3-18.6-13.3-31.5c0-12.4,4.5-22.9,13.5-31.4c8.9-8.3,19.7-12.4,32.5-12.4c13,0,23.9,4,32.5,12.1
		C651.9,30.7,656.2,41.1,656.2,53.8z M643.3,55.9c0-12.3-3.4-22.1-10.1-29.2c-6.5-6.9-15-10.3-25.7-10.3c-8.8,0-16,3.2-21.7,9.7
		s-8.5,15-8.5,25.4c0,12.5,3.3,22.3,9.8,29.5c6.4,6.9,15.1,10.4,26,10.4c8.8,0,16.1-3.3,21.7-9.8C640.6,75.1,643.3,66.6,643.3,55.9z
		"/>
	<path class="st0" d="M736.3,72.1c0,8.2-3.2,14.3-9.5,18.4c-5.8,3.8-13.8,5.7-24.1,5.7c-1.1,0-3.9-0.1-8.2-0.4
		c-4.3-0.3-7.8-0.4-10.4-0.4c-4.3,0-7.7,0.3-10.2,0.8c-1.6,0.3-2.5-0.1-2.7-1.3c-0.3-1.1,0.7-2,2.7-2.9c2.4-1,3.9-1.9,4.6-2.7
		c1.1-1.1,1.6-2.9,1.6-5.3V24.4c0-4-2.3-6.5-7-7.4c-2.3-0.5-3.5-1.2-3.5-2.2c0-1.3,0.3-2,1-2.3c0.4-0.2,1.4-0.1,2.9,0.1
		c1.9,0.3,4.9,0.4,9.1,0.4c2.3,0,6.1-0.1,11.3-0.2s8.5-0.2,9.7-0.2c7.9,0,14.1,1.5,18.6,4.4c5.1,3.3,7.6,8.2,7.6,14.7
		c0,8.6-5.3,14.6-15.8,18c-1.2,0.4-1.1,0.7,0.1,0.9C728.9,53,736.3,60.2,736.3,72.1z M717,32.7c0-5.5-1.4-9.6-4.2-12
		c-2.8-2.5-7.3-3.7-13.5-3.7c-4.9,0-7.6,0.7-7.9,2.2c-0.1,0.3-0.1,0.8-0.1,1.3v27.6h5.6c7,0,12.1-1.2,15.3-3.6
		C715.4,42.1,717,38.2,717,32.7z M723.2,73.5c0-7-2.3-12.3-7-15.9c-4-3-9.3-4.6-15.8-4.6c-3.8,0-6.8,0.2-9.2,0.7v31.4
		c0,4.1,4.2,6.1,12.6,6.1C716.8,91.3,723.2,85.4,723.2,73.5z"/>
	<path class="st0" d="M837.7,94.4c-0.3,1.1-0.5,1.8-0.8,2s-0.8,0.1-1.8-0.1c-6.1-1.1-14.9-1.2-26.5-0.4c-2.2,0.2-3.4-0.3-3.6-1.3
		c-0.2-1.2,0.5-2.1,2.1-2.7c4.6-1.9,6.9-3.6,6.9-5.2c0-0.6-0.3-1.5-0.8-2.7c-3.1-7.5-5.7-13.5-7.8-18.1c-3,0.2-8.3,0.3-15.9,0.3
		c-6.3,0-11.6-0.2-16-0.5c-1.5,3.6-3.6,8.7-6.2,15.2c-0.6,1.5-0.9,2.8-0.9,4c0,2.4,1.3,4.1,3.9,5.2c4,1.7,5.9,3,5.8,3.9
		c-0.1,1.4-1.4,2-4,1.7c-8-0.8-15.3-0.6-22.1,0.8c-1.8,0.4-2.8-0.3-3-1.9c-0.2-1.1,1.2-2.3,4.1-3.6c3.1-1.3,5.8-4.3,7.9-9.1
		c8.3-17.9,13.6-29.7,16-35.3c5.8-13.5,10-24.5,12.4-33.1c0.3-1.3,2-2.5,5-3.7c0.7-0.3,1.6,1,2.7,3.7c9.1,22,19.4,45.6,30.7,70.6
		c1.8,4,4.9,6.6,9.2,7.9C837,92.6,837.9,93.3,837.7,94.4z M803.2,60.9c-2.8-6.4-7.2-16.2-13.1-29.5c-0.3-0.7-0.7-1.1-1.1-1.1
		c-0.4,0-0.8,0.4-1.1,1.1l-12.1,29.3c4.5,0.3,9.6,0.5,15.2,0.5C794.5,61.1,798.5,61.1,803.2,60.9z"/>
	<path class="st0" d="M910.7,79.8c-1.4,5.4-2.2,10.5-2.2,15.2c0,0.8-1.4,1.1-4.1,1c-6.7-0.3-15-0.5-24.8-0.5
		c-10.5,0-19.9,0.2-28.1,0.6c-1.2,0.1-2,0-2.3-0.3s-0.4-0.9-0.4-1.9c0-1.1,0.9-1.7,2.7-1.9c4.1-0.4,6.2-2.6,6.2-6.7V26.7
		c0-3-0.4-5.2-1.2-6.6c-1-1.7-2.8-3-5.6-3.9c-1.7-0.6-2.4-1.5-2.2-2.9c0.1-0.9,0.4-1.5,0.8-1.7c0.4-0.2,1.5-0.1,3.3,0.1
		c6.2,0.7,13.5,0.6,22.1-0.1c1.5-0.1,2.4-0.2,2.6-0.1c0.8,0.1,1.3,0.7,1.5,1.7c0.1,1.1-0.1,1.9-0.8,2.3c-0.3,0.2-1.1,0.4-2.6,0.8
		c-3,0.7-4.8,1.5-5.6,2.3c-0.8,0.9-1.1,2.7-1.1,5.5v56.8c0,3.6,1.2,6,3.6,7.3c2.4,1.3,6.7,1.9,13.1,1.9c6,0,10.5-0.8,13.4-2.3
		s5.3-4.5,7.1-8.7c0.7-1.7,1.7-2.3,3.1-1.7C910.5,77.7,911,78.5,910.7,79.8z"/>
	<path class="st0" d="M470.7,159.5c0,0.8-0.1,1.3-0.3,1.6c-0.1,0.3-0.6,0.5-1.3,0.6c-1.6,0.3-2.6-0.3-3.1-1.8
		c-1.8-5.6-4-9.4-6.5-11.2c-3.5-2.6-9.5-3.9-18.2-3.9c-3.5,0-5.4,0.4-5.8,1.1c-0.1,0.3-0.2,0.6-0.2,1.1v63.3c0,2.7,0.6,4.6,1.9,5.7
		s3.8,2.1,7.6,3c1.6,0.3,2.5,0.6,2.7,0.7c0.6,0.4,0.8,1.2,0.6,2.4c-0.1,1-0.6,1.5-1.4,1.6c-0.1,0-1,0-2.6-0.2
		c-11.2-1-20.4-1-27.7-0.1c-1.7,0.2-2.9,0.2-3.4,0c-0.4-0.2-0.7-0.7-0.8-1.5c-0.3-1.4,0.4-2.3,2.2-2.7c3.6-0.9,6.1-2.1,7.4-3.4
		c1.4-1.5,2.2-3.9,2.2-7.2v-61.5c0-1.2-0.8-1.9-2.3-2.2c-0.2,0-1.4-0.1-3.7-0.1c-8,0-14,1.4-17.8,4.2c-2.9,2.1-5.4,5.9-7.7,11.4
		c-0.7,1.7-1.7,2.3-3,1.7c-1.4-0.3-2-1.1-1.6-2.3c1.5-4.6,2.2-11,2.2-19.4c0-1,1.3-1.4,3.9-1.2c9.1,0.6,19.3,0.9,30.4,0.9
		c21,0,34.6-0.4,40.8-1.3c2.4-0.3,3.7,0,3.9,1.1C470.3,145.6,470.8,152.1,470.7,159.5z"/>
	<path class="st0" d="M556.9,222.9c0,1-0.8,1.5-2.5,1.5c-15.2,0-29.6-13-43.1-39.1c-5.2,0.3-8,0.4-8.3,0.4v26.7c0,2,0.5,3.3,1.5,4
		s3.1,1.2,6.5,1.7c2.3,0.4,3.5,1.2,3.5,2.5c0,1.1-0.2,1.7-0.6,2c-0.4,0.3-1.4,0.3-3.2,0.3c-7.7-0.3-16-0.2-25.1,0.5
		c-1.8,0.1-2.7-0.6-2.7-2.2c0-1.1,0.9-1.7,2.7-1.9c4.1-0.4,6.2-2.7,6.2-6.8v-60.8c0-4-2.3-6.5-7-7.4c-2.3-0.5-3.5-1.2-3.5-2.2
		c0-1.6,0.8-2.3,2.3-2.3c0.5,0,1,0,1.5,0.1c1.7,0.3,4.4,0.4,7.9,0.4c1.2,0,4.2-0.1,9-0.2c4.8-0.1,9.2-0.2,13.3-0.2
		c8.5,0,15.2,1.6,20.1,4.8c5.5,3.5,8.3,8.7,8.3,15.6c0,11.7-6.8,19.5-20.3,23.2c4.3,9.8,9.4,18.2,15.2,25.3
		c6,7.2,11.3,11.2,16.1,11.9C556.1,220.7,556.8,221.5,556.9,222.9z M531.4,161.5c0-6.3-1.6-10.7-4.8-13.4s-8.4-4-15.4-4
		c-3.2,0-5.3,0.4-6.4,1.3c-1.1,0.9-1.7,2.7-1.7,5.6v29.9c10.2-0.3,17.6-2.1,22.1-5.4C529.3,172.5,531.4,167.9,531.4,161.5z"/>
	<path class="st0" d="M651.4,221.5c-0.3,1.1-0.5,1.8-0.8,2s-0.8,0.1-1.8-0.1c-6.1-1.1-14.9-1.2-26.5-0.4c-2.2,0.2-3.4-0.3-3.6-1.3
		c-0.2-1.2,0.5-2.1,2.1-2.7c4.6-1.9,6.9-3.6,6.9-5.2c0-0.6-0.3-1.5-0.8-2.7c-3.1-7.5-5.7-13.5-7.8-18.1c-3,0.2-8.3,0.3-15.9,0.3
		c-6.3,0-11.6-0.2-16-0.5c-1.5,3.6-3.6,8.7-6.2,15.2c-0.6,1.5-0.9,2.8-0.9,4c0,2.4,1.3,4.1,3.9,5.2c4,1.7,5.9,3,5.8,3.9
		c-0.1,1.4-1.4,2-4,1.7c-8-0.8-15.3-0.6-22.1,0.8c-1.8,0.4-2.8-0.3-3-1.9c-0.2-1.1,1.2-2.3,4.1-3.6c3.1-1.3,5.8-4.3,7.9-9.1
		c8.3-17.9,13.6-29.7,16-35.3c5.8-13.5,10-24.5,12.4-33.1c0.3-1.3,2-2.5,5-3.7c0.7-0.3,1.6,1,2.7,3.7c9.1,22,19.4,45.6,30.7,70.6
		c1.8,4,4.9,6.6,9.2,7.9C650.8,219.7,651.6,220.5,651.4,221.5z M616.9,188.1c-2.8-6.4-7.2-16.2-13.1-29.5c-0.3-0.7-0.7-1.1-1.1-1.1
		c-0.4,0-0.8,0.4-1.1,1.1l-12.1,29.2c4.5,0.3,9.6,0.5,15.2,0.5C608.2,188.3,612.3,188.2,616.9,188.1z"/>
	<path class="st0" d="M749.7,179.5c0,14.7-4.9,25.9-14.6,33.5c-9.1,7-21.8,10.5-38,10.5c-1.4,0-4.4-0.1-9.2-0.4s-8.5-0.4-11.1-0.4
		c-3.5,0-7.3,0.2-11.6,0.5c-1.8,0.2-2.7-0.6-2.7-2.2c0-1.1,0.9-1.7,2.7-1.9c4.1-0.4,6.2-2.7,6.2-6.8v-60.8c0-2.3-0.5-3.8-1.4-4.6
		c-0.8-0.6-2.4-1.2-5-1.8c-2.2-0.4-3.5-0.8-3.9-1.1c-0.5-0.3-0.7-0.9-0.8-1.9s0.3-1.7,1.3-2c0.2,0,1.1-0.1,2.8-0.3
		c9.1-0.6,21.2-0.9,36.2-0.9c14.6,0,26.4,3.5,35.2,10.5C745.1,156.9,749.7,166.8,749.7,179.5z M736.4,181.2
		c0-24.6-12.6-36.8-37.9-36.8h-8.9c-4.7,0.4-7,1.7-7,3.9v58.9c0,4.1,1.1,6.9,3.3,8.3s6.6,2.1,13.2,2.1
		C724,217.6,736.4,205.5,736.4,181.2z"/>
	<path class="st0" d="M827.8,206.9c-1.2,5-2,10.1-2.3,15.2c0,0.8-1.3,1.1-3.9,1c-6.6-0.3-15-0.5-25.3-0.5c-11.3,0-21,0.2-29.1,0.6
		c-1.8,0.1-2.7-0.7-2.7-2.2c0-1.1,0.9-1.7,2.7-1.9c2.5-0.3,4.2-0.8,4.9-1.5c0.9-0.8,1.3-2.6,1.3-5.3v-58.5c0-3.9-0.4-6.4-1.1-7.5
		c-0.7-1-2.7-2.1-6-3.1c-1.7-0.5-2.4-1.6-1.9-3.1c0.2-0.8,0.5-1.2,1-1.3c0.4-0.1,1.5,0,3.4,0.3c2.7,0.4,9.8,0.6,21.2,0.6
		s21.2-0.3,29.4-0.8c2.8-0.2,4.1,0,4.1,0.6c0,0.2,0,0.4-0.1,0.6c-0.9,4.1-1.3,8.9-1.1,14.3c0,1.3-0.6,2-1.8,2s-2-0.6-2.5-1.7
		c-1.2-3-2.2-5-3.1-6c-1.4-1.6-3.3-2.6-5.8-3c-2-0.4-9.2-0.6-21.5-0.6c-1.4,0-2.3,0.2-2.7,0.7c-0.2,0.3-0.3,0.9-0.3,1.9v26.6
		c0,1.1,0.6,1.6,1.8,1.6c3.9-0.1,9.5-0.4,16.8-0.8c1.3-0.1,2.2-0.7,2.8-1.8c0.5-0.8,1-2.6,1.5-5.3c0.4-1.8,1.4-2.5,3-2
		c1.4,0.3,2.1,0.9,1.8,2c-1.2,5.8-1.6,13.3-1.1,22.5c0,1-0.7,1.6-2.1,1.8c-1.3,0.2-2-0.5-2.2-2.1c-0.4-3.3-1-5.4-1.6-6.4
		c-0.7-1-1.9-1.7-3.7-1.9c-3.5-0.4-8.7-0.6-15.8-0.6c-0.8,0-1.1,0.3-1.1,0.9v27.7c0,3.9,2.3,6.4,6.9,7.2c1.1,0.2,5.1,0.3,11.9,0.3
		c10.5,0,17.1-3.7,19.8-11c0.6-1.7,1.7-2.3,3.1-1.7C827.6,204.9,828.1,205.7,827.8,206.9z"/>
	<path class="st0" d="M477.3,348.7c-0.3,1.1-0.5,1.8-0.8,2s-0.8,0.1-1.8-0.1c-6.1-1.1-14.9-1.2-26.5-0.4c-2.2,0.2-3.4-0.3-3.6-1.3
		c-0.2-1.2,0.5-2.1,2.1-2.7c4.6-1.9,6.9-3.6,6.9-5.2c0-0.6-0.3-1.5-0.8-2.7c-3.1-7.5-5.7-13.5-7.8-18.1c-3,0.2-8.3,0.3-15.9,0.3
		c-6.3,0-11.6-0.2-16-0.5c-1.5,3.6-3.6,8.7-6.2,15.2c-0.6,1.5-0.9,2.8-0.9,4c0,2.4,1.3,4.1,3.9,5.2c4,1.7,5.9,3,5.8,3.9
		c-0.1,1.4-1.4,2-4,1.7c-8-0.8-15.3-0.6-22.1,0.8c-1.8,0.4-2.8-0.3-3-1.9c-0.2-1.1,1.2-2.3,4.1-3.6c3.1-1.3,5.8-4.3,7.9-9.1
		c8.3-17.9,13.6-29.7,16-35.3c5.8-13.5,10-24.5,12.4-33.1c0.3-1.3,2-2.5,5-3.7c0.7-0.3,1.6,1,2.7,3.7c9.1,22,19.4,45.6,30.7,70.6
		c1.8,4,4.9,6.6,9.2,7.9C476.6,346.9,477.5,347.7,477.3,348.7z M442.8,315.2c-2.8-6.4-7.2-16.2-13.1-29.5c-0.3-0.7-0.7-1.1-1.1-1.1
		s-0.8,0.4-1.1,1.1L415.4,315c4.5,0.3,9.6,0.5,15.2,0.5C434.1,315.5,438.1,315.4,442.8,315.2z"/>
	<path class="st0" d="M550.2,334.1c-1.4,5.4-2.2,10.5-2.2,15.2c0,0.8-1.4,1.1-4.1,1c-6.7-0.3-15-0.5-24.8-0.5
		c-10.5,0-19.9,0.2-28.1,0.6c-1.2,0.1-2,0-2.3-0.3s-0.4-0.9-0.4-1.9c0-1.1,0.9-1.7,2.7-1.9c4.1-0.4,6.2-2.6,6.2-6.7V281
		c0-3-0.4-5.2-1.2-6.6c-1-1.7-2.8-3-5.6-3.9c-1.7-0.6-2.4-1.5-2.2-2.9c0.1-0.9,0.4-1.5,0.8-1.7c0.4-0.2,1.5-0.1,3.3,0.1
		c6.2,0.7,13.5,0.6,22.1-0.1c1.5-0.1,2.4-0.2,2.6-0.1c0.8,0.1,1.3,0.7,1.5,1.7c0.1,1.1-0.1,1.9-0.8,2.3c-0.3,0.2-1.1,0.4-2.6,0.8
		c-3,0.7-4.8,1.5-5.6,2.3c-0.8,0.9-1.1,2.7-1.1,5.5v56.9c0,3.6,1.2,6,3.6,7.3c2.4,1.3,6.7,1.9,13.1,1.9c6,0,10.5-0.8,13.4-2.3
		s5.3-4.5,7.1-8.7c0.7-1.7,1.7-2.3,3.1-1.7C550.1,332.1,550.6,332.9,550.2,334.1z"/>
	<path class="st0" d="M624.8,334.1c-1.2,5-2,10.1-2.3,15.2c0,0.8-1.3,1.1-3.9,1c-6.6-0.3-15-0.5-25.3-0.5c-11.3,0-21,0.2-29.1,0.6
		c-1.8,0.1-2.7-0.7-2.7-2.2c0-1.1,0.9-1.7,2.7-1.9c2.5-0.3,4.2-0.8,4.9-1.5c0.9-0.8,1.3-2.6,1.3-5.3V281c0-3.9-0.4-6.4-1.1-7.5
		c-0.7-1-2.7-2.1-6-3.1c-1.7-0.5-2.4-1.6-1.9-3.1c0.2-0.8,0.5-1.2,1-1.3c0.4-0.1,1.5,0,3.4,0.3c2.7,0.4,9.8,0.6,21.2,0.6
		s21.2-0.3,29.4-0.8c2.8-0.2,4.1,0,4.1,0.6c0,0.2,0,0.4-0.1,0.6c-0.9,4.1-1.3,8.9-1.1,14.3c0,1.3-0.6,2-1.8,2s-2-0.6-2.5-1.7
		c-1.2-3-2.2-5-3.1-6c-1.4-1.6-3.3-2.6-5.8-3c-2-0.4-9.2-0.6-21.5-0.6c-1.4,0-2.3,0.2-2.7,0.7c-0.2,0.3-0.3,0.9-0.3,1.9v26.5
		c0,1.1,0.6,1.6,1.8,1.6c3.9-0.1,9.5-0.4,16.8-0.8c1.3-0.1,2.2-0.7,2.8-1.8c0.5-0.8,1-2.6,1.5-5.3c0.4-1.8,1.4-2.5,3-2
		c1.4,0.3,2.1,0.9,1.8,2c-1.2,5.8-1.6,13.3-1.1,22.5c0,1-0.7,1.6-2.1,1.8c-1.3,0.2-2-0.5-2.2-2.1c-0.4-3.3-1-5.4-1.6-6.4
		c-0.7-1-1.9-1.7-3.7-1.9c-3.5-0.4-8.7-0.6-15.8-0.6c-0.8,0-1.1,0.3-1.1,0.9V337c0,3.9,2.3,6.4,6.9,7.2c1.1,0.2,5.1,0.3,11.9,0.3
		c10.5,0,17.1-3.7,19.8-11c0.6-1.7,1.7-2.3,3.1-1.7C624.6,332.1,625.1,332.9,624.8,334.1z"/>
	<path class="st0" d="M713.3,350.1c0,1-0.8,1.5-2.5,1.5c-15.2,0-29.6-13-43.1-39.1c-5.2,0.3-8,0.4-8.3,0.4v26.7c0,2,0.5,3.3,1.5,4
		s3.1,1.2,6.5,1.7c2.3,0.4,3.5,1.2,3.5,2.5c0,1.1-0.2,1.7-0.6,2c-0.4,0.3-1.4,0.3-3.2,0.3c-7.7-0.3-16-0.2-25.1,0.5
		c-1.8,0.1-2.7-0.6-2.7-2.2c0-1.1,0.9-1.7,2.7-1.9c4.1-0.4,6.2-2.7,6.2-6.8v-60.8c0-4-2.3-6.5-7-7.4c-2.3-0.5-3.5-1.2-3.5-2.2
		c0-1.6,0.8-2.3,2.3-2.3c0.5,0,1,0,1.5,0.1c1.7,0.3,4.4,0.4,7.9,0.4c1.2,0,4.2-0.1,9-0.2s9.2-0.2,13.3-0.2c8.5,0,15.2,1.6,20.1,4.8
		c5.5,3.5,8.3,8.7,8.3,15.6c0,11.7-6.8,19.5-20.3,23.2c4.3,9.8,9.4,18.2,15.2,25.3c6,7.2,11.3,11.2,16.1,11.9
		C712.5,347.8,713.2,348.6,713.3,350.1z M687.7,288.7c0-6.3-1.6-10.7-4.8-13.4c-3.2-2.7-8.4-4-15.4-4c-3.2,0-5.3,0.4-6.4,1.3
		c-1.1,0.9-1.7,2.7-1.7,5.6v29.9c10.2-0.3,17.6-2.1,22.1-5.4C685.7,299.7,687.7,295,687.7,288.7z"/>
	<path class="st0" d="M801.2,286.6c0,0.8-0.1,1.3-0.3,1.6c-0.1,0.3-0.6,0.5-1.3,0.6c-1.6,0.3-2.6-0.3-3.1-1.8
		c-1.8-5.6-4-9.4-6.5-11.2c-3.5-2.6-9.5-3.9-18.2-3.9c-3.5,0-5.4,0.4-5.8,1.1c-0.1,0.3-0.2,0.6-0.2,1.1v63.3c0,2.7,0.6,4.6,1.9,5.7
		c1.3,1.1,3.8,2.1,7.6,3c1.6,0.3,2.5,0.6,2.7,0.7c0.6,0.4,0.8,1.2,0.6,2.4c-0.1,1-0.6,1.5-1.4,1.6c-0.1,0-1,0-2.6-0.2
		c-11.2-1-20.4-1-27.7-0.1c-1.7,0.2-2.9,0.2-3.4,0c-0.4-0.2-0.7-0.7-0.8-1.5c-0.3-1.4,0.4-2.3,2.2-2.7c3.6-0.9,6.1-2.1,7.4-3.4
		c1.4-1.5,2.2-3.9,2.2-7.2v-61.5c0-1.2-0.8-1.9-2.3-2.2c-0.2,0-1.4-0.1-3.7-0.1c-8,0-14,1.4-17.8,4.2c-2.9,2.1-5.4,5.9-7.7,11.4
		c-0.7,1.7-1.7,2.3-3,1.7c-1.4-0.3-2-1.1-1.6-2.3c1.5-4.6,2.2-11,2.2-19.4c0-1,1.3-1.4,3.9-1.2c9.1,0.6,19.3,0.9,30.4,0.9
		c21,0,34.6-0.4,40.8-1.3c2.4-0.3,3.7,0,3.9,1.1C800.8,272.7,801.3,279.2,801.2,286.6z"/>
</g>
<rect x="-28.5" y="-99.7" class="st1" width="960" height="560"/>
<g>
	<path class="st0" d="M364.2,240.6C334.5,338.5,231,393.8,133.1,364C35.2,334.3-20,230.8,9.7,132.9C39.5,35,142.9-20.2,240.8,9.5
		C338.7,39.3,393.9,142.7,364.2,240.6z"/>
	<g>
		<g>
			<path class="st2" d="M358.6,179.1c0.1,0.8,0.4-1.5,0.1,2s-0.3,5.8-0.2,7.1c0,1.3-1.2,8.1,0.1,5c1.3-3.1,0.8-6.2,1.3-9.1
				S358.5,178.1,358.6,179.1z"/>
			<g>
				<path class="st2" d="M361.3,165.1c0,0-1-2.3-2-1.8s-2.8,0.6-2.8-0.6s-0.4-6.7-1.7-6.4c-1.3,0.3-2.1,1.4-1.5,3
					c0.5,1.6,1,3.1,1.5,5.1s-0.8,1.2,0.9,3.8c1.8,2.6,1.4,2.4,2.5,4.5s3.6,3.6,3.5,4.7s0.7,1.8,0.1,4.3c-0.5,2.5-0.8,3.2-0.6,4.5
					c0.3,1.3,0.5,4.9,0.8,3.8s0.3-7.7,0.7-6.8c0.4,0.9,0.1,6.6,0.2,7.3c0.1,0.6-0.1,5.9-0.1,5.9s-1.6,8.6-1.7,9.3
					c0,0.6-0.9-8.9-1.3-9s-1.8-1.4-2.2,2.3c-0.4,3.7-1.3,10.2-1.5,12c-0.2,1.9-1.9,10.6-2.7,12.1c-0.8,1.4-2.6,2.7-2,3
					s1.7,0.9,3.3-2.4c1.4-3,4-10.7,4.5-14.6c0-0.4,0.1-0.8,0.1-1.2c-0.1-3.3,1.1,2.3,1,4.6c-0.2,2.2-2,10.9-2.6,11.5
					c-0.7,0.6-4.5,8.8-3.7,9.2c0.7,0.4,4.1-3.3,6.4-12.1c2.3-8.8,3.1-13.6,4.1-23.1c1-9.4-0.7-24.5-1.8-28
					C361.4,166.5,361.3,165.1,361.3,165.1z"/>
				<path class="st2" d="M355.1,236c0,0-7.6,11.8-7.7,12.3s-1.2-0.2-3.3-2.5c-2.1-2.3-5-1.9-5.7-1.6s-3.3,1.3-5,0.7
					c-1.7-0.5-3.4-0.2-4.4,0.7c-1.1,0.9-2.6,2.2-1.8,3.4c0.8,1.1,1.3-0.4,5.2,1.1c3.9,1.5,5.7,3.1,6.6,4.2c0.9,1,4.4,2.4,7.3-1
					C349.1,249.8,354.3,240.1,355.1,236z"/>
				<path class="st2" d="M345.8,138.3c0,0-1.8,0.2-0.6,3c1.2,2.8,1.2,5.7,3,6.2C350,147.8,349.4,144.7,345.8,138.3z"/>
				<g>
					<path class="st2" d="M299.7,50.9c0,0,10,11.2,10.9,13.1c0.9,2,2.1,3.5,4.2,4.7s7.1,5.1,8.4,7.2c1.3,2.1,5.3,7.9,6,9.6
						c0.8,1.7,3.1,10,5.1,12.7s4.4,8.5,3.4,8.9c-1.1,0.4-3.3-1.2-5.1-4.7c-1.8-3.5-3.7-8.4-4.4-11.9c-0.7-3.5-3.6-4.5-4.1-7.1
						s-4.1-8.2-9-11.8c-4.9-3.5-12.3-11.4-11.4-11.1c1,0.3,1,0.3,1,0.3S297.7,50.1,299.7,50.9z"/>
				</g>
				<path class="st2" d="M333.4,214.3c0,0,0.7,0,1.6,1.2s1.7-1.7,1.7-1.7s1.6,1.8,3.1,1.7c1.4,0,2.7-0.6,2.7-0.6l1.2,2.9
					c0,0,2.7-8.1,2.9-8.7c0.2-0.6,1.2-11.9,0.7-14.3s-6.2-5-6.2-5l-4.4-2.9c0,0,0.4-4.8,0.1-8.4c-0.3-3.5,2.3-5.6,2.3-5.6l1.8,4
					c0,0,0.1,5.2,2,4.6c2-0.6,0.6-4.7,0.3-6c-0.3-1.2-2.2-3.5-2.2-3.5s0.8-5,3-14s-3.5-22.4-3.2-24.9s-5.1-8.5-7.4-11.3
					c-2.2-2.9-7.8-4.3-8.1-5.6c-0.3-1.3-2.1-8.3-3.5-10.6s-1.2,5.4-1.3,4.4c-0.1-1.1-1.2,0.5-3.1,0.1s-2.6-11.5-2.6-11.5
					s1.6,2.7,2.7,3.8s0-3.8,0-6.6c-0.1-2.8,4.7,3.3,4.7,3.3l1.6,0.1l7.3,7.1c0,0-0.9-5.6-2.1-7.9c-1.3-2.3-9.8-6-10-7.3
					s-5.5-8.4-6.9-11.6c-1.4-3.1,1.5,0.8-0.1-3.6c-1.6-4.4-11.3-14.4-17-19.2s-12.7-8.5-14.1-8.8c-1.4-0.4,0.9,3,1.2,4
					c0.3,1-3,0.5-4.2,0.1c-1.1-0.4-5.3-4.6-5.8-5.5s-9.1-9.6-10.7-12.4c-1.5-2.8-10.5-7.5-12-8.9s11.6,3.7,11.6,3.7l8.3,5.2
					l12.4,3.2c1.8-1.1-8.4-6.1-13.5-8c-5.1-1.9-9.1-3.8-9.1-3.8s-5.2-1.7-6.2-2.3c-0.8-0.4-3.4-1.3-4.7-1.5c-0.6-0.3-1.2-0.7-1.4-1
					c-0.8-1-10.5-4-11-4.1s-0.8-0.3-1.6-0.6c-0.8-0.3-1.2-0.3-1.9-0.6c-0.6-0.3-1.5-0.6-3.4-1.4s-1,0-1,0h-1.8c0,0-1.1-0.5-2-1
					s-3.1-0.9-4.1-0.8c-1,0-1.3-0.5-2.1-1.3s-3.5-0.4-3.5-0.4l-1.9,1l0.2,1.5c0,0,1,1,1.8,1.4c0.7,0.4,1.3,1.1,1.5,1.1
					s2.5,1.8,2.5,1.8h0.8l1.1,1.5l1.8,1.8h-1c0,0-0.7,1.1-0.8,1.3c-0.1,0.2,1.2,2.2,1.2,2.2s0,0-1,0.2s-1.3,0.3-1.8,0.4
					s-0.2,0.7-0.4,0.8c-0.2,0.1-2,3-2,3l2.5,0.9l2.2,1.9c0,0-0.4,1.9-0.8,2.2c-0.4,0.2-0.1,0.3-0.1,0.3l2.3,1.1c0,0,0,0.6-1.7,0.5
					s-3.1,0.5-3.3,0.4s-0.9-1-1.1-1.6c-0.3-0.6-1.7,0-1.7,0s-1.6,1.2-2.1,1.5c-0.5,0.2,0,1.6,0,1.6l1.2,0.9c0,0-0.6,0.7-1.5,1.2
					s-1.2,0.4-1.2,0.4l-2.5,1.7l-1.6,0.7v1.7c0,0-1.5,2-2.7,0.2c-1.2-1.7,0-0.7,0-1.3c-0.1-0.6-1.2-1.7-1.4-1.9
					c-0.1-0.2-2.7-1.5-2.9-1.7s-2-0.1-3.9,0.6c-1.8,0.6-0.9,0.4-1.5,0.3c-0.6-0.1-0.3,0-1.5,0s-1.4,0.4-2,0.7
					c-0.7,0.3,1.1,3.6,1.2,3.8c0.1,0.3,0,0.2,0,0.2s-1,0.8-2,1.2s-1.4,0.6-1.5,0.7c-0.2,0.1-0.8,0.8-0.8,0.8s-0.2,2.5-0.3,3.2
					c0,0.7-0.1,2.2-0.2,2.2c-0.2,0,0.4,2.5,0.4,2.5s-1,0.6-1.2,0.6s-0.6,0.5-1.4,1.2c-0.8,0.7,1.4,2.3,1.4,2.3l-1.3,2
					c0,0-2,1.2-2.3,1.3c-0.2,0.1-1.2,0.6-1.7,0.6s0,0.9-0.2,2.1c-0.1,1.2,1.3,0.5,1.3,0.5s1.2,1.6,1.9,3c0.7,1.5,0.6,0.1,0.6,0.1
					l2.4,1.5l-1.8,0.8l0.8,1.2c0,0,0.7,2.9,0.8,4.2c0.2,1.3-0.5,1.6-1,1.7c-0.5,0.1,0.1,2.8,0.1,2.8s-2.7-0.8-2.8-2.3
					c-0.2-1.5,0.6-0.4,0.6-0.4s0.6-1.7,0.6-3.8c0.1-2.2,0-0.8,0-0.8s-0.4-0.8-0.6-1.2c-0.2-0.5-0.3-0.2-0.6-0.7s-0.5-0.5-0.6-0.7
					s-0.7-0.3-3.4-3.9c-2.7-3.6,0,0-0.3-0.6s-0.6-1-1.3-2.3c-0.6-1.3-1.2-1.2-1.3-1.4s-1.8-0.6-1.8-0.6l-0.8,2.6v1.1
					c0,0-0.2,2.4,0.1,2.8c0.2,0.3,0.2,1.2,0,1.7s0.6,0.6,2.5,2.3c1.7,1.5,1.8,0.9,1.8,0.8c0,0.1,0.3,1.1,0,1.7
					c-0.2,0.6-0.8,0.5-0.8,0.5s-1.3-0.3-1.9-0.7c-0.7-0.5-1.7-0.5-1.7-0.5s-3.6-0.9-4.2-1.2c-0.6-0.3-3-0.6-3.4-1
					c-0.4-0.3-0.3,0-1.5-0.7c-1.2-0.6-1.5,1.2-1.5,1.2l2.1,1.4l1.3,1.7l0.1,2.7l-3.5,0.6l-5,0.9l-3.5,0.9l-5.6,1.4l-2.8,3.2
					c0,0-0.3-1.1,0-1.7c0.3-0.6-0.1-2.7-0.1-2.7l-2.1-0.7l-1.5,5.4c0,0,0.4,1.7,0,1.8c-0.3,0.1-1.3,0.9-1.3,0.9s-0.9,1.1-3.5,1.7
					c-2.6,0.5-1.3,0.3-1.7,0.7c-0.5,0.3-1.1,1.8-1.1,1.8s0,0-0.8,0s-1.4,0.4-1.4,0.4l-0.1,1.7l-3.7,0.6c0,0-1.4-0.1-1.6-1.2
					c-0.2-1.1,0-0.9-0.1-2.2c0-1.3-0.2-1.9-0.2-1.9s-0.2-1.3,0.1-2s1.6,0,1.6,0s5-0.5,5.4-0.1c0.5,0.4,1.4-1,2.2-1.5s0.6-1,1.3-1.3
					c0.6-0.3,0.9-1.9,0.9-1.9l-3.8-2.9l-7.5-3.9l0.8-0.8c0,0,0.1-2-0.1-2.5c-0.2-0.5-7.1,0.2-8.8,0.2c0,0-6.3,3.3-9.4,3.7
					c-3,0.4-3.2,0.1-3.2,0.1l-4.2,3.7c0,0-3.6,5.4-6.6,6.3c-3,0.9-4.1,2.6-4.1,2.6l-6.3,2.8l-3.5,0.1c0,0-2.2,3.5-2.9,4
					c-0.8,0.5-2,5.2-2,5.2s0.8,4.5,4.4,3s1.8,0,1.8,0l1.2,2.4v0.9l-1.1,1.3v0.9l-0.6,1.3l-1.3,4.3l-1,2.1l0,0c0.5,0.1,1,0.2,1.4,0.2
					c0.9,0.1,0.7,0,0.7,0s0.9-0.6,4.1-1.5s0.7-1,0.9-1.6c0.2-0.6,1.6-2.9,2.6-3.8c1-0.9,2.8-2.1,2.8-2.1l2.4-1.7
					c0,0,0.2-0.4,1.1-1.3c0.9-0.9-0.2-1.2,0-1.6c0.2-0.3-0.1-2.6-0.1-3.1c0.1-0.5,0.3-1.3,0.4-1.7s1.2-1.4,1.6-1.8
					c0.5-0.4,1.4-1.1,2.2-1.7c0.8-0.6,1.3-1,1.7-1.5c0.5-0.5,1-0.7,1.3-1.1c0.2-0.3,3-1.2,3.9-2.7s0.7-0.9,0.9-1.2s1.6-1.6,1.8-1.5
					c0.2,0.2,2.3-0.1,2.8-0.1c0.5,0.1,0.4,2.2,0.4,2.2l-0.3,0.6l-0.5,1.3c0,0-2.5,2.1-3.2,2.2c-0.6,0.1-2.2,0.5-2.2,0.5l-1.4,0.7
					l-0.8,1l-0.5,2.1l-1.3,2.9l-1.1,1.4l-0.1,1.4l0.6,0.9l0.8,1.4c0,0,2.6,0.4,3.1,0.3c0.6-0.1,0.4,0,4.2-0.8c1.1-0.2,1.7-0.4,2-0.6
					l-0.3-0.5c0,0,1,0.1,0.3,0.5l1.4,2.2l-0.4,1c0,0-1,0.8-1.3,0.8s-0.6,0.4-0.6,0.4l-2.3-0.3l-1.3-1.4c0,0-1.4,0.1-2.8,0.6
					c-1.4,0.5-0.8,1-0.8,1h-3.9l2.1,1.9l0.4,1.5v1.5c0,0-2.3,2.2-2.9,2c-0.6-0.2-0.7-0.2-0.8-1.1c-0.2-0.9-0.1-0.9-0.2-1.2
					c-0.1-0.4-1.1,0-1.1,0l-2.7,1.3l-1.5,3.8l-1,3.9c0,0-4,1-4.9,1.1c-0.9,0-1.1-1.8-1.1-1.8l-2.4-0.9c0,0-1.2,0.4-1.4,0.4
					c-0.2,0-1.6,0.8-1.6,0.8s-0.3,0-0.9-0.1v0.2c-0.1,0-0.1,0-0.2,0c-0.8,0-1.1-0.3-1.2-0.6c-0.8-0.4-0.7-0.6-0.4-0.9
					c-0.6-0.3-2.5-0.6-3.1-1.1c-0.2-0.1-0.3-0.3-0.4-0.4c-0.3-0.2-0.5-0.5-0.5-0.7c0-0.1,0.1-0.3,0.1-0.4c0-0.2-0.1-0.3-0.1-0.5
					c-0.1-0.2,0-0.5,0-0.8l0,0l0,0c0.1-0.9,0.5-2,0.7-2.3c0.2-0.5,2.7-1.7,3.2-2.1c0.5-0.4,0.8-2.6,0.9-3.3c0.1-0.6-0.8-0.3-1.3-0.3
					c-0.4,0-3,1-4.2,2.3c-1.2,1.4-1.2,2.9-1.7,4.4s-1.8,2.3-2.5,3.7s-0.7,0.7-1.7,0.7s-2.1-0.8-3.5-0.3s-1.9,2.9-4.1,4
					c-2.3,1.2-4,0.6-4.6,0.8s-1.1,1.7-2.5,1.8c-1.4,0-2.6,1.4-2.9,1.3c-0.3,0,0.3-1.5-0.5-3.5s-1.1,2.6-1.8,3.9
					c-0.6,1.3-0.5-1.4-2.2-2.2c-1.6-0.8-1.6,0.1-2.1,1.9c-0.5,1.8,1.1,1.3,1.1,2.7s-0.2,2.9-0.2,2.9s0.2,4.6-1.1,7
					c-1.3,2.4-4.1,5.2-5.5,4.3s-3.2-6.6-5.1-7.6c-1.9-1-3.4,3.9-3.9,6.9s-3.5,3.9-4.4,6.2s-0.1,2.1-0.9,4.2
					c-0.8,2.1-0.8,2.5,0.4,3.5s1.2,1.8,1.3,2.4c0,0.5-0.4,1.5-1,4.7s-4.6-9.7-4.6-9.7s-2.3,8-7.2,10.6c-1,0.5-2.7,2.6-2.2,6.5
					c0.6,4.2,0.2,6.4-0.3,6.9c-3.1,3.3-3.1,8.9-3.1,8.9s-0.2,6-0.4,9.3s0.4,12.5,1.2,17.4c0.7,4.9,9.6,22,9.6,22s6.3,3.3,9.6,8.5
					s8.5,7.5,10.3,8.9s4,20.6,5.4,21.8c1.4,1.1,3.3,2.7,3.7,3.4c0.4,0.6,2.2,2.6,3.2,4.4s1.3,5.2,2.1,7.6
					c0.8,2.4,11.7,23.5,15.4,26.9c3.7,3.4,11.4,9.8,21.7,16.4s26.7,11,27.1,11c0.4,0.1,6,1.2,11.3,3.4c5.3,2.2,8.7,0.6,12.5,1.1
					s6.6-0.1,6.8-0.2s-4.4-2.7-4.4-2.7s1.9-0.5,3.5-1s7.2-0.2,9.5-1.6s-0.8-1.3-3-4.2c-2.2-2.9-3.8-2.9-5.4-5.5
					c-1.5-2.6-3.5-3.8-3.8-4.8s0.8-3.6,1.7-5s2.7-0.9,3.9-1.6s5.8-6,10.1-8.3c4.4-2.3,7.7-4.7,10.3-7.5s7.9-19.2,8.2-21.1
					s-2.8,0.1-6.3,0.9c-3.5,0.9-12.7,3.6-15.4,3.6c-2.6,0-7.4,0-8.7-2s-0.6-3-0.7-3.6c-0.2-0.6-2.9-1.7-5.8-3.8
					c-2.9-2.1-9.9-5.7-10.9-8.9c-1-3.2,0.1-3.7-6-8.3c-6.1-4.6-3.9-9.5-4.2-12.2s-5.2-3.4-5.2-4.3s-1.4-6-2.9-8.4
					c-1.4-2.4-6.7-14.1-6.5-14.3c0.2-0.2,3.6,5.5,3.6,5.5l3.7-0.4c0,0,2.8,4.4,6.6,9c3.7,4.6,4.2,7,5.7,9.1c1.5,2.2,1.8,6,4.7,9.6
					c2.8,3.6,5.9,3.7,5.9,3.7s4.4,7,6.1,9.3c1.7,2.2,2.5,4.5,2.8,7.2s2.8,4.5,5,6.4s2.9,0,5.8-0.9c2.9-0.9,13.2-4.5,17.7-6.9
					s2.1-0.1,5-4.4s4.6-2.6,7.6-3.6s2-0.8,5.4-3.2c3.4-2.4,4.5-2.9,5.8-6.7c1.3-3.8,0.7-5.9,4.3-8.1s0.9-5-0.1-6.8
					c-1-1.9-1.5-0.3-6.3-1.3s-6.8-6.3-7.6-7.3s-1.9,2.5-2.9,3.1c-0.9,0.7-3.7,4.7-4.4,4.9c-0.7,0.2-3.3-0.5-4.6-0.3
					s-1.3,2.3-3.2,0.2c-1.9-2.1-0.2-1.8-0.5-4.2c-0.3-2.4-1.9-1.1-3-1.1s-0.6,2.2-1,2.1s-1-1.4-1.6-3.2c-0.6-1.8-4.4-2.7-7.6-8
					c-3.2-5.3,0.3-5.3,1.4-5.9c1.1-0.6,4.3,0.2,6.4,4.5c2.1,4.3,10.8,6.5,14.6,6.2s5.8-1.8,7.2-2.3s4,3.1,4,3.1s1.9,0.6,4,0.4
					c2.2-0.1,12.2-1.3,13.9-1.4c1.7,0,13.6-4.7,13.6-4.7s3.4-0.2,4.1,1.9s4,2.4,4,2.4s2,1.1,3.1,1.4s2.6-2.6,4.6-0.4
					s-1.6,1.5-2.8,3.2c-1.2,1.8,8.7,3,9.9,1.2c1.2-1.8,0.7-4.2,2.1-4.8c1.4-0.7,2.5,4.9,2.6,7.1c0.1,2.3,2.1,6.5,3.3,9
					c1.2,2.6,6.1,7.5,10.1,12.5s8.2,8.9,10.4,8.2c2.1-0.7,3.6-5,4.1-5.8s1-3.6,2.2-5.8c1.1-2.2-0.7-2.1-0.8-5.6
					c-0.1-3.5-0.3-5.2-0.4-9s1.9-3.5,2.9-4.3c0.9-0.8,5.4-12.8,9.1-18.6c3.7-5.8,1.4-4.7,1.1-7.7c-0.3-3.1,4-3.9,5.2-4.4
					s1.7-1.1,3.2-3.7s0.5-3.1,1.6-3.7c1.1-0.7,3.4,3.1,4.8,4s1.4,0.4,2.1,0.3c0.7-0.2,1.8,2.2,2.3,2.7s2.5,1.1,3.1,2.1
					s0.9,3.6,1.4,5.7s3.2-1.4,3.4-2.7c0.1-1.3,1-3.9,2.3-5.2c1.3-1.2,2.7,3.7,3.5,5.2s4.2,8.2,4.2,8.8c0,0.6,0.3,3.9,0.2,6.5
					c-0.1,2.6,1.4,1.5,2.5,1.9s1.2,0.6,1.9,1.3c0.7,0.6,1.1,0.9,1.5,2.3s2.4,3.8,3.6,3.7c1.2-0.1,4.1-1.6,4.2-3.5s-1.8-2.7-1.9-4
					c0-1.3-2.1-2.3-2.6-2.9c-0.6-0.6-3-0.1-3.3,0.1c-0.2,0.2-2.4-3.4-2.8-3.5s-1-0.9-0.7-2.3c0.3-1.3-0.5-6.6-1.2-8.1
					C331.6,215.3,333.4,214.3,333.4,214.3z M115.3,200.6l0.2,7.6l-2,2.8c0,0-1.3,4.4-1.7,7s-2.6,1.1-2.8,1.6s-2.4,0.1-3.4,0.1
					s-2.1-1.6-2.1-1.6s-1.5-1.1-2.7-1s-3.2,1.4-4.4,2c-1.2,0.6-4.9-1.8-5.1-1.8c-0.2,0.1-6.8-3.5-8.1-4.6c-1.3-1.1-6-4.3-7.2-6.1
					c-1.2-1.8-3,0-4.4,1.3c-1.3,1.3-1,3.1-1.4,4.8c-0.4,1.7-4.4,0.3-4.8-0.7c-0.3-1.1-4.9-4.3-4.6-5.2c0.3-0.9-2.4-4.6-4-6.2
					c-1.6-1.5-5.4-5.2-6.4-7c-1-1.9,2.3-3.8,2.3-4.9s-0.4-4.8-1-7.3c-0.5-2.5-2.9-0.7-3.7-1.5c-0.8-0.8-1.9-0.9-3.4-2
					s-3-2.7-5.5-3.5c-2.6-0.7-5-0.2-9.5-1.2s0,0-0.3-0.9s-2.1-2.5-2.5-3.2c-0.3-0.8,1-3,2-3s2.9,1.5,2.9,1.5s3.2-1.6,4-2.3
					c0.8-0.7,2.2-2.9,2.4-5.1c0.3-2.2,2.7-2,5.4-2.2c2.7-0.2,3.1-3.8,3.1-4.6s2.7,0.6,2.7,0.6l2.5,2.7c0,0,1.9-1,2.7-2.4
					c0.8-1.4,3.7,0.8,3.7,0.8s0.7,4.1,0.8,5.2c0,1.1,1.6,5.1,1.6,5.1s2,4.5,3.4,7.1s1.9,6.1,0.9,7.3c-1,1.3-2.1,1.8-3.1,1.5
					s-2.7-0.9-2.7-0.9s-1.3,0.5-1.3,1.1s1.2,2.8,1.5,3.4s2.1,1.8,2.6,1.5s1.1-2.1,1.5-2.2c0.5-0.2,0.9,0,0.9,0l2.1-1.6
					c0,0,1.8-3.3,1.6-4.3c-0.2-0.9,0.8-3,0.8-3s1.8,1.7,2.8,1.5s-0.9-2.3-1.5-3.7c-0.7-1.4-3.5-5.2-3.7-6.2
					c-0.2-0.9-1.3-5.5-2.4-7.6c-1.2-2.2,2.1-5.4,2.1-5.4l2.3,2.3l-0.6,3.8c0,0,1.8,1.7,2.2,2.2c0.4,0.5,2.8,5.6,2.8,5.6L75,172v1.9
					l-0.7,2.4c0,0,1.6,3.3,1.7,3.6c0,0.4,0,1.4,0.1,2c0,0.6,1.2,2.8,1.2,2.8l-0.7,5.5c0,0,1.9,2.5,2.2,2.5c0.4,0,1.1,1.3,1.3,0.9
					c0.2-0.4,1.4-2,1.6-3c0.2-0.9,0.5-0.5,0.5-0.5l1.5-0.8c0,0,1.8-1.9,1.1-2.9c-0.6-1-2.6-2.5-2.6-4s2.5-0.3,3.2-1.1
					c0.7-0.8,0.9-0.6,1.3-1.2c0.3-0.6,2.6-1.1,2.6-1.1s1.6,1.1,1.7,1.5s0.1,3.3,0.1,3.3s-0.9,2.6-0.9,4s0.5,0.9,0.5,0.9l-0.1,2.1
					l2.9,4.9l2.8,2.5l2.6,1.7c0,0,1.7-0.4,2.6-1.4c0.9-1,1.7-0.6,1.7-0.6l3.8,3l3.8-0.5l1.8-1.6l1.1,0.6l2.6-0.3l0.6,0.7
					L115.3,200.6z M133.3,178.5v1.1c0,0-5.5,3.1-5.9,3.2c-0.5,0.1-1.4,0.2-1.8,0.2c-0.3,0-2.6-0.4-3.4-0.8c-0.8-0.5-1.4-0.6-1.9-0.8
					c-0.5-0.1-0.5-0.3-1.1-0.8c-0.7-0.5-1.7-1.3-2-1.6c-0.3-0.3-0.5-0.5-0.5-0.5l-1.1-0.7c0,0-2.5-0.6-2.7-0.4
					c-0.2,0.1-1.9,0.3-3.1,0.5c-0.3,0.4-0.5,0.6-0.6,0.7c-0.4,0.1-4.2,1.6-9.2,2.5c-5,0.8-3.9-2.7-4.5-4.8c-0.2-0.9,0.2-2.2,0.9-3.3
					l0,0c0.1-1.7,1-1.5,1.3-1.9c0.3-0.3,2.5-3.2,2.5-3.2s0.4,0.1,0.6-0.1l0,0c0.2-0.3,1.2-1.7,1.5-2.1l0,0c0.4-0.8,1-2.3,1-2.3
					s0.1-0.1,0.3-0.3l0,0c0.5-0.9,0.5-1.4,0.7-1.7c0.2-0.2,1.8-0.4,2.7-1.2c0.9-0.9,1.6,0.1,1.6,0.1s0.1,0,0.1,0.1
					c0.3,0.2,1.5,1,1.8,1.2l1.7,1.1l-1.6,0.4c-0.2,0.2-0.3,0.3-0.4,0.4l1.5,2.9l0,0c0,0,0.4,0.4,0.8,0.9c0.5,0.1,1.2,0.2,1.5,0.1
					c0.3-0.2,2.5-0.1,4.2-0.2c-0.1,0.2-0.2,0.3-0.3,0.5c0.9,0,1.9,0,1.8-0.2c0-0.4-1.6-1.4-1.8-2.1l0,0c-0.3-0.2-0.5-0.3-0.8-0.5
					c-3.1-2-0.6-2.9-0.6-2.9s1.2-0.4,2.8-1c0.4-0.5,1.6-0.7,2.8-1c0.8-0.3,1.5-0.5,2-0.6l-0.1,0.1c0.1-0.1,0.2-0.1,0.3-0.2
					c0.6-0.6,2.7-0.6,2.7-0.6v1.8l-1.5,1.2c0,0-1.2,1.7-2,2c-0.7,0.3-1.3,1-1.3,1s-0.4,1.7-0.4,2c-0.1,0.2,0.3,0.9,0.3,0.9l1.1,0.8
					c0,0,1,1.5,1.4,1.6s1.8,1,1.8,1s0.6,2.1,1.3,2.2c0.6,0.1,1.2,0.5,1.5,0.5c0.2,0,2.7,1.8,2.9,1.8s1,0.8,1,0.8s0,1.1,0.4,1.6
					C133.7,178,133.3,178.5,133.3,178.5z M173.5,196.3c-0.5,0.6-1,0.7-3.2,1.4c-2.1,0.7-4.2,0.7-4.5,0.7c-0.2,0-4.1-3.3-4.1-3.3
					s-0.2,0-0.8,0c-1,0-2.8-0.2-2.8-0.2l-0.8-5.1l1.8-3.5l-0.2-2.7l-1.1-1.6l-1.1-1.7l-5.9-5.2l-0.1-3.2c0,0-0.5-0.2-0.7-1.3
					c-0.2-1.1-1.3-4.4-1.3-4.4l2.2-1.9l2.8-3.1l4.7-2.9l2.9-0.1l2.6-0.1v1.5c0,0,0.7,2.4,0.9,2.6s0.3,0.8-0.8,1.2
					c-1,0.4-3.4,1.4-3.4,1.4l-1.1,0.7c0,0-0.8-0.3-1,0.7c-0.2,0.9,2.3,5.3,2.3,5.3s0.5,0.2,0.5,0.5c0,0.2,1.1,0.4,1.2,0.7
					c0.1,0.2,1.9,1.4,1.9,1.4l1.3,0.8c0,0-0.1-0.1,0,1.5s1.9,5.7,1.9,5.9c0,0.2-0.3-0.1,0,0.7c0.3,0.9,1.6,2,1.6,2s-0.1,0.2,0,1.1
					s0,1.7,0,1.7c0,0.1,2.3-0.1,2.3-0.1s0.7,1.9,0.6,2.8c-0.1,0.9-0.2,2.5,0.1,3.5C172.8,195,173.9,195.7,173.5,196.3z"/>
				<g>
					<path class="st2" d="M66.9,99.2l1.3-0.8l-2.7-0.9c0,0-0.5,1.1-1.1,0.9c-0.6-0.2-1.5-0.7-1.6,0.1s-1.7,4.4-1.7,4.4v1.3h-1
						c0,0-0.6,0.8-1.1,1s-1,0.2-1.9,0.7s-3.1-1.3-3.1-1.3l-1.3,0.7c0,0-0.7,2.2-2,3.4s-2.7,2.5-3.1,2.7c-0.5,0.2-0.8,0.8-0.8,0.8
						l2.6,2l2.5-0.8l1.1-1.9l0.9-2.1l2.7-0.8l2.1-0.1c0,0-0.1,0.4-1.2,1.8c-1,1.4-2.1,3.7-2.1,3.7l-0.8-1.1l-0.6,1.9l-0.1,0.8
						l-1.1,0.7h-0.5l-0.8,1.6l-0.1,1.1c0,0,0.6,0.3,0,0.8s-1.4,0.8-1.4,0.8l-0.9,1.1c0,0,1.3-0.3,1.9-0.1c0.6,0.3,0.6,0.3,0.6,0.3
						s0,0.6,1,1.5s2.3,1.8,2.3,1.8h0.6l2.3-1.9v-1.4l2.3-1.9l0.5-0.8l-0.1-4.2c0,0,0-1.6,0.4-1.9c0.5-0.3,2-3,2-3l-0.5-1.6l0.8-1.5
						l0.9-0.7l1.4-1.9l1.4-1.1l1.2-1.8v-0.8L68,97.6L66.9,99.2z"/>
				</g>
				<path class="st2" d="M184.9,342.6c0,0-1.2,1.1-1.8,1.8c-0.6,0.6-3.5-3.1-4.1-2.9c-0.6,0.3-2.9,0.3-3.4,0.5s-1,1.1-2.9,1.7
					s-0.8,2.2-1.9,2.7c-1,0.5,0.3,0.9,0,2.1c-0.3,1.3,1.2,3.1,1.2,3.1s0-0.1-0.3,0.7c-0.3,0.8-0.8,1.1-0.8,1.1s-0.6,0.3,1.3,0.8
					c1.9,0.4,2.5,0.6,3.6,0.8c1.1,0.2,3.9,0.7,3.9,0.7s2.9-0.2,3.3-0.1c0.4,0.1,11,1,11,1s-1.6-2.3-0.4-8c0.1-0.4,2-11.4,2-11.4
					s-1.4-6.1-5.2-3.4C182.8,339.4,184.9,342.6,184.9,342.6z"/>
				<path class="st2" d="M189.6,283.6l-3.2,2c0,0,0,0.5,1.7,0.6c1.6,0,2.4-0.2,2.4-0.5C190.6,285.3,190.2,283.3,189.6,283.6z"/>
				<path class="st2" d="M283.5,264.5c0,0,0.2,5.6,0.5,6.3c0.3,0.7,2.4,2.6,2.4,2.6l3-1.7c0,0,0.7-1.6,0.9-1.8
					c0.2-0.2-0.1-2.8-2-3.7C286.3,265.4,284.5,263.5,283.5,264.5z"/>
				<path class="st2" d="M316.4,229c0,0-0.5,5.3,0.1,5.8c0.7,0.5,0.4,1.8,0.8,1.8c0.3,0,1.3,1.6,1-1.3s-0.7-4.9-0.7-4.9
					S316.9,227.7,316.4,229z"/>
				<path class="st2" d="M316.7,238.3c0,0-1.1,0.8,0,1s1.3-1.1,1.3-1.1L316.7,238.3z"/>
				<path class="st2" d="M321,243.8c0,0,0.1,0.5,0.5,0.4c0.4-0.2,1.1-1.2,1.1-1.2s-1.6-0.7-1.6,0C321,243.8,321,243.8,321,243.8z"/>
				<path class="st2" d="M323,247.2v-1.6h-0.6h-0.8c0,0-1.4,0,0,0.8C323,247.2,323,247.2,323,247.2z"/>
				<path class="st2" d="M329.5,253l-1.3-1.3c0,0-0.2,2,0.1,2c0.2,0,1.3-0.3,1.3-0.3L329.5,253z"/>
				<path class="st2" d="M336.5,256.4c0,0-0.3,0.3-0.1,0.7c0.2,0.3-0.2,0.4,0.2,0.5c0.4,0.1,0.5-0.1,0.7,0s0.6-0.8,0.6-0.8v-0.5
					L336.5,256.4z"/>
				<path class="st2" d="M209.4,24.6c0,0-2.4,0.3-0.9,1.2c1.5,0.9,2.2,1.2,2.3,1.7s-2.1,2.4-3,2.5s-2,0.1-2.2,0.1
					c-0.2-0.1-0.7-1.5-0.7-1.9s1.3-4.5,2.4-4.6C208.4,23.5,209.7,23.1,209.4,24.6z"/>
				<path class="st2" d="M189,39.1l-2.5-0.3c0,0,0-0.4,0,0.4c0,0.8-0.2,1,0.6,2S189,42,189,42V39.1z"/>
				<path class="st2" d="M182.4,39.3l-2.7-0.4l-2.9-1.1c0,0-1,1.7-0.9,2.1c0.1,0.4,1.4,2.3,2.2,2.5s5.6-0.5,5.6-0.5l0.3-0.6
					L182.4,39.3z"/>
				<path class="st2" d="M167.9,55.7c-0.4,0.3-6.4,5.1-6.4,5.1l-0.9,3.4c0,0-2.8,3.9-2.8,4.5s3,2.4,3,2.4s0.9,1.2,0.1,1.3
					c-0.8,0.2-3.2,0.1-3.4,0.1s-1.6-1.5-1.6-1.5l-1.1-1.7l0.9-1.5c0,0-0.1-2,0.1-2.3c0.2-0.2,2-3.4,2-3.4l0.5-2.1l0.2-0.5l3.4-3.9
					l6.3-2.9C168.2,53,169.2,54.8,167.9,55.7z"/>
				<path class="st2" d="M135.1,50l3.3-0.6l-1.7-1.4c0,0,0.2-1.6-1.6-0.2c-1.8,1.5-3,1.5-3,1.5l-0.3-0.6c0,0-1.5-0.3-1.5-0.6
					c0-0.2-3.5,2.7-3.5,2.7s-0.7,0.8-0.9,1.2s-2.2,6.4-0.4,4.9c1.7-1.5,5.1-3.3,5.1-3.3s-0.3,0,0,0.4s-1.9,1.2,1.1,1.4
					c3.1,0.2,3-1,3-1.5s0.4-2.6,0.4-2.6L135.1,50z"/>
				<path class="st2" d="M141.2,49.7c1.1-0.3,2.1-0.7,2.1-0.7s-0.3-1-0.5-1s-2.2-0.1-2.2,0.4C140.7,48.9,141.2,49.7,141.2,49.7z"/>
				<path class="st2" d="M157.9,47.6c0,0,1-0.2,1.4-0.5c0.4-0.2,0.5-0.7,0.5-0.7l0.9-1.1c0,0,0-0.6,0-0.3s-3.2,2.2-3.1,2.6
					C157.6,48,157.9,47.6,157.9,47.6z"/>
				<path class="st2" d="M151.1,48c0.3,0.1,2,0.3,2,0.3s0.6-2.2,0.6-2.4s-2.3,0.9-2.3,0.9L151.1,48z"/>
				<path class="st2" d="M128.3,28.6l-4.3-0.7l-4.8,2.1c0,0-2.6-0.2-4.6,1.2c-2,1.5-7.6,4.6-7.6,4.6s-5.4,2.6-5.9,3.1
					s-3.3,1.3-3.8,1.8s-3.6,2-4.4,2.4s-2.2,1.4-2.2,1.4s-3.1-0.3-4.3,1.1c-1.2,1.4-3.2,2.3-3.8,2.9c-0.6,0.6-4.7,2.6-4.7,2.6
					L75,52.4c0,0-1.7,1.9-2.2,2.1c-0.5,0.2-2.7,2.2-3.9,3.3c-1.3,1.1-2.1,0.8-2.5,2.4c-0.4,1.6,0.1,3.3,0.1,3.3l10.3-5.8
					c0,0,0.6-0.5,1.6,0c1,0.4,6.1,0.3,6.1,0.3s1.1,0.3,2.6,1s3.1,0.8,3.1,0.8l6.2-1c0,0,3.6-4.5,4.4-4.9c0.8-0.4,6.5-2.2,6.5-2.2
					s-1.1,0.8,1.4-0.9s3.8-3.5,3.8-3.5l4.3-1c0,0,3.8-1.4,4.3-1.5s5.6-2.4,5.6-2.4h1l1-3.4l4.3-2.5l1.5-1.8l-0.7-1.7l-0.7-1.5
					c0,0-0.8-0.8,0-0.9c0.8-0.2-0.3,1.5,3-0.9c3.3-2.4,3.8-3.4,3.8-3.4l4.9-4.2V21c0,0-1.6-3.3-0.1-3.3c1.6,0,4.1-0.1,4.1-0.1
					s1.4-2.2,2-2.6c0.6-0.3,2.4-1.4,3.5-1.8s4.1-1.5,4.6-1.5s14.2-3.3,21.3-2.7c7.1,0.6,12.5,0.2,16.5,0.8c4,0.7,13.3,0.1,13.3,0.1
					l5,0.5c0,0-14.2-4.2-33.3-2.9c-19.1,1.3-36.5,4.7-42.3,7.4c-5.9,2.7-11.5,2-22.7,7.8C105.5,28.5,87.1,36.8,82,41.3
					c-5,4.5-25.6,22.6-25.6,22.6s-11,13.4-11.2,14.8c-0.1,1.4,11.6-13.3,15.2-16.9c3.6-3.5,17-16,18.3-16.6c1.3-0.7,2.3-3.1,4.2-3
					c1.8,0.1,2.6-0.5,5.8-1.6c3.3-1,4.5-1.4,6-2.3c1.6-0.9,11.2-7.1,15.2-8.2c4-1.1,8.2-4,9.3-3.9c1,0.1,2.6-0.5,4.3,0
					c1.7,0.6,5.2,1.3,6.2,2C130.5,28.8,133.8,30.3,128.3,28.6z"/>
				<path class="st2" d="M76.5,65.4c0,0-1.9,0.3-2.1,1.4c-0.2,1.1-1.5,1.4-1.7,1.6c-0.2,0.2-1.3,1.2-1.7,2.2c-0.5,1-0.7,2.8-0.3,3.1
					c0.3,0.4-3.1-0.5,1,0.7c4,1.2,4.8,1.1,4.8,1.1s-2-1.5,0.3-2.1c2.2-0.6,3.3-0.9,3.3-1.3c0.1-0.3,0.4-1.2,0.4-1.8s-0.8-1.4-1-1.6
					c-0.2-0.2-1.4-0.1-1.6-1.2c-0.1-1.1-0.4-2.2-0.4-2.2L76.5,65.4z"/>
				<path class="st2" d="M73.3,85.5h-0.6c0,0-1.5-1-0.9,1s2-0.1,2-0.1v-1.3L73.3,85.5z"/>
				<path class="st2" d="M95.6,63.3c0,0,0.7,0.4,1,0.4c0.3,0.1,0.7-0.3,0.9-0.5c0.2-0.2,0-0.6,0-0.6h-1.9V63.3z"/>
				<path class="st2" d="M152.5,78.7c0,0-0.3-0.7-0.4-0.8c-0.2,0-1.8-0.4-1.8-0.2s-0.6,1.9-0.4,2c0.2,0.2,1.5,0.3,1.5,0.3
					L152.5,78.7z"/>
			</g>
		</g>
	</g>
</g>
<path class="st2" d="M14.2,203.1c0,1.6-1.3,2.9-2.9,2.9c-1.6,0-2.9-1.3-2.9-2.9s1.3-2.9,2.9-2.9S14.2,201.5,14.2,203.1z"/>
<g>
	<path class="st0" d="M372.9,189c0,99.6-80.8,180.4-180.4,180.4c-79.8,0-176.1-66-169.6-140.8c2.6-30.2-2.8-19.8-2.8-39.6
		C20.1,89.4,92.9,8.6,192.6,8.6C292.1,8.6,372.9,89.4,372.9,189z"/>
	<g>
		<path class="st2" d="M184.4,25.7c0,0-6.7,3.1-6.9,3.5c-0.2,0.5-2.5,2.6-1.5,3.3c1.1,0.6,3.3,1.2,2.1,1.8s-1,1.4-3.5,0.5
			s-3.5-1.9-3.4-2c0.1-0.2,0.8-3.1,3.2-4.2c2.4-1.1,3.8-2.7,4.8-2.9c1.1-0.2,4.3-2.1,5.5-1.3C186,25.1,184.4,25.7,184.4,25.7z"/>
		<path class="st2" d="M197.8,20.3c0,0-3.9-0.3-4.7-0.5s-1.1-1.4-0.8-1.4s4.9,0,4.9,0S201,19.6,197.8,20.3z"/>
		<path class="st2" d="M84.9,50.4c0.6,0.2,13.6-7.9,16.3-9.7c2.7-1.9,5.4-1.5,8.6-2.7c3.2-1.2,16.8-7.9,21.1-9.6
			c4.3-1.8,19-5.9,20.4-7c1.3-1.1,9.5-2.9,9.5-2.9l0.6-1c0,0-11.4-0.9-40.1,11.1C93.7,40.1,84.9,50.4,84.9,50.4z"/>
		<path class="st2" d="M103.6,44.2c-0.3,0-3.2-0.6-3.3-0.6c-0.2,0.1-1.9,0.6-1.9,0.6l-3.9,2.4c0,0-0.8,0.9-0.8,1.3
			c0,0.4-0.7,1.2-0.5,1.2s4-1.9,4-1.9l2.3-0.6c0,0,0.4-0.8,1.2-0.9C101.4,45.7,103.6,44.2,103.6,44.2z"/>
		<path class="st2" d="M157.8,23.5c0,0-3.6-0.2-4.7,0c-1.1,0.2-3.8,0.4-4.1,0.9s-1.3,0.9-1.5,1.1c-0.2,0.1-1.7,2.7-1.7,2.7h2.7
			c0,0,0.4-1.2,0.5-1.2c0.2,0,1.8,0.6,1.9,0.6c0.2,0,2.2-0.4,2.2-0.4s1.6-1.8,1.8-1.8s2.5-0.6,2.5-0.6S159.3,23.6,157.8,23.5z"/>
		<path class="st2" d="M188.6,307.8c-0.7,1.1-7.2,8.1-7.3,8.8c-0.1,0.7-5,2-5,2s-3.1,1.2-3.1,2.1s1.1,4.6,0.9,5.6
			c-0.1,1.1-0.8,3.8-0.9,5.3c-0.1,1.5-0.9,1.3,0.7,3.1c1.6,1.8-6.2,0.6,2,3.1s10.3,2.3,10.3,2.3l3.2-3.6c0,0,1.6-10.6,2-10.6
			s3.2-8.2,3.2-9s-0.6-11.1-5.3-9"/>
		<path class="st2" d="M293.1,212.9c0,0-0.3,9.8,1.3,11.6c1.6,1.8,0.8,3.1,3-0.5s1-5.2,1-5.6c0-0.3-3.7-5.9-5.3-5.9"/>
		<path class="st2" d="M323.8,184.8c-0.2,0.2,0.9,7.3,0.9,8.2c0.1,0.9,2.3-0.5,1.6-2.6C325.5,188.4,323.8,184.8,323.8,184.8z"/>
		<path class="st2" d="M341.7,210.3c0,0-0.2-0.3-0.5-0.6c-0.3-0.3-0.7-0.8-1-1.1c-0.4-0.4-0.8-0.7-0.9-0.7c-0.3,0.2-2,1.1-2.3,1.2
			s-2.7-1.4-1.8,1.2c0.9,2.7,2.4,2.9,3.8,4.1c1.4,1.3,2.5,1.9,2.8,2.4s1.5,2,1.5,2l1,1.9c0,0,1.4,1.9,1.7,2.7c0.3,0.9,0.6,2,1,2.6
			c0.4,0.5,0.6,2.3,1.1,2.7c0.5,0.4,2.7,3.7,3.1,3.8c0.3,0.2,2.7,1.3,2.7,1.3v1.8c0,0,3.8-0.9,4-0.9c0.2-0.1,2.8-2.1,2.8-2.1
			l2.3-4.9c0,0,2.1-4.5,2.1-4.7s-3.7,2.6-3.9,3.1c-0.2,0.5-1.8,3.1-3.3,3.9s-2.4,1.1-2.4,1.1s-1.2-1.9-1.1-2.3s-0.1-3.9,0.1-3.9
			s0.3-2.2,0.3-2.2l1.9-1l-0.5-2.4c0,0-0.5-0.4-0.9-0.1c-0.4,0.4-0.9,1.8-0.9,1.8s-0.3,0.2-0.5-0.2c-0.2-0.4-1.6-1.5-1.6-2
			s0-1.9,0-1.9l0.2-1.3c0,0-0.8-0.5-1.1-0.6c-0.3-0.2-1.4-0.1-1.4-0.2s-0.7-0.5-1.8-0.9c-1.1-0.4-2.4-1.2-2.7-1.4
			c-0.3-0.2-1.9-0.7-2.6-1.7C342.1,209.9,341.7,210.3,341.7,210.3z"/>
		<path class="st2" d="M362.4,177.9c0,0,0.1,5.7,0,6.8c-0.1,1.1-1.4,5.4-1.4,5.4s0.5-1.1-0.4,2.2c-0.9,3.2-1.5,5.1-1.5,5.3
			c0,0.2,0.9,0.4,0.5,2.2c-0.4,1.8-0.2,3.2-0.5,3.5c-0.2,0.3-2.1,0.4-2.1,0.4s0.1,1.4,0.5,2.1s0,3.1,0.4,4.1s0.8,3.3,1.2,4.7
			c0.4,1.4-1.5,3.6,0.7,3c2.1-0.6,2.9-3.5,4-5.6c1.1-2,1.7-6.4,1.7-6.4l0.9-7.8l-1-6.5l-1.6-10.7c0,0-0.5-6.7-1.3-3.1"/>
		<path class="st2" d="M361.2,161.8c0,0-0.4,6.3-0.4,8.1c0,1.7,0.1,6.5,0.9,4.1C362.6,171.5,363.1,162.8,361.2,161.8z"/>
		<path class="st2" d="M346.9,144.3c0,0,0.4,4.1,0,5.6s-3.2,0.9-2.9-1.6C344.3,145.8,346.9,144.3,346.9,144.3z"/>
		<path class="st2" d="M355.4,137c0,0-0.7,3.2,1.1,6.7c1.8,3.5,2.9,8.9,3.6,10s1.5,4.2,2.5,5.3c0.9,1.1,2,10,2.1,12s0,3.8,0,3.8
			s2.1,1.4,1.8-5.4c-0.4-6.8-3.6-17.1-5.2-20.3C359.5,145.8,355.5,136.2,355.4,137z"/>
		<path class="st2" d="M345.6,116.8c0,0,1.4,7.4,3.2,10c1.9,2.6,4.7,3.3,2-1.9C348.1,119.7,346,115.5,345.6,116.8z"/>
		<path class="st2" d="M74,108.9c0,0-1.3,0.2-1.4,0.9c-0.1,0.6-1.1,2.1-1.1,2.1s-0.5,1.7-1,2c-0.5,0.2-1.6,1.7-1.7,2
			c-0.2,0.3-1.9,0.1-0.9,2.5c0.9,2.4,2.3,2.3,2.3,2.3s-0.2-1.5-0.1-1.7s1.8-4.2,1.8-4.2l0.1-1.4c0,0,0.4-1.6,0.6-1.6
			s1.2-0.9,1.4-1.2C74.2,110.4,75.5,107.6,74,108.9z"/>
	</g>
	<g>
		<path class="st2" d="M75.1,78.6c0,0-0.8,1.6-1.5,1.7c-0.7,0.1-2,1.6-2,1.6s4.1-0.3,6.4-0.6c0.1,0,0.2,0,0.3,0l2-1.5
			c0.6-0.5,1-0.9,1-0.9l1.6-1.3l1.3-1.6c0,0-0.2-1-0.2-2s0.4-0.9,0.5-1.2s0.6-1.1,1.3-2.3c0.6-1.2,0.8-1.6,0.9-2.2
			c0.2-0.6,1.1-1.3,1.8-2.3c0.7-1,2.7-2.2,3.1-2.8s-1.1-2.3-1.1-2.3s-1.3,0.9-3.1,0.9c-1.8,0-3.4,5.6-3.4,5.6l-3,1
			c0,0-0.4-0.2-0.6-0.4s-1.9,1.3-2.2,1.3c-0.3,0-1.8,1.3-1.8,1.3s-1.8,2.8-2.7,3.2C72.8,74.2,71,77,71,77h2.8L75.1,78.6z"/>
		<path class="st2" d="M350.6,161.4l-4.9-5.2l-2.3-3.5c0,0-0.9-1.4-1.4-2.8c-0.5-1.4-1.4-7.3-1.4-7.3h1.9l1.9,6.3
			c0,0,3.1-3.5,3.1-4.2s-1.2-4.7-1.2-4.7l0.5-7.5c0,0-5.6-27-7.3-29.8c-1.6-2.8-16-14.5-16-14.5l-1.2-4.2l-6.3-2.3l2.3-3.1h2.3
			l10.8,7l4.5,8L331,83.3l-15.6-17.6c-3.9-6.2-42.1-30.4-51.8-35.6c-8.8-4.6-21.4-8-27.7-9.5l0,0l-0.9-0.2c-1.9-0.5-3.1-0.7-3.1-0.7
			l-13.2-3v0.6l5,1.3c0,0,0.1,0.7,0,1.1l0.3,1.5c-0.9-0.6-4.7,1-5.6,1c-0.9,0-7.4-2.2-7.8-2.2c-0.4,0-5.4-1.4-5.7,0
			c-0.2,0.9,0.3,1.4,0.8,1.7c-0.6,0.2-1.2,0.4-1.3,0.4l0,0l-0.5,0.1c0,0,0,0,0.1,0c-0.2,0-0.4,0.1-0.5,0.1c-0.2,0-1.2,1.6-1.2,1.8
			c-0.1,0.2,0.6,1.3,0.6,1.3l-1.8,1.1c0,0,0.2-0.5,0-0.3s-0.5-0.1-0.8,0c-0.2,0.1-1.2,1.2-1.6,1.8c-0.4,0.6-0.2,1.7-0.4,1.8
			s-0.5-1.1-0.6-1.2c-0.1-0.2-3.3-0.8-3.7-0.5c-0.2,0.2-0.1,0.4-0.2,0.5l-1.1-0.7l0.1,0.6c-0.1,0-0.2-0.1-0.3-0.1
			c-1.8-0.6-0.8-0.2-1.2,0c-0.5,0.2-1.2,0-1.2,0s-1.1,2.7-1.1,3.1c0,0.4,0.5,0.9,0.8,2.2c0.4,1.3,2.4,1.8,2.4,1.8s-1.4,0.2-1.9,0
			s-2.1-0.5-3.6-1.2c-1.6-0.7-2,0.1-4.5,0s-1.4,0.5-1.4,0.5l3.3,1.5c0,0-0.1,0.4-0.4,0.8h-7.2h-2l-10.1,4.7h-4.7l-5.6,5.4
			c0,0-3.1,1.1-6.1-1.3c-0.4,0.4-0.8,0.6-0.8,0.8s0,1.2,0.1,1.9l-4.7,0.3c0.3-0.4,0.3-0.4,0.3-0.4l3.4-4.4c0.5,0.7,1.1,1.3,1.7,1.8
			c1-0.8,2.5-1.8,2.5-1.8s3.9,0.3,5,0.3s1.3-1.1,1.3-1.1l1.4-2.1c0,0-1.3-0.7-1.7-0.8s-1.3,0-1.5,0s-3.8-0.8-4-0.9
			c-0.2-0.1-0.9-0.6-1.9-1.6c-0.9-1-5.2-1.3-5.8-1.3c-0.6-0.1-3.8,1.3-4.6,1.5c-0.9,0.2-5,1.3-5.9,1.3s-4.1,2.6-5.1,2.7
			c-0.9,0.1-3.1,1.9-3.4,1.9s-1.9,3.4-2.2,3.4s-4.1,2.3-4.3,2.3c-0.2,0.1-3.3,1.6-3.7,1.7c-0.4,0.1-2.9,0.5-3.2,0.5
			s-6.1,2.8-6.9,2.8c-0.8,0-5.1,7.3-5.4,7.5s0.7,1.2,0.7,1.2s1,0,1.9-0.3c0.9-0.3,4.4-0.9,4.4-0.9s-1,2.6-1.3,3.1
			c-0.2,0.5,0.1,3.2,0.1,3.5s-2.3,0.2-2.9,0.2c-0.6,0-1.1,0-1.1-0.9s0.1-0.4,0.2-0.9c0.2-0.5,0.5-1.6,0.5-1.6s-2.7,0.6-3,0.6
			s-0.5,0-1.2-0.2c-0.6-0.2-0.7,2.1-0.7,2.1s-0.6,1.7-1,2.3c-0.4,0.5-0.6,2.6-0.9,3.4c-0.3,0.9-1.7,1.1-2,1.1
			c-0.2,0-2.2,1.2-3.6,1.2s-2.8-0.2-2.8-0.2l-2.9,1c0,0-3.4,3.3-5.6,5.1c-0.3,0.6-0.8,1.2-1.5,1.5l0,0c-0.7,0.8-1.9,1.8-2.8,2.1
			c-1.5,0.4-1.4-1.5-1.6-1.9s-0.5,2.2-1.3,3.1c-0.7,0.9-1.3,0.5-2.6-0.1c-1.3-0.5-2.1,1.3-2,4.9c0.1,3.6-3.6,9.5-5.3,10
			c-1.7,0.5-3.4,0.1-5.7-1.4c-2.3-1.5-3,2.7-3.4,3.1c-0.5,0.4-1.6,3.9-3.2,5.7s-4.7,9.5-5.2,11.1s0.9,1,1.2,2.6
			c0.3,1.6-0.7,3.7-0.7,3.7s-3.6,4.8-5.6,6s-3.5,4.5-5.2,8.7c-1.6,4.2-11.1,16.1-11.1,16.1c-0.8,1.3-2.8,20.3-2.8,20.3
			s1.1,35.8,1.7,40.8c0.6,5,5.8,8.6,6.7,9.1s2.7,2.5,3.1,3c0.5,0.5,3,1.6,3,1.6s7.5-0.5,8.4,1.4s7.5,8.5,8.4,9.1s3.4,5.8,3.4,6.4
			s1.1,2.3,1.1,4.2c0,1.9-0.3,5.9,0,6.4s1.6,4.2,1.6,4.2s9.1,11.1,9.5,12.4c0.5,1.3,8.3,17.2,8.3,17.2V305l14.1,16
			c0,0,29.6,23.9,37.5,26.8c8,2.8,20.7-4.7,20.7-4.7v-2.3l2.8-6.1v-9.4l11.3-6.1l-1.9-14.6c0,0-3.5-6.3-3.5-7s-7.7-10.6-7.7-10.6
			l4.7-7.5l16.9-16c0,0,16.2-18.1,17.4-21.6s2.6-17.6,2.6-17.6l-13.6,6.3h-14.6l-8.7-6.1l-3.5-5.9l-4.7-4.5l-8.4-12l-2.1-3.8
			l-4.5-17.8l-6.6-10.3l-0.9-3.8l3.3-1.6l12.9,14.8l3.5,12.7l8.4,7.7l0.9,10.1l10.3,14.8l10.3-5.6l13.1-6.6l4.7-2.3l6.3-7.5l6.8-1.9
			l8.9-11.5l1.4-6.6l-1.4-7.5l-7-1.2l-5.4-5.6l-2.1,2.1l-3.3,3.3l-6.6,0.9l-4.7-4l-0.7-2.3l-6.6-2.6l-4.7-7.7l5.4-4.7l9.9,6.8
			c0,0,8,4,11.7,4s8.9-1.9,8.9-1.9s-0.7,3.3-0.7,4s11.5,1.6,11.5,1.6l13.6-3.8L240,165l3.5,2.6l4.2,5.9c0,0,0,1.2,0,1.9
			c0,0.7,4.9,2.6,4.9,2.6l5.6,0.7l3.1-1.6c0,0,0.2,5.2,1.6,8.4c1.4,3.3,0.9,2.8,2.6,8c1.6,5.2,0.5,3.3,1.6,5.2
			c1.2,1.9,6.1,10.6,6.8,12.2c0.7,1.6,5.2,10.1,5.2,10.1l7.7,0.2l2.8-8.9l2.8-7.7v-11.7l-2.1-3.3l8.2-13.6l2.6-9.2l2.8-4.2l5.9-6.3
			l7,3.5l4.2,4.7c0,0-3.1-3.3,0,2.3c3.1,5.6,3.1,5.6,3.1,5.6l2.6,2.1l2.6-2.6l4.7,5.4v1.2l2.6,13.4c0,0,1.4,3.1,1.9,4.2
			c0.5,1.2,0,0.5,1.4,2.8s4.2,8.2,4.2,8.2s-1.9,0,0,1.6s4.7,4,4.7,4v1.2l1.4-2.8v-8.2l-3.8-4.5l-5.2-5.4l-0.7-3.5l-1.4-10.6
			c3.1,0,3.1,0,3.1,0c4.2,0.9,4.2,1.4,4.7,2.6s0.7,2.6,0.7,2.6l2.6,2.8c0,0,0.7,1.4,1.4-3.1c0.7-4.5,1.9-10.1,2.1-10.8
			C354.3,172.4,350.6,161.4,350.6,161.4z M129.7,139l-0.9,1.6l-2,2.7c0,0-1.2,4.5-1.4,4.6s-1.2,2-1.3,2.1c-0.2,0.1-2.8,1.6-2.9,1.7
			c-0.2,0.1-2.9,0-3-0.2s-0.8-0.7-0.8-0.7s-4.6-0.1-5-0.1c-0.5,0-3.1,2.5-3.1,2.5s-8.5-1.6-9.3-2.2c-0.8-0.6-4.2-2.1-5-2.6
			s-1.2-1.1-2.1-2.2c-0.9-1.1-4.4-1.5-4.6-1.6s-0.8,1.1-2.5,1.6c-1.6,0.5-1.1,2.5-1.2,2.9s-0.1,2.4-0.3,2.5
			c-0.2,0.1-2.1,2.2-2.3,2.2c-0.2,0-1.1-0.6-1.9-1.1s-1.5-1.7-2.4-2.4s-3-1.3-3.7-1.8c-0.7-0.4,0.1-2.3,0-2.5s0.1-0.6,0-0.8
			s-0.6-0.7-3.1-2.2s-1.6-0.5-3.5-1.3s-2.1-2.3-2.3-3.6c-0.2-1.2,2.3-2.9,2.3-3.9c0.1-1,0.4-3.7,0.6-4s0.5-1.7,0.2-2.6
			c-0.3-0.9-1.3-0.6-1.5-0.6s-1.7-0.1-2.9-0.2c-1.2-0.1-1.2,0-3-0.5s-2.6-0.6-3.4-0.8c-0.8-0.1-2.9,0.1-3.4,0.2
			c-0.6,0.1-5.3,2.8-5.5,3.2s-1.5,0.9-3.3-1.4c-1.9-2.3,1.8-4.2,1.8-4.2s2.6,0.3,3.2,0s0,0,0.5-0.6s0.9-1.1,1.8-2s0.8-0.5,1.3-1
			s1.3-1.1,1.3-1.1s0.4-1.6,1.3-3.1s0.5-0.9,0.9-1.5c0.5-0.5,1.4-1.5,2.1-2.1s2-1.6,2.7-2c0.7-0.5,2.3-1.3,2.5-1.5s0.5-1.4,1.5-2.7
			s1.1-0.5,2.5-0.6s1.7,1.3,1.7,1.3s2.3-1.5,2.7-1.7c0.4-0.2,2.1-0.8,2.8-1.2c0.7-0.4,0.9,0.2,0.9,0.2l1,1.2c0,0-0.2,1-0.2,1.2
			s1.1,3.3,1.1,3.5s1.3,2.6,1.4,2.8s0.6,1.6,1.6,3.9c0.9,2.2,0.9,1.5,0.9,1.8s0,1.9,0,2.6c0,0.7-0.1,1.4-0.1,1.4l-3.7,1.5
			c0,0-2.5,0.6-2.7,0.6s-0.5-0.2-0.8-0.2c-0.2,0-0.8,0.5-1.2,1.2c-0.4,0.7,0.2,0.9,0.5,1.4s1.6,2.6,2.1,3s1.3,0.1,1.9-0.1
			c0.5-0.1,0.6-1.1,0.8-2.3l1.9-1.8c0,0,1.3-0.9,2.3-1.3c0.9-0.4,0.4-0.2,0.5-0.3c0.2-0.1,0.8-0.8,0.8-1.9c0-1.1-0.4-1-0.4-1.8
			s0.2-1.5,0.2-1.8s1.7,0.1,1.7,0.1l2.2,1.2c0,0,0.4-0.9,0.5-1.4s-1.3-1.9-1.4-2.2s-1.7-3.3-2-3.7s-0.6-0.8-0.6-0.8
			s-1.1-0.7-1.2-1.3s0.1-1.9-0.8-3.9s-0.7-2.1-0.7-2.9c0-0.9,0.9-2.8,1.2-3.8c0.3-0.9,2,0.3,2,0.3l0.9,0.8l0.1,1.3l1.1,2.9l0.6,0.9
			c0,0,2.1,2.3,2.2,2.5s1.3,3.1,1.7,4.1c0.4,1-0.3,1.5-0.3,1.5L91,117c0,0,0,2.4,0,2.6c0,0.2,0.6,1.8,0.6,1.8l0.4,2.9
			c0,0-0.4,2.3,0.8,5.3c1.2,3.1,2.3,1.8,2.3,1.8l1.5-2.9l1.2-0.5c0,0,0.6-0.1,0.6-0.2c0-0.2,0.4-0.4,0.4-0.4l1.8-1
			c0,0-1.9-3.9-1.9-4.2s0.1-0.5,0.3-1.5c0.2-0.9,0.3-0.9,0.3-0.9l1.7-2.1c0,0,0.1-0.7,1.8-1.4s2.1,0.2,2.2,0.3
			c0.2,0.1,1.4,0.7,1.4,0.7l0.5,0.9c0,0-0.9,1.3-1.1,1.7c-0.2,0.4-0.1,1.2-0.3,1.4s0.1,1.5,0.1,1.8c0,0.2,0,0.3-0.2,0.3
			s-1.1,1-1.5,1.5s1.1,0.8,1.3,0.9c0.2,0.2-0.1,1.5-0.1,1.5l3,2l2.3,2.5l1.2,1.5c0,0,1.7,0,3.2-1.1s1.5-0.7,1.5-0.7l1.9,0.5
			c0,0,1.3,1.3,1.9,2.1c0.6,0.7,1.2,0.5,1.2,0.5l3.2-1.5c0,0,1.9-1.3,2-1.5s3.7-0.3,3.9-0.4C130.4,131.4,129.7,139,129.7,139z
			 M145.8,114.2c-3.2,0.5-5.2,1.3-7.3,1.3s-3.8-0.9-4.5-1.1c-0.7-0.2-0.5-0.8-2.4-1.3s-0.4-1.2-3.5-1s-4.1,0.2-4.5,0.5
			s-3.1,1.2-4.1,1.6c-1,0.5-2,0.7-3.1,0.7c-1.2,0-3.1-1.1-3.1-1.1s-0.6-1.6-0.5-2.6c0.1-0.9-0.3-2.5,0-2.7s0.8-0.2,2-1.9
			c1.3-1.7,1-1.1,1.9-2.8s1.4-2.5,2.3-3.4c0.9-0.9,3.9-3.3,3.9-3.3s-0.9-1.3,1.3,0.1c2.1,1.3,2.4,1.6,2.4,1.6s0.1,0,0.1,1.7
			s-0.2,1.1,0,2s2.7,2.2,2.7,2.2l4.6-2.6l1.2-0.9c0,0-1.3-1.6-1.6-1.6s-4.9,1-1.3-1.4c3.7-2.4,7.6-3.5,7.6-3.5l2.2,0.9l-4.2,5.2
			c0,0-1.8,1.5,0,2.2s2.8,0.2,4.2,1.8s1.8,1.6,2,1.9c0.2,0.3-0.5-0.9,1.6,1.3c2.1,2.3,2.1,2.3,2.1,2.3s-0.2,1.9-0.7,2.7
			C146.8,113.9,149,113.7,145.8,114.2z M184.2,126.7c0,0-0.4,0.4-3.7,0.9s-3-0.2-4.2-0.5c-1.3-0.3-1.3-0.5-2.2-1.8s-1.1,0-1.1,0
			s0,0-2.6-1.2s-0.3-0.4-0.7-1.2s0.5-2.1,1.2-3.4c0.7-1.3,0.9-3,1.4-3.2s0.2-1.3,0.1-2c-0.2-0.7-0.2,0-0.2,0s-2.7-2.1-3.6-3.1
			c-0.9-0.9-1-0.9-4.2-6.2c-3.2-5.2-1.6-2.6-1.8-3.6s0.7-1.2,1.3-2.1c0.6-0.9,1.1-0.7,3.4-2.2c2.3-1.5,1.6-1.3,3.1-2.1
			c1.5-0.9,1.9-1.4,2.2-1.5s5.6-0.9,5.6-0.9l0.5,3.3l-1.7,0.6l-2,2.7c0,0-0.7,0.9-1.7,0.9s0.1,1.3,0.1,1.3l1.6,1.2l1.7,2.3
			c0,0,0.3,0.9,2.3,1.1c2,0.2,0.8,1.3,0.8,1.3l0.6,3.8l2.1,2.8c0,0,0.2,2.4,0.3,3c0.2,0.5,1.6,1.7,1.6,1.7s0.5,2.5,2,6.3
			S184.2,126.7,184.2,126.7z"/>
	</g>
</g>
<g>
	<path class="st0" d="M355.3,220.6c-22.9-65.5-55.1-103.1-95.7-111.8c-5.9-1.3-12-1.9-18.3-1.9c-28.2,0-54.6,12.9-71.8,23.8
		c-14.2,9-25.7,18.7-32.7,25c6.9-19.5,26.5-66.6,59.4-79.2c16.3-6.2,34.2-3.3,53,8.6c0.2,0.4,0.6,0.7,1,0.8l1.7,0.5
		c0.4,0.1,0.9,0.1,1.3-0.2c0.4-0.2,0.7-0.6,0.8-1c4.7-16.4,10.9-25.1,18.6-25.6c0.3,0,0.6,0,0.8,0c21.5,0,52,57.7,62,79.9
		c0.2,0.4,0.5,0.7,1,0.9c0.4,0.2,0.9,0.1,1.3,0l1.6-0.7c0.9-0.4,1.3-1.4,0.9-2.3c-3.8-8.5-38-83-66.8-83c-0.4,0-0.8,0-1.2,0
		c-9.1,0.7-16.3,8.7-21.6,24c-25.9-23.2-50.8-35-74.1-35c-4.8,0-9.5,0.5-14.1,1.5c-34,7.2-54.5,39.3-61.9,53.2
		C95.6,87.9,90.1,82.7,84,82.4C75,82,69.2,92.7,68.5,93.9c-0.4,0.8-0.1,1.9,0.7,2.3l1.5,0.8c0.8,0.4,1.9,0.1,2.3-0.7
		c1.3-2.4,5.6-8.7,10.3-8.7h0.3c4.5,0.2,9.3,6,13.8,16.7c0,0.3,0,0.6,0.1,0.8c0.2,0.4,0.5,0.8,0.9,1l1.6,0.7c0.9,0.4,1.9,0,2.3-0.9
		c0.2-0.5,20.8-47.3,61-55.9c22.1-4.7,46.2,2.9,71.7,22.4c-14.3-5.3-28.1-5.5-41-0.6c-38.9,14.9-59.8,73.6-64.5,88.6
		c-9.5-9.3-20.7-14-33.3-14c-0.3,0-0.5,0-0.8,0c-42,0.7-86.5,54.3-86.9,54.8c-0.3,0.4-0.4,0.8-0.4,1.3c0,0.2,0.1,0.4,0.1,0.5
		c-0.1,0.2-0.1,0.5-0.1,0.7c0,0.5,0.2,0.9,0.6,1.2l1.3,1.2c0.7,0.6,1.8,0.6,2.4-0.1c0.1-0.1,13.3-14.4,31-14.4c3,0,6,0.4,8.9,1.2
		c21.2,5.9,51.1,36.3,73,148c0.1,0.5,0.4,0.8,0.7,1.1c0.3,0.2,0.6,0.3,1,0.3c0.1,0,0.2,0,0.3,0l1.7-0.3c0.9-0.2,1.6-1.1,1.4-2
		c-9.8-50.2-22.2-88.6-36.8-114.3c-11.9-21-25.3-33.6-39.9-37.7c-3.4-0.9-6.8-1.4-10.2-1.4c-6.6,0-12.5,1.7-17.7,4
		c15.6-15.2,43.5-38.3,69.7-38.8h0.7c12.5,0,23.5,5.3,32.7,15.7l0.5,0.6c0.6,0.7,1.6,0.8,2.3,0.3l0.6-0.5c0.2-0.2,22.2-16,53.2-16
		c4.6,0,9.2,0.4,13.7,1c27,4.1,52.2,20.2,75.2,47.8c-17.2-9.9-34.2-12.8-50.2-8.6c-37.4,9.7-57.7,55.3-57.9,55.8
		c-0.2,0.4-0.2,0.9,0,1.3s0.5,0.8,0.9,1l1.6,0.7c0.9,0.4,1.9,0,2.3-0.9c0.2-0.4,19.5-43.7,54.4-52.8c18.2-4.8,37.9,0.7,58.1,16
		c0.2,0.1,0.4,0.2,0.6,0.3c0.4,0.4,0.9,0.7,1.5,0.7s1.1-0.4,1.4-0.9l0.7-1.2c0.1-0.2,14.1-24.8,30.9-23.7
		c11.2,0.7,21.6,12.6,30.9,35.5c0.4,0.9,1.4,1.3,2.3,1l0.6-0.2c0.3,0,0.5-0.1,0.8-0.1C355.1,223.5,355.8,222,355.3,220.6z
		 M319.5,182.7c-15.9-1-28.6,15.3-33.7,23c-25.5-34-54.2-53.6-85.3-58.3c-4.8-0.7-9.6-1.1-14.5-1.1c-16.1,0-29.8,4-39.8,8.2
		c18.8-15.9,55.8-42.3,95-42.3c5.9,0,11.7,0.6,17.2,1.8c32.4,6.9,59.4,33.6,80.4,79.6C332.9,186.8,326.4,183.1,319.5,182.7z"/>
	<path class="st0" d="M132.4,341.3c0,2.5-2,4.4-4.4,4.4c-2.5,0-4.4-2-4.4-4.4c0-2.5,2-4.4,4.4-4.4
		C130.4,336.8,132.4,338.8,132.4,341.3z"/>
	<path class="st0" d="M15.7,203.1c0,2.5-2,4.4-4.4,4.4c-2.5,0-4.4-2-4.4-4.4c0-2.5,2-4.4,4.4-4.4C13.7,198.6,15.7,200.6,15.7,203.1z
		"/>
	<path class="st0" d="M136.2,165.8c0,2.5-2,4.4-4.4,4.4c-2.5,0-4.4-2-4.4-4.4c0-2.5,2-4.4,4.4-4.4S136.2,163.4,136.2,165.8z"/>
	<path class="st0" d="M104.4,105.8c0,2.5-2,4.4-4.4,4.4c-2.5,0-4.4-2-4.4-4.4c0-2.5,2-4.4,4.4-4.4
		C102.4,101.3,104.4,103.3,104.4,105.8z"/>
	<path class="st0" d="M76.1,94.5c0,2.5-2,4.4-4.4,4.4c-2.5,0-4.4-2-4.4-4.4c0-2.5,2-4.4,4.4-4.4C74.1,90,76.1,92,76.1,94.5z"/>
	<circle class="st0" cx="252" cy="84.3" r="4.4"/>
	<path class="st0" d="M342.4,138.3c0,2.5-2,4.4-4.4,4.4s-4.4-2-4.4-4.4c0-2.5,2-4.4,4.4-4.4S342.4,135.8,342.4,138.3z"/>
	<path class="st0" d="M355.7,222.2c0,2.5-2,4.4-4.4,4.4c-2.5,0-4.4-2-4.4-4.4c0-2.5,2-4.4,4.4-4.4
		C353.8,217.7,355.7,219.7,355.7,222.2z"/>
	<path class="st0" d="M290.3,212.5c0,2.5-2,4.4-4.4,4.4c-2.5,0-4.4-2-4.4-4.4c0-2.5,2-4.4,4.4-4.4
		C288.3,208.1,290.3,210.1,290.3,212.5z"/>
	<path class="st0" d="M174.1,248.7c0,2.5-2,4.4-4.4,4.4c-2.5,0-4.4-2-4.4-4.4c0-2.5,2-4.4,4.4-4.4
		C172.1,244.2,174.1,246.2,174.1,248.7z"/>
</g>
<path class="st2" d="M353.4,221.3c-22.7-64.9-54.5-102.1-94.5-110.7c-33.6-7.2-66.8,7.8-88.7,21.6c-18.3,11.6-32.1,24.3-37.4,29.5
	c4.5-14.5,24.7-72.3,62.6-86.8c17.1-6.5,35.6-3.5,55.2,9.1c0,0.1,0,0.1-0.1,0.2l1.7,0.5c4.9-17.2,11.7-26.3,20.2-26.9
	c0.3,0,0.6,0,1,0c27,0,63.2,80.1,63.6,80.9l1.6-0.7c-1.5-3.4-37.9-83.9-66.2-81.9c-8.8,0.6-15.8,9.2-20.9,25.3
	c-31.6-29-61.4-40.7-88.6-34.9c-36.6,7.8-57.5,45.6-62.4,55.5c-5-11.6-10.5-17.7-16.4-18C76,83.6,70.5,94.1,70.3,94.5l1.5,0.8
	c0.1-0.1,5.2-9.9,12.2-9.6c5.4,0.2,10.6,6.3,15.4,18l0.3-0.1c-0.2,0.4-0.3,0.7-0.3,0.7l1.6,0.7c0.2-0.5,21.1-48.1,62.2-56.9
	c25.8-5.5,54,5.2,83.9,31.6c-18.4-10.5-35.9-12.8-52.2-6.5c-41.2,15.8-61.7,81.4-64.3,90.3c-9.8-10.5-21.5-15.8-34.8-15.6
	c-41.2,0.7-85.2,53.6-85.6,54.2l0.7,0.6c-0.4,0.4-0.7,0.7-0.7,0.7l1.3,1.2c0.2-0.2,18.5-20.1,41.7-13.7c21.7,6,52.1,36.8,74.2,149.3
	l1.7-0.3c-9.8-50-22.1-88.2-36.6-113.8c-11.6-20.5-24.7-33-38.9-36.9c-16.6-4.6-30.8,3.7-38.1,9.5c11.6-12.8,47-48.5,80.4-49
	c13.4-0.2,25,5.3,34.7,16.3l0.5,0.6l0.6-0.5c0.3-0.2,29.3-21.3,68.3-15.3c30,4.6,57.8,23.6,82.7,56.6c-19.9-14.1-39.2-18.8-57.5-14
	c-36.6,9.5-56.5,54.4-56.7,54.8l1.6,0.7c0.2-0.4,19.8-44.5,55.6-53.8c18.8-4.9,38.9,0.6,59.6,16.3l0.2-0.3l0.6,0.9l0.7-1.2
	c0.1-0.3,14.6-25.7,32.5-24.6c12,0.8,22.9,13.1,32.4,36.6l1-0.4c0.1,0,0.1,0,0.2,0s0.2,0,0.3,0C353.3,222.2,353.6,221.7,353.4,221.3
	z M319.1,184.5c-16.9-1.1-30.3,19.2-33.5,24.3C260,174,231.2,153.9,200,149.1c-30.2-4.6-54.6,6.7-64.6,12.5
	c14.6-13.9,68.8-60.9,123.2-49.3c36.8,7.8,66.5,40.5,88.6,97.2C338.8,193.6,329.4,185.2,319.1,184.5z"/>
<path class="st2" d="M172.5,248.7c0,1.6-1.3,2.9-2.9,2.9s-2.9-1.3-2.9-2.9s1.3-2.9,2.9-2.9S172.5,247,172.5,248.7z"/>
<path class="st2" d="M130.9,341.1c0,1.6-1.3,2.9-2.9,2.9c-1.6,0-2.9-1.3-2.9-2.9s1.3-2.9,2.9-2.9
	C129.6,338.2,130.9,339.5,130.9,341.1z"/>
<path class="st2" d="M14,203.1c0,1.6-1.3,2.9-2.9,2.9c-1.6,0-2.9-1.3-2.9-2.9s1.3-2.9,2.9-2.9S14,201.5,14,203.1z"/>
<path class="st2" d="M134.7,165.8c0,1.6-1.3,2.9-2.9,2.9c-1.6,0-2.9-1.3-2.9-2.9s1.3-2.9,2.9-2.9S134.7,164.2,134.7,165.8z"/>
<path class="st2" d="M102.9,105.6c0,1.6-1.3,2.9-2.9,2.9c-1.6,0-2.9-1.3-2.9-2.9c0-1.6,1.3-2.9,2.9-2.9
	C101.6,102.7,102.9,104,102.9,105.6z"/>
<path class="st2" d="M254.9,84.3c0,1.6-1.3,2.9-2.9,2.9s-2.9-1.3-2.9-2.9s1.3-2.9,2.9-2.9S254.9,82.7,254.9,84.3z"/>
<path class="st2" d="M340.9,138.3c0,1.6-1.3,2.9-2.9,2.9s-2.9-1.3-2.9-2.9c0-1.6,1.3-2.9,2.9-2.9S340.9,136.7,340.9,138.3z"/>
<path class="st2" d="M354.2,222.2c0,1.6-1.3,2.9-2.9,2.9s-2.9-1.3-2.9-2.9s1.3-2.9,2.9-2.9C352.9,219.3,354.2,220.6,354.2,222.2z"/>
<path class="st2" d="M288.7,212.2c0,1.6-1.3,2.9-2.9,2.9s-2.9-1.3-2.9-2.9s1.3-2.9,2.9-2.9C287.4,209.2,288.7,210.6,288.7,212.2z"/>
<path class="st2" d="M74.5,94.5c0,1.6-1.3,2.9-2.9,2.9s-2.9-1.3-2.9-2.9c0-1.6,1.3-2.9,2.9-2.9S74.5,92.9,74.5,94.5z"/>
<path class="st0" d="M103.6,66.5c0,0,36.5-22.6,48.9-21.5l-48.9,23.6V66.5z"/>
<path class="st2" d="M9.4,217.2c0.3,0.9,3,21.1,10.9,27.6c0.9,0.8,9.7-1.7,10.7-1.6c1,0.2,8.1-4.8,9.9-2.1c1.8,2.8,4.2,1.6,7.4,2.8
	c3.2,1.2,3.4,1.4,2.3,5c-1,3.6-1.1,2.8,0.5,7.4s3.5,3.3,4.7,9s4.5,5.2,2,10.2s-3.9,7.4-1.2,12.1c2.7,4.6-0.3,9.3,3.4,12.7
	c23.3,22.2,38.7,29.2,38.7,29.2S85,282.7,85,278.3s-14.1-30.4-14.1-30.4l1-28.4L42.3,209c0,0-23.2,6.9-24.9,7.9
	C15.7,217.9,9.4,217.2,9.4,217.2z"/>
</svg>
