<?xml version="1.0" encoding="utf-8"?>
<!-- Generator: Adobe Illustrator 24.1.0, SVG Export Plug-In . SVG Version: 6.00 Build 0)  -->
<svg version="1.1" id="Layer_1" xmlns="http://www.w3.org/2000/svg" xmlns:xlink="http://www.w3.org/1999/xlink" x="0px" y="0px"
	 viewBox="0 0 66.8 24" style="enable-background:new 0 0 66.8 24;" xml:space="preserve">
<style type="text/css">
	.st0{fill:#00E06D;}
</style>
<path class="st0" d="M16,11.5c-0.2-0.2-0.4-0.3-0.7-0.3s-0.6,0.1-0.7,0.3c-0.1,0.2-0.2,0.6-0.2,1c0,0.4,0.1,0.8,0.2,1
	c0.1,0.2,0.4,0.3,0.7,0.3c0.3,0,0.6-0.1,0.7-0.3c0.1-0.2,0.2-0.6,0.2-1C16.2,12.1,16.2,11.7,16,11.5z M16,11.5
	c-0.2-0.2-0.4-0.3-0.7-0.3s-0.6,0.1-0.7,0.3c-0.1,0.2-0.2,0.6-0.2,1c0,0.4,0.1,0.8,0.2,1c0.1,0.2,0.4,0.3,0.7,0.3
	c0.3,0,0.6-0.1,0.7-0.3c0.1-0.2,0.2-0.6,0.2-1C16.2,12.1,16.2,11.7,16,11.5z M16,11.5c-0.2-0.2-0.4-0.3-0.7-0.3s-0.6,0.1-0.7,0.3
	c-0.1,0.2-0.2,0.6-0.2,1c0,0.4,0.1,0.8,0.2,1c0.1,0.2,0.4,0.3,0.7,0.3c0.3,0,0.6-0.1,0.7-0.3c0.1-0.2,0.2-0.6,0.2-1
	C16.2,12.1,16.2,11.7,16,11.5z M26,11.3c-0.2-0.2-0.4-0.2-0.6-0.2s-0.5,0.1-0.6,0.2c-0.2,0.2-0.2,0.4-0.2,0.7h1.7
	C26.2,11.7,26.2,11.5,26,11.3z M26,11.3c-0.2-0.2-0.4-0.2-0.6-0.2s-0.5,0.1-0.6,0.2c-0.2,0.2-0.2,0.4-0.2,0.7h1.7
	C26.2,11.7,26.2,11.5,26,11.3z M16,11.5c-0.2-0.2-0.4-0.3-0.7-0.3s-0.6,0.1-0.7,0.3c-0.1,0.2-0.2,0.6-0.2,1c0,0.4,0.1,0.8,0.2,1
	c0.1,0.2,0.4,0.3,0.7,0.3c0.3,0,0.6-0.1,0.7-0.3c0.1-0.2,0.2-0.6,0.2-1C16.2,12.1,16.2,11.7,16,11.5z M16,11.5
	c-0.2-0.2-0.4-0.3-0.7-0.3s-0.6,0.1-0.7,0.3c-0.1,0.2-0.2,0.6-0.2,1c0,0.4,0.1,0.8,0.2,1c0.1,0.2,0.4,0.3,0.7,0.3
	c0.3,0,0.6-0.1,0.7-0.3c0.1-0.2,0.2-0.6,0.2-1C16.2,12.1,16.2,11.7,16,11.5z M26,11.3c-0.2-0.2-0.4-0.2-0.6-0.2s-0.5,0.1-0.6,0.2
	c-0.2,0.2-0.2,0.4-0.2,0.7h1.7C26.2,11.7,26.2,11.5,26,11.3z M26,11.3c-0.2-0.2-0.4-0.2-0.6-0.2s-0.5,0.1-0.6,0.2
	c-0.2,0.2-0.2,0.4-0.2,0.7h1.7C26.2,11.7,26.2,11.5,26,11.3z M16,11.5c-0.2-0.2-0.4-0.3-0.7-0.3s-0.6,0.1-0.7,0.3
	c-0.1,0.2-0.2,0.6-0.2,1c0,0.4,0.1,0.8,0.2,1c0.1,0.2,0.4,0.3,0.7,0.3c0.3,0,0.6-0.1,0.7-0.3c0.1-0.2,0.2-0.6,0.2-1
	C16.2,12.1,16.2,11.7,16,11.5z M16,11.5c-0.2-0.2-0.4-0.3-0.7-0.3s-0.6,0.1-0.7,0.3c-0.1,0.2-0.2,0.6-0.2,1c0,0.4,0.1,0.8,0.2,1
	c0.1,0.2,0.4,0.3,0.7,0.3c0.3,0,0.6-0.1,0.7-0.3c0.1-0.2,0.2-0.6,0.2-1C16.2,12.1,16.2,11.7,16,11.5z M26,11.3
	c-0.2-0.2-0.4-0.2-0.6-0.2s-0.5,0.1-0.6,0.2c-0.2,0.2-0.2,0.4-0.2,0.7h1.7C26.2,11.7,26.2,11.5,26,11.3z M26,11.3
	c-0.2-0.2-0.4-0.2-0.6-0.2s-0.5,0.1-0.6,0.2c-0.2,0.2-0.2,0.4-0.2,0.7h1.7C26.2,11.7,26.2,11.5,26,11.3z M16,11.5
	c-0.2-0.2-0.4-0.3-0.7-0.3s-0.6,0.1-0.7,0.3c-0.1,0.2-0.2,0.6-0.2,1c0,0.4,0.1,0.8,0.2,1c0.1,0.2,0.4,0.3,0.7,0.3
	c0.3,0,0.6-0.1,0.7-0.3c0.1-0.2,0.2-0.6,0.2-1C16.2,12.1,16.2,11.7,16,11.5z M16,11.5c-0.2-0.2-0.4-0.3-0.7-0.3s-0.6,0.1-0.7,0.3
	c-0.1,0.2-0.2,0.6-0.2,1c0,0.4,0.1,0.8,0.2,1c0.1,0.2,0.4,0.3,0.7,0.3c0.3,0,0.6-0.1,0.7-0.3c0.1-0.2,0.2-0.6,0.2-1
	C16.2,12.1,16.2,11.7,16,11.5z M26,11.3c-0.2-0.2-0.4-0.2-0.6-0.2s-0.5,0.1-0.6,0.2c-0.2,0.2-0.2,0.4-0.2,0.7h1.7
	C26.2,11.7,26.2,11.5,26,11.3z M26,11.3c-0.2-0.2-0.4-0.2-0.6-0.2s-0.5,0.1-0.6,0.2c-0.2,0.2-0.2,0.4-0.2,0.7h1.7
	C26.2,11.7,26.2,11.5,26,11.3z M16,11.5c-0.2-0.2-0.4-0.3-0.7-0.3s-0.6,0.1-0.7,0.3c-0.1,0.2-0.2,0.6-0.2,1c0,0.4,0.1,0.8,0.2,1
	c0.1,0.2,0.4,0.3,0.7,0.3c0.3,0,0.6-0.1,0.7-0.3c0.1-0.2,0.2-0.6,0.2-1C16.2,12.1,16.2,11.7,16,11.5z M16,11.5
	c-0.2-0.2-0.4-0.3-0.7-0.3s-0.6,0.1-0.7,0.3c-0.1,0.2-0.2,0.6-0.2,1c0,0.4,0.1,0.8,0.2,1c0.1,0.2,0.4,0.3,0.7,0.3
	c0.3,0,0.6-0.1,0.7-0.3c0.1-0.2,0.2-0.6,0.2-1C16.2,12.1,16.2,11.7,16,11.5z M26,11.3c-0.2-0.2-0.4-0.2-0.6-0.2s-0.5,0.1-0.6,0.2
	c-0.2,0.2-0.2,0.4-0.2,0.7h1.7C26.2,11.7,26.2,11.5,26,11.3z M26,11.3c-0.2-0.2-0.4-0.2-0.6-0.2s-0.5,0.1-0.6,0.2
	c-0.2,0.2-0.2,0.4-0.2,0.7h1.7C26.2,11.7,26.2,11.5,26,11.3z M16,11.5c-0.2-0.2-0.4-0.3-0.7-0.3s-0.6,0.1-0.7,0.3
	c-0.1,0.2-0.2,0.6-0.2,1c0,0.4,0.1,0.8,0.2,1c0.1,0.2,0.4,0.3,0.7,0.3c0.3,0,0.6-0.1,0.7-0.3c0.1-0.2,0.2-0.6,0.2-1
	C16.2,12.1,16.2,11.7,16,11.5z M16,11.5c-0.2-0.2-0.4-0.3-0.7-0.3s-0.6,0.1-0.7,0.3c-0.1,0.2-0.2,0.6-0.2,1c0,0.4,0.1,0.8,0.2,1
	c0.1,0.2,0.4,0.3,0.7,0.3c0.3,0,0.6-0.1,0.7-0.3c0.1-0.2,0.2-0.6,0.2-1C16.2,12.1,16.2,11.7,16,11.5z M26,11.3
	c-0.2-0.2-0.4-0.2-0.6-0.2s-0.5,0.1-0.6,0.2c-0.2,0.2-0.2,0.4-0.2,0.7h1.7C26.2,11.7,26.2,11.5,26,11.3z M41.3,11.5
	c-0.1-0.2-0.4-0.3-0.7-0.3c-0.3,0-0.6,0.1-0.7,0.3c-0.2,0.2-0.2,0.6-0.2,1c0,0.4,0.1,0.8,0.2,1c0.1,0.2,0.4,0.3,0.7,0.3
	c0.3,0,0.6-0.1,0.7-0.3c0.2-0.2,0.2-0.6,0.2-1C41.5,12.1,41.4,11.7,41.3,11.5z M41.3,11.5c-0.1-0.2-0.4-0.3-0.7-0.3
	c-0.3,0-0.6,0.1-0.7,0.3c-0.2,0.2-0.2,0.6-0.2,1c0,0.4,0.1,0.8,0.2,1c0.1,0.2,0.4,0.3,0.7,0.3c0.3,0,0.6-0.1,0.7-0.3
	c0.2-0.2,0.2-0.6,0.2-1C41.5,12.1,41.4,11.7,41.3,11.5z M26,11.3c-0.2-0.2-0.4-0.2-0.6-0.2s-0.5,0.1-0.6,0.2
	c-0.2,0.2-0.2,0.4-0.2,0.7h1.7C26.2,11.7,26.2,11.5,26,11.3z M16,11.5c-0.2-0.2-0.4-0.3-0.7-0.3s-0.6,0.1-0.7,0.3
	c-0.1,0.2-0.2,0.6-0.2,1c0,0.4,0.1,0.8,0.2,1c0.1,0.2,0.4,0.3,0.7,0.3c0.3,0,0.6-0.1,0.7-0.3c0.1-0.2,0.2-0.6,0.2-1
	C16.2,12.1,16.2,11.7,16,11.5z M56.3,5.2h-46c-1.9,0-3.6,0.8-4.9,2c-1.3,1.2-2,3-2,4.9c0,3.8,3.1,6.9,6.9,6.9h46
	c1.9,0,3.6-0.8,4.9-2s2-3,2-4.9C63.2,8.3,60.1,5.2,56.3,5.2z M10.8,13.8c0.4,0,0.9-0.1,1.5-0.3v1c-0.5,0.2-1,0.3-1.6,0.3
	c-0.8,0-1.5-0.3-2-0.8C8.2,13.5,8,12.8,8,11.8c0-0.6,0.1-1.1,0.3-1.6c0.2-0.5,0.5-0.8,1-1.1c0.4-0.2,0.9-0.4,1.5-0.4
	c0.6,0,1.1,0.1,1.7,0.4l-0.4,1c-0.2-0.1-0.4-0.2-0.7-0.3c-0.2-0.1-0.4-0.1-0.7-0.1c-0.5,0-0.8,0.2-1.1,0.5c-0.2,0.3-0.4,0.8-0.4,1.5
	C9.3,13.1,9.8,13.8,10.8,13.8z M16.9,14.2c-0.4,0.4-0.9,0.6-1.6,0.6c-0.4,0-0.8-0.1-1.1-0.3c-0.3-0.2-0.6-0.5-0.8-0.8
	c-0.2-0.4-0.3-0.8-0.3-1.2c0-0.7,0.2-1.3,0.6-1.7c0.4-0.4,0.9-0.6,1.6-0.6c0.4,0,0.8,0.1,1.1,0.3c0.3,0.2,0.6,0.5,0.8,0.8
	c0.2,0.4,0.3,0.8,0.3,1.2C17.5,13.2,17.3,13.8,16.9,14.2z M19.7,14.8h-1.2V8.5h1.2V14.8z M22.2,14.8H21V8.5h1.2V14.8z M27.4,12.8
	h-2.9c0,0.3,0.1,0.6,0.3,0.8c0.2,0.2,0.5,0.3,0.8,0.3c0.3,0,0.5,0,0.8-0.1c0.2,0,0.5-0.1,0.8-0.3v0.9c-0.2,0.1-0.4,0.2-0.7,0.2
	c-0.2,0-0.5,0.1-0.9,0.1c-0.7,0-1.3-0.2-1.7-0.6c-0.4-0.4-0.6-1-0.6-1.7c0-0.8,0.2-1.3,0.6-1.8c0.4-0.4,0.9-0.6,1.6-0.6
	c0.6,0,1.1,0.2,1.5,0.5c0.4,0.4,0.5,0.9,0.5,1.5V12.8z M30.3,13.8c0.2,0,0.5,0,0.7-0.1c0.2-0.1,0.4-0.2,0.6-0.3v1
	c-0.2,0.1-0.4,0.2-0.6,0.3c-0.2,0-0.5,0.1-0.8,0.1c-1.4,0-2.1-0.8-2.1-2.3c0-0.8,0.2-1.3,0.6-1.8s0.9-0.6,1.6-0.6
	c0.5,0,1,0.1,1.4,0.3l-0.4,1c-0.2-0.1-0.4-0.1-0.5-0.2c-0.2-0.1-0.3-0.1-0.5-0.1c-0.6,0-1,0.5-1,1.4C29.4,13.4,29.7,13.8,30.3,13.8z
	 M35.3,14.6c-0.3,0.1-0.7,0.2-1.1,0.2c-0.5,0-0.8-0.1-1.1-0.4c-0.2-0.2-0.3-0.6-0.3-1.1v-2.2h-0.6v-0.5l0.7-0.4l0.3-1H34v1h1.3v0.9
	H34v2.2c0,0.2,0,0.3,0.1,0.4c0.1,0.1,0.2,0.1,0.4,0.1c0.2,0,0.5,0,0.8-0.1V14.6z M37.4,14.8h-1.2v-4.5h1.2V14.8z M37.3,9.5
	c-0.1,0.1-0.3,0.2-0.5,0.2c-0.5,0-0.7-0.2-0.7-0.6s0.2-0.6,0.7-0.6c0.4,0,0.7,0.2,0.7,0.6C37.5,9.3,37.4,9.4,37.3,9.5z M42.2,14.2
	c-0.4,0.4-0.9,0.6-1.6,0.6c-0.4,0-0.8-0.1-1.1-0.3c-0.3-0.2-0.6-0.5-0.8-0.8c-0.2-0.4-0.3-0.8-0.3-1.2c0-0.7,0.2-1.3,0.6-1.7
	c0.4-0.4,0.9-0.6,1.6-0.6c0.4,0,0.8,0.1,1.1,0.3c0.3,0.2,0.6,0.5,0.8,0.8c0.2,0.4,0.3,0.8,0.3,1.2C42.8,13.2,42.6,13.8,42.2,14.2z
	 M47.9,14.8h-1.2v-2.6c0-0.3,0-0.6-0.2-0.7c-0.1-0.2-0.3-0.2-0.6-0.2c-0.3,0-0.6,0.1-0.7,0.4c-0.2,0.2-0.2,0.6-0.2,1.1v2.1h-1.2
	v-4.5h0.9l0.2,0.6h0.1c0.1-0.2,0.3-0.4,0.6-0.5s0.5-0.2,0.8-0.2c0.5,0,0.9,0.1,1.2,0.4c0.3,0.3,0.4,0.7,0.4,1.2V14.8z M55.9,17.1
	c-2.8,0-5-2.2-5-5c0-2.8,2.2-5,5-5c2.8,0,5,2.2,5,5C60.9,14.8,58.7,17.1,55.9,17.1z M55,13.6l-1.5-1.1L53,13.3l1.5,1.1l0.7,0.5
	l0.5-0.8l2.9-4.2L58,9.3L55,13.6z M40.6,11.2c-0.3,0-0.6,0.1-0.7,0.3c-0.2,0.2-0.2,0.6-0.2,1c0,0.4,0.1,0.8,0.2,1
	c0.1,0.2,0.4,0.3,0.7,0.3c0.3,0,0.6-0.1,0.7-0.3c0.2-0.2,0.2-0.6,0.2-1c0-0.5-0.1-0.8-0.2-1C41.2,11.3,40.9,11.2,40.6,11.2z
	 M25.4,11.1c-0.3,0-0.5,0.1-0.6,0.2c-0.2,0.2-0.2,0.4-0.2,0.7h1.7c0-0.3-0.1-0.5-0.2-0.7C25.8,11.1,25.6,11.1,25.4,11.1z M15.3,11.2
	c-0.3,0-0.6,0.1-0.7,0.3c-0.1,0.2-0.2,0.6-0.2,1c0,0.4,0.1,0.8,0.2,1c0.1,0.2,0.4,0.3,0.7,0.3c0.3,0,0.6-0.1,0.7-0.3
	c0.1-0.2,0.2-0.6,0.2-1c0-0.5-0.1-0.8-0.2-1C15.9,11.3,15.6,11.2,15.3,11.2z M16,11.5c-0.2-0.2-0.4-0.3-0.7-0.3s-0.6,0.1-0.7,0.3
	c-0.1,0.2-0.2,0.6-0.2,1c0,0.4,0.1,0.8,0.2,1c0.1,0.2,0.4,0.3,0.7,0.3c0.3,0,0.6-0.1,0.7-0.3c0.1-0.2,0.2-0.6,0.2-1
	C16.2,12.1,16.2,11.7,16,11.5z M26,11.3c-0.2-0.2-0.4-0.2-0.6-0.2s-0.5,0.1-0.6,0.2c-0.2,0.2-0.2,0.4-0.2,0.7h1.7
	C26.2,11.7,26.2,11.5,26,11.3z M41.3,11.5c-0.1-0.2-0.4-0.3-0.7-0.3c-0.3,0-0.6,0.1-0.7,0.3c-0.2,0.2-0.2,0.6-0.2,1
	c0,0.4,0.1,0.8,0.2,1c0.1,0.2,0.4,0.3,0.7,0.3c0.3,0,0.6-0.1,0.7-0.3c0.2-0.2,0.2-0.6,0.2-1C41.5,12.1,41.4,11.7,41.3,11.5z
	 M41.3,11.5c-0.1-0.2-0.4-0.3-0.7-0.3c-0.3,0-0.6,0.1-0.7,0.3c-0.2,0.2-0.2,0.6-0.2,1c0,0.4,0.1,0.8,0.2,1c0.1,0.2,0.4,0.3,0.7,0.3
	c0.3,0,0.6-0.1,0.7-0.3c0.2-0.2,0.2-0.6,0.2-1C41.5,12.1,41.4,11.7,41.3,11.5z M26,11.3c-0.2-0.2-0.4-0.2-0.6-0.2s-0.5,0.1-0.6,0.2
	c-0.2,0.2-0.2,0.4-0.2,0.7h1.7C26.2,11.7,26.2,11.5,26,11.3z M16,11.5c-0.2-0.2-0.4-0.3-0.7-0.3s-0.6,0.1-0.7,0.3
	c-0.1,0.2-0.2,0.6-0.2,1c0,0.4,0.1,0.8,0.2,1c0.1,0.2,0.4,0.3,0.7,0.3c0.3,0,0.6-0.1,0.7-0.3c0.1-0.2,0.2-0.6,0.2-1
	C16.2,12.1,16.2,11.7,16,11.5z M16,11.5c-0.2-0.2-0.4-0.3-0.7-0.3s-0.6,0.1-0.7,0.3c-0.1,0.2-0.2,0.6-0.2,1c0,0.4,0.1,0.8,0.2,1
	c0.1,0.2,0.4,0.3,0.7,0.3c0.3,0,0.6-0.1,0.7-0.3c0.1-0.2,0.2-0.6,0.2-1C16.2,12.1,16.2,11.7,16,11.5z M26,11.3
	c-0.2-0.2-0.4-0.2-0.6-0.2s-0.5,0.1-0.6,0.2c-0.2,0.2-0.2,0.4-0.2,0.7h1.7C26.2,11.7,26.2,11.5,26,11.3z M26,11.3
	c-0.2-0.2-0.4-0.2-0.6-0.2s-0.5,0.1-0.6,0.2c-0.2,0.2-0.2,0.4-0.2,0.7h1.7C26.2,11.7,26.2,11.5,26,11.3z M16,11.5
	c-0.2-0.2-0.4-0.3-0.7-0.3s-0.6,0.1-0.7,0.3c-0.1,0.2-0.2,0.6-0.2,1c0,0.4,0.1,0.8,0.2,1c0.1,0.2,0.4,0.3,0.7,0.3
	c0.3,0,0.6-0.1,0.7-0.3c0.1-0.2,0.2-0.6,0.2-1C16.2,12.1,16.2,11.7,16,11.5z M16,11.5c-0.2-0.2-0.4-0.3-0.7-0.3s-0.6,0.1-0.7,0.3
	c-0.1,0.2-0.2,0.6-0.2,1c0,0.4,0.1,0.8,0.2,1c0.1,0.2,0.4,0.3,0.7,0.3c0.3,0,0.6-0.1,0.7-0.3c0.1-0.2,0.2-0.6,0.2-1
	C16.2,12.1,16.2,11.7,16,11.5z M26,11.3c-0.2-0.2-0.4-0.2-0.6-0.2s-0.5,0.1-0.6,0.2c-0.2,0.2-0.2,0.4-0.2,0.7h1.7
	C26.2,11.7,26.2,11.5,26,11.3z M26,11.3c-0.2-0.2-0.4-0.2-0.6-0.2s-0.5,0.1-0.6,0.2c-0.2,0.2-0.2,0.4-0.2,0.7h1.7
	C26.2,11.7,26.2,11.5,26,11.3z M16,11.5c-0.2-0.2-0.4-0.3-0.7-0.3s-0.6,0.1-0.7,0.3c-0.1,0.2-0.2,0.6-0.2,1c0,0.4,0.1,0.8,0.2,1
	c0.1,0.2,0.4,0.3,0.7,0.3c0.3,0,0.6-0.1,0.7-0.3c0.1-0.2,0.2-0.6,0.2-1C16.2,12.1,16.2,11.7,16,11.5z M16,11.5
	c-0.2-0.2-0.4-0.3-0.7-0.3s-0.6,0.1-0.7,0.3c-0.1,0.2-0.2,0.6-0.2,1c0,0.4,0.1,0.8,0.2,1c0.1,0.2,0.4,0.3,0.7,0.3
	c0.3,0,0.6-0.1,0.7-0.3c0.1-0.2,0.2-0.6,0.2-1C16.2,12.1,16.2,11.7,16,11.5z M26,11.3c-0.2-0.2-0.4-0.2-0.6-0.2s-0.5,0.1-0.6,0.2
	c-0.2,0.2-0.2,0.4-0.2,0.7h1.7C26.2,11.7,26.2,11.5,26,11.3z M26,11.3c-0.2-0.2-0.4-0.2-0.6-0.2s-0.5,0.1-0.6,0.2
	c-0.2,0.2-0.2,0.4-0.2,0.7h1.7C26.2,11.7,26.2,11.5,26,11.3z M16,11.5c-0.2-0.2-0.4-0.3-0.7-0.3s-0.6,0.1-0.7,0.3
	c-0.1,0.2-0.2,0.6-0.2,1c0,0.4,0.1,0.8,0.2,1c0.1,0.2,0.4,0.3,0.7,0.3c0.3,0,0.6-0.1,0.7-0.3c0.1-0.2,0.2-0.6,0.2-1
	C16.2,12.1,16.2,11.7,16,11.5z M16,11.5c-0.2-0.2-0.4-0.3-0.7-0.3s-0.6,0.1-0.7,0.3c-0.1,0.2-0.2,0.6-0.2,1c0,0.4,0.1,0.8,0.2,1
	c0.1,0.2,0.4,0.3,0.7,0.3c0.3,0,0.6-0.1,0.7-0.3c0.1-0.2,0.2-0.6,0.2-1C16.2,12.1,16.2,11.7,16,11.5z M26,11.3
	c-0.2-0.2-0.4-0.2-0.6-0.2s-0.5,0.1-0.6,0.2c-0.2,0.2-0.2,0.4-0.2,0.7h1.7C26.2,11.7,26.2,11.5,26,11.3z M26,11.3
	c-0.2-0.2-0.4-0.2-0.6-0.2s-0.5,0.1-0.6,0.2c-0.2,0.2-0.2,0.4-0.2,0.7h1.7C26.2,11.7,26.2,11.5,26,11.3z M16,11.5
	c-0.2-0.2-0.4-0.3-0.7-0.3s-0.6,0.1-0.7,0.3c-0.1,0.2-0.2,0.6-0.2,1c0,0.4,0.1,0.8,0.2,1c0.1,0.2,0.4,0.3,0.7,0.3
	c0.3,0,0.6-0.1,0.7-0.3c0.1-0.2,0.2-0.6,0.2-1C16.2,12.1,16.2,11.7,16,11.5z M16,11.5c-0.2-0.2-0.4-0.3-0.7-0.3s-0.6,0.1-0.7,0.3
	c-0.1,0.2-0.2,0.6-0.2,1c0,0.4,0.1,0.8,0.2,1c0.1,0.2,0.4,0.3,0.7,0.3c0.3,0,0.6-0.1,0.7-0.3c0.1-0.2,0.2-0.6,0.2-1
	C16.2,12.1,16.2,11.7,16,11.5z M16,11.5c-0.2-0.2-0.4-0.3-0.7-0.3s-0.6,0.1-0.7,0.3c-0.1,0.2-0.2,0.6-0.2,1c0,0.4,0.1,0.8,0.2,1
	c0.1,0.2,0.4,0.3,0.7,0.3c0.3,0,0.6-0.1,0.7-0.3c0.1-0.2,0.2-0.6,0.2-1C16.2,12.1,16.2,11.7,16,11.5z M16,11.5
	c-0.2-0.2-0.4-0.3-0.7-0.3s-0.6,0.1-0.7,0.3c-0.1,0.2-0.2,0.6-0.2,1c0,0.4,0.1,0.8,0.2,1c0.1,0.2,0.4,0.3,0.7,0.3
	c0.3,0,0.6-0.1,0.7-0.3c0.1-0.2,0.2-0.6,0.2-1C16.2,12.1,16.2,11.7,16,11.5z M16,11.5c-0.2-0.2-0.4-0.3-0.7-0.3s-0.6,0.1-0.7,0.3
	c-0.1,0.2-0.2,0.6-0.2,1c0,0.4,0.1,0.8,0.2,1c0.1,0.2,0.4,0.3,0.7,0.3c0.3,0,0.6-0.1,0.7-0.3c0.1-0.2,0.2-0.6,0.2-1
	C16.2,12.1,16.2,11.7,16,11.5z M58.7,9.9l-2.9,4.2l-0.5,0.8l-0.7-0.5L53,13.3l0.5-0.8l1.5,1.1L58,9.3L58.7,9.9z M58.7,9.9l-2.9,4.2
	l-0.5,0.8l-0.7-0.5L53,13.3l0.5-0.8l1.5,1.1L58,9.3L58.7,9.9z"/>
</svg>
