<svg class="lds-spinner" width="200px"  height="200px"  xmlns="http://www.w3.org/2000/svg" xmlns:xlink="http://www.w3.org/1999/xlink" viewBox="0 0 100 100" preserveAspectRatio="xMidYMid" style="background: rgba(0, 0, 0, 0) none repeat scroll 0% 0%;"><g transform="rotate(0 50 50)">
  <rect x="47.5" y="17.5" rx="9.5" ry="3.5" width="5" height="5" fill="#333333">
    <animate attributeName="opacity" values="1;0" keyTimes="0;1" dur="2s" begin="-1.9333333333333333s" repeatCount="indefinite"></animate>
  </rect>
</g><g transform="rotate(12 50 50)">
  <rect x="47.5" y="17.5" rx="9.5" ry="3.5" width="5" height="5" fill="#333333">
    <animate attributeName="opacity" values="1;0" keyTimes="0;1" dur="2s" begin="-1.8666666666666667s" repeatCount="indefinite"></animate>
  </rect>
</g><g transform="rotate(24 50 50)">
  <rect x="47.5" y="17.5" rx="9.5" ry="3.5" width="5" height="5" fill="#333333">
    <animate attributeName="opacity" values="1;0" keyTimes="0;1" dur="2s" begin="-1.8s" repeatCount="indefinite"></animate>
  </rect>
</g><g transform="rotate(36 50 50)">
  <rect x="47.5" y="17.5" rx="9.5" ry="3.5" width="5" height="5" fill="#333333">
    <animate attributeName="opacity" values="1;0" keyTimes="0;1" dur="2s" begin="-1.7333333333333334s" repeatCount="indefinite"></animate>
  </rect>
</g><g transform="rotate(48 50 50)">
  <rect x="47.5" y="17.5" rx="9.5" ry="3.5" width="5" height="5" fill="#333333">
    <animate attributeName="opacity" values="1;0" keyTimes="0;1" dur="2s" begin="-1.6666666666666667s" repeatCount="indefinite"></animate>
  </rect>
</g><g transform="rotate(60 50 50)">
  <rect x="47.5" y="17.5" rx="9.5" ry="3.5" width="5" height="5" fill="#333333">
    <animate attributeName="opacity" values="1;0" keyTimes="0;1" dur="2s" begin="-1.6s" repeatCount="indefinite"></animate>
  </rect>
</g><g transform="rotate(72 50 50)">
  <rect x="47.5" y="17.5" rx="9.5" ry="3.5" width="5" height="5" fill="#333333">
    <animate attributeName="opacity" values="1;0" keyTimes="0;1" dur="2s" begin="-1.5333333333333334s" repeatCount="indefinite"></animate>
  </rect>
</g><g transform="rotate(84 50 50)">
  <rect x="47.5" y="17.5" rx="9.5" ry="3.5" width="5" height="5" fill="#333333">
    <animate attributeName="opacity" values="1;0" keyTimes="0;1" dur="2s" begin="-1.4666666666666666s" repeatCount="indefinite"></animate>
  </rect>
</g><g transform="rotate(96 50 50)">
  <rect x="47.5" y="17.5" rx="9.5" ry="3.5" width="5" height="5" fill="#333333">
    <animate attributeName="opacity" values="1;0" keyTimes="0;1" dur="2s" begin="-1.4s" repeatCount="indefinite"></animate>
  </rect>
</g><g transform="rotate(108 50 50)">
  <rect x="47.5" y="17.5" rx="9.5" ry="3.5" width="5" height="5" fill="#333333">
    <animate attributeName="opacity" values="1;0" keyTimes="0;1" dur="2s" begin="-1.3333333333333333s" repeatCount="indefinite"></animate>
  </rect>
</g><g transform="rotate(120 50 50)">
  <rect x="47.5" y="17.5" rx="9.5" ry="3.5" width="5" height="5" fill="#333333">
    <animate attributeName="opacity" values="1;0" keyTimes="0;1" dur="2s" begin="-1.2666666666666666s" repeatCount="indefinite"></animate>
  </rect>
</g><g transform="rotate(132 50 50)">
  <rect x="47.5" y="17.5" rx="9.5" ry="3.5" width="5" height="5" fill="#333333">
    <animate attributeName="opacity" values="1;0" keyTimes="0;1" dur="2s" begin="-1.2s" repeatCount="indefinite"></animate>
  </rect>
</g><g transform="rotate(144 50 50)">
  <rect x="47.5" y="17.5" rx="9.5" ry="3.5" width="5" height="5" fill="#333333">
    <animate attributeName="opacity" values="1;0" keyTimes="0;1" dur="2s" begin="-1.1333333333333333s" repeatCount="indefinite"></animate>
  </rect>
</g><g transform="rotate(156 50 50)">
  <rect x="47.5" y="17.5" rx="9.5" ry="3.5" width="5" height="5" fill="#333333">
    <animate attributeName="opacity" values="1;0" keyTimes="0;1" dur="2s" begin="-1.0666666666666667s" repeatCount="indefinite"></animate>
  </rect>
</g><g transform="rotate(168 50 50)">
  <rect x="47.5" y="17.5" rx="9.5" ry="3.5" width="5" height="5" fill="#333333">
    <animate attributeName="opacity" values="1;0" keyTimes="0;1" dur="2s" begin="-1s" repeatCount="indefinite"></animate>
  </rect>
</g><g transform="rotate(180 50 50)">
  <rect x="47.5" y="17.5" rx="9.5" ry="3.5" width="5" height="5" fill="#333333">
    <animate attributeName="opacity" values="1;0" keyTimes="0;1" dur="2s" begin="-0.9333333333333333s" repeatCount="indefinite"></animate>
  </rect>
</g><g transform="rotate(192 50 50)">
  <rect x="47.5" y="17.5" rx="9.5" ry="3.5" width="5" height="5" fill="#333333">
    <animate attributeName="opacity" values="1;0" keyTimes="0;1" dur="2s" begin="-0.8666666666666667s" repeatCount="indefinite"></animate>
  </rect>
</g><g transform="rotate(204 50 50)">
  <rect x="47.5" y="17.5" rx="9.5" ry="3.5" width="5" height="5" fill="#333333">
    <animate attributeName="opacity" values="1;0" keyTimes="0;1" dur="2s" begin="-0.8s" repeatCount="indefinite"></animate>
  </rect>
</g><g transform="rotate(216 50 50)">
  <rect x="47.5" y="17.5" rx="9.5" ry="3.5" width="5" height="5" fill="#333333">
    <animate attributeName="opacity" values="1;0" keyTimes="0;1" dur="2s" begin="-0.7333333333333333s" repeatCount="indefinite"></animate>
  </rect>
</g><g transform="rotate(228 50 50)">
  <rect x="47.5" y="17.5" rx="9.5" ry="3.5" width="5" height="5" fill="#333333">
    <animate attributeName="opacity" values="1;0" keyTimes="0;1" dur="2s" begin="-0.6666666666666666s" repeatCount="indefinite"></animate>
  </rect>
</g><g transform="rotate(240 50 50)">
  <rect x="47.5" y="17.5" rx="9.5" ry="3.5" width="5" height="5" fill="#333333">
    <animate attributeName="opacity" values="1;0" keyTimes="0;1" dur="2s" begin="-0.6s" repeatCount="indefinite"></animate>
  </rect>
</g><g transform="rotate(252 50 50)">
  <rect x="47.5" y="17.5" rx="9.5" ry="3.5" width="5" height="5" fill="#333333">
    <animate attributeName="opacity" values="1;0" keyTimes="0;1" dur="2s" begin="-0.5333333333333333s" repeatCount="indefinite"></animate>
  </rect>
</g><g transform="rotate(264 50 50)">
  <rect x="47.5" y="17.5" rx="9.5" ry="3.5" width="5" height="5" fill="#333333">
    <animate attributeName="opacity" values="1;0" keyTimes="0;1" dur="2s" begin="-0.4666666666666667s" repeatCount="indefinite"></animate>
  </rect>
</g><g transform="rotate(276 50 50)">
  <rect x="47.5" y="17.5" rx="9.5" ry="3.5" width="5" height="5" fill="#333333">
    <animate attributeName="opacity" values="1;0" keyTimes="0;1" dur="2s" begin="-0.4s" repeatCount="indefinite"></animate>
  </rect>
</g><g transform="rotate(288 50 50)">
  <rect x="47.5" y="17.5" rx="9.5" ry="3.5" width="5" height="5" fill="#333333">
    <animate attributeName="opacity" values="1;0" keyTimes="0;1" dur="2s" begin="-0.3333333333333333s" repeatCount="indefinite"></animate>
  </rect>
</g><g transform="rotate(300 50 50)">
  <rect x="47.5" y="17.5" rx="9.5" ry="3.5" width="5" height="5" fill="#333333">
    <animate attributeName="opacity" values="1;0" keyTimes="0;1" dur="2s" begin="-0.26666666666666666s" repeatCount="indefinite"></animate>
  </rect>
</g><g transform="rotate(312 50 50)">
  <rect x="47.5" y="17.5" rx="9.5" ry="3.5" width="5" height="5" fill="#333333">
    <animate attributeName="opacity" values="1;0" keyTimes="0;1" dur="2s" begin="-0.2s" repeatCount="indefinite"></animate>
  </rect>
</g><g transform="rotate(324 50 50)">
  <rect x="47.5" y="17.5" rx="9.5" ry="3.5" width="5" height="5" fill="#333333">
    <animate attributeName="opacity" values="1;0" keyTimes="0;1" dur="2s" begin="-0.13333333333333333s" repeatCount="indefinite"></animate>
  </rect>
</g><g transform="rotate(336 50 50)">
  <rect x="47.5" y="17.5" rx="9.5" ry="3.5" width="5" height="5" fill="#333333">
    <animate attributeName="opacity" values="1;0" keyTimes="0;1" dur="2s" begin="-0.06666666666666667s" repeatCount="indefinite"></animate>
  </rect>
</g><g transform="rotate(348 50 50)">
  <rect x="47.5" y="17.5" rx="9.5" ry="3.5" width="5" height="5" fill="#333333">
    <animate attributeName="opacity" values="1;0" keyTimes="0;1" dur="2s" begin="0s" repeatCount="indefinite"></animate>
  </rect>
</g></svg>