<?xml version="1.0" encoding="utf-8"?>
<!-- Generator: Adobe Illustrator 24.1.3, SVG Export Plug-In . SVG Version: 6.00 Build 0)  -->
<svg version="1.1" id="Layer_1" xmlns="http://www.w3.org/2000/svg" xmlns:xlink="http://www.w3.org/1999/xlink" x="0px" y="0px"
	 viewBox="0 0 18.3 24" style="enable-background:new 0 0 18.3 24;" xml:space="preserve">
<style type="text/css">
	.st0{fill:#FFFFFF;}
</style>
<path class="st0" d="M11.8,4.7H7.1l2.4-2.4L11.8,4.7z M7.1,19.4h4.7l-2.3,2.3L7.1,19.4z M12.8,10.9l-0.5,2.4h2.1V15h-2.5l-0.7,3H9.6
	l0.7-3H7.1l-0.7,3H4.7l0.7-3H2.9v-1.7h2.8l0.5-2.4H3.9V9.3h2.7l0.7-3h1.7l-0.7,3h3.2l0.7-3h1.7l-0.7,3h2.2v1.7H12.8z M11.1,10.9H7.9
	l-0.5,2.4h3.2L11.1,10.9z"/>
</svg>
