<?xml version="1.0" encoding="utf-8"?>
<!-- Generator: Adobe Illustrator 24.1.3, SVG Export Plug-In . SVG Version: 6.00 Build 0)  -->
<svg version="1.1" id="Layer_1" xmlns="http://www.w3.org/2000/svg" xmlns:xlink="http://www.w3.org/1999/xlink" x="0px" y="0px"
	 viewBox="0 0 24 24" style="enable-background:new 0 0 24 24;" xml:space="preserve">
<style type="text/css">
	.st0{fill:none;}
	.st1{fill:#FFFFFF;}
</style>
<path class="st0" d="M0,0h24v24H0V0z M0,0h24v24H0V0z M0.8,0.8h22.5v22.5H0.8V0.8z"/>
<path class="st1" d="M14.9,4.7h-4.7l2.4-2.4L14.9,4.7z M10.2,19.4h4.7l-2.3,2.3L10.2,19.4z M6.1,6.3L1.6,17.7h1.8l0.9-2.4h5.1
	l0.9,2.4h1.8L7.7,6.3H6.1z M5,13.6l1.9-5.2l1.9,5.2H5z M15.7,16.1h6.1v1.6h-8.5v-1.3l5.9-8.6h-5.9V6.3h8.3v1.3
	C21.7,7.5,15.7,16.1,15.7,16.1z"/>
</svg>
