<?xml version="1.0" encoding="utf-8"?>
<!-- Generator: Adobe Illustrator 23.1.1, SVG Export Plug-In . SVG Version: 6.00 Build 0)  -->
<svg version="1.1" id="Layer_1" xmlns="http://www.w3.org/2000/svg" xmlns:xlink="http://www.w3.org/1999/xlink" x="0px" y="0px"
	 viewBox="0 0 24 24" style="enable-background:new 0 0 24 24;" xml:space="preserve">
<style type="text/css">
	.st0{fill:none;}
	.st1{fill:#DADADA;}
</style>
<path class="st0" d="M0,0h24v24H0V0z"/>
<path class="st1" d="M17,7h-4v1.9h4c1.7,0,3.1,1.4,3.1,3.1c0,1.4-1,2.6-2.3,3l1.5,1.5c1.6-0.8,2.8-2.5,2.8-4.4C22,9.2,19.8,7,17,7z
	 M16,11h-2.2l2,2H16V11z M2,4.3l3.1,3.1C3.3,8.1,2,9.9,2,12c0,2.8,2.2,5,5,5h4v-1.9H7c-1.7,0-3.1-1.4-3.1-3.1c0-1.6,1.2-2.9,2.8-3.1
	L8.7,11H8v2h2.7l2.3,2.3V17h1.7l4,4l1.3-1.3L3.3,3L2,4.3z"/>
</svg>
