<?xml version="1.0" encoding="utf-8"?>
<!-- Generator: Adobe Illustrator 24.1.3, SVG Export Plug-In . SVG Version: 6.00 Build 0)  -->
<svg version="1.1" id="Layer_1" xmlns="http://www.w3.org/2000/svg" xmlns:xlink="http://www.w3.org/1999/xlink" x="0px" y="0px"
	 viewBox="0 0 36.9 24" style="enable-background:new 0 0 36.9 24;" xml:space="preserve">
<style type="text/css">
	.st0{fill:#FFCF03;}
	.st1{fill:#FFFFFF;}
</style>
<path class="st0" d="M24.9,5.2H11.1c-1.9,0-3.6,0.8-4.9,2s-2,3-2,4.9c0,3.8,3.1,6.9,6.9,6.9h13.8c1.9,0,3.6-0.8,4.9-2
	c1.3-1.2,2-3,2-4.9C31.8,8.3,28.7,5.2,24.9,5.2z"/>
<g>
	<path class="st1" d="M11.8,11.6h2.5v3.2c-0.4,0.1-0.8,0.2-1.1,0.3c-0.4,0.1-0.7,0.1-1.1,0.1c-0.9,0-1.7-0.3-2.2-0.8
		c-0.5-0.6-0.7-1.3-0.7-2.4c0-1,0.3-1.8,0.9-2.4s1.4-0.8,2.4-0.8c0.6,0,1.3,0.1,1.9,0.4l-0.4,1.1c-0.5-0.2-0.9-0.3-1.4-0.3
		c-0.6,0-1,0.2-1.4,0.6c-0.3,0.4-0.5,0.9-0.5,1.6c0,0.7,0.1,1.2,0.4,1.6s0.7,0.5,1.2,0.5c0.3,0,0.6,0,0.8-0.1v-1.3h-1.2V11.6z"/>
	<path class="st1" d="M18.2,15.1h-1.3V9.9h-1.7V8.8h4.7v1.1h-1.7V15.1z"/>
	<path class="st1" d="M24.6,15.1l-0.5-1.5h-2.3l-0.5,1.5H20l2.2-6.3h1.6l2.2,6.3H24.6z M23.9,12.5c-0.4-1.3-0.7-2.1-0.7-2.3
		s-0.1-0.3-0.1-0.4c-0.1,0.4-0.4,1.3-0.8,2.7H23.9z"/>
</g>
</svg>
