<?xml version="1.0" encoding="utf-8"?>
<!-- Generator: Adobe Illustrator 24.1.2, SVG Export Plug-In . SVG Version: 6.00 Build 0)  -->
<svg version="1.1" id="Layer_1" xmlns="http://www.w3.org/2000/svg" xmlns:xlink="http://www.w3.org/1999/xlink" x="0px" y="0px"
	 viewBox="0 0 57.3 24" style="enable-background:new 0 0 57.3 24;" xml:space="preserve">
<style type="text/css">
	.st0{fill:#FFFFFF;}
</style>
<path class="st0" d="M46.2,19.4H11c-3.9,0-7.1-3.2-7.1-7.1c0-2,0.8-3.9,2.1-5.1C7.4,5.9,9.2,5.1,11,5.1h35.2c3.9,0,7.2,3.2,7.2,7.2
	c0,2-0.8,3.9-2.1,5.1C49.9,18.7,48.1,19.4,46.2,19.4z M11,5.6c-1.7,0-3.4,0.7-4.7,1.9c-1.2,1.1-1.9,2.8-1.9,4.7c0,3.7,3,6.6,6.6,6.6
	h35.2c1.7,0,3.4-0.7,4.7-1.9c1.2-1.1,1.9-2.8,1.9-4.7c0-3.7-3-6.7-6.7-6.7H11z"/>
<g>
	<path class="st0" d="M13.3,9.4v3.9c0,0.5-0.1,0.8-0.3,1.2c-0.2,0.3-0.5,0.6-0.9,0.8c-0.4,0.2-0.8,0.3-1.4,0.3
		c-0.8,0-1.4-0.2-1.8-0.6s-0.7-1-0.7-1.6V9.4h1.3v3.7c0,0.5,0.1,0.8,0.3,1c0.2,0.2,0.5,0.3,0.9,0.3c0.4,0,0.7-0.1,0.9-0.3
		c0.2-0.2,0.3-0.6,0.3-1V9.4H13.3z"/>
	<path class="st0" d="M19,15.5h-1.3v-2.7c0-0.3-0.1-0.6-0.2-0.8c-0.1-0.2-0.3-0.3-0.6-0.3c-0.4,0-0.6,0.1-0.8,0.4
		C16,12.3,16,12.7,16,13.3v2.2h-1.3v-4.7h1l0.2,0.6h0.1c0.1-0.2,0.3-0.4,0.6-0.5s0.5-0.2,0.8-0.2c0.5,0,1,0.1,1.2,0.4
		c0.3,0.3,0.4,0.7,0.4,1.3V15.5z"/>
	<path class="st0" d="M24.5,13.1c0,0.8-0.2,1.4-0.6,1.8c-0.4,0.4-1,0.6-1.7,0.6c-0.4,0-0.8-0.1-1.2-0.3c-0.3-0.2-0.6-0.5-0.8-0.8
		C20.1,14,20,13.6,20,13.1c0-0.8,0.2-1.4,0.6-1.8s1-0.6,1.7-0.6c0.4,0,0.8,0.1,1.2,0.3s0.6,0.5,0.8,0.8
		C24.4,12.2,24.5,12.6,24.5,13.1z M21.3,13.1c0,0.5,0.1,0.8,0.2,1s0.4,0.4,0.7,0.4c0.3,0,0.6-0.1,0.7-0.4c0.1-0.2,0.2-0.6,0.2-1
		c0-0.5-0.1-0.8-0.2-1s-0.4-0.3-0.7-0.3c-0.3,0-0.6,0.1-0.7,0.3S21.3,12.7,21.3,13.1z"/>
	<path class="st0" d="M28.2,11.8h-1.1v3.7h-1.3v-3.7h-0.7v-0.6l0.7-0.3v-0.3c0-0.5,0.1-0.9,0.4-1.2c0.3-0.2,0.7-0.4,1.3-0.4
		c0.4,0,0.8,0.1,1.2,0.2l-0.3,0.9C28,10,27.8,9.9,27.6,9.9c-0.2,0-0.3,0.1-0.4,0.2c-0.1,0.1-0.1,0.2-0.1,0.4v0.3h1.1V11.8z
		 M31.5,11.8h-1.1v3.7h-1.3v-3.7h-0.7v-0.6l0.7-0.3v-0.3c0-0.5,0.1-0.9,0.4-1.2c0.3-0.2,0.7-0.4,1.3-0.4c0.4,0,0.8,0.1,1.2,0.2
		l-0.3,0.9c-0.3-0.1-0.5-0.1-0.7-0.1c-0.2,0-0.3,0.1-0.4,0.2c-0.1,0.1-0.1,0.2-0.1,0.4v0.3h1.1V11.8z M32.1,9.6
		c0-0.4,0.2-0.6,0.7-0.6s0.7,0.2,0.7,0.6c0,0.2-0.1,0.4-0.2,0.5s-0.3,0.2-0.5,0.2C32.4,10.2,32.1,10,32.1,9.6z M33.5,15.5h-1.3v-4.7
		h1.3V15.5z"/>
	<path class="st0" d="M36.7,15.6c-1.5,0-2.2-0.8-2.2-2.4c0-0.8,0.2-1.4,0.6-1.8c0.4-0.4,1-0.6,1.7-0.6c0.5,0,1,0.1,1.5,0.3l-0.4,1
		c-0.2-0.1-0.4-0.1-0.6-0.2c-0.2-0.1-0.3-0.1-0.5-0.1c-0.7,0-1,0.5-1,1.4c0,0.9,0.3,1.4,1,1.4c0.2,0,0.5,0,0.7-0.1
		c0.2-0.1,0.4-0.2,0.6-0.3v1.1c-0.2,0.1-0.4,0.2-0.6,0.3C37.3,15.5,37,15.6,36.7,15.6z"/>
	<path class="st0" d="M39.1,9.6c0-0.4,0.2-0.6,0.7-0.6s0.7,0.2,0.7,0.6c0,0.2-0.1,0.4-0.2,0.5s-0.3,0.2-0.5,0.2
		C39.4,10.2,39.1,10,39.1,9.6z M40.4,15.5h-1.3v-4.7h1.3V15.5z"/>
	<path class="st0" d="M44.7,15.5l-0.2-0.6h0c-0.2,0.3-0.4,0.5-0.7,0.6c-0.2,0.1-0.5,0.2-0.9,0.2c-0.4,0-0.8-0.1-1.1-0.4
		s-0.4-0.6-0.4-1.1c0-0.5,0.2-0.9,0.5-1.1c0.3-0.2,0.9-0.4,1.6-0.4l0.8,0v-0.2c0-0.5-0.2-0.7-0.7-0.7c-0.4,0-0.8,0.1-1.3,0.3
		l-0.4-0.9c0.5-0.3,1.1-0.4,1.8-0.4c0.6,0,1.1,0.1,1.4,0.4c0.3,0.3,0.5,0.7,0.5,1.2v3.1H44.7z M44.4,13.3l-0.5,0
		c-0.4,0-0.6,0.1-0.8,0.2s-0.3,0.3-0.3,0.6c0,0.4,0.2,0.5,0.6,0.5c0.3,0,0.5-0.1,0.7-0.3c0.2-0.2,0.3-0.4,0.3-0.7V13.3z"/>
	<path class="st0" d="M48.2,15.5h-1.3V9h1.3V15.5z"/>
</g>
</svg>
