<?xml version="1.0" encoding="utf-8"?>
<!-- Generator: Adobe Illustrator 24.1.2, SVG Export Plug-In . SVG Version: 6.00 Build 0)  -->
<svg version="1.1" id="Layer_1" xmlns="http://www.w3.org/2000/svg" xmlns:xlink="http://www.w3.org/1999/xlink" x="0px" y="0px"
	 viewBox="0 0 57.3 24" style="enable-background:new 0 0 57.3 24;" xml:space="preserve">
<style type="text/css">
	.st0{fill:#FFFFFF;}
</style>
<path class="st0" d="M31.5,13.3c-0.2,0.1-0.3,0.3-0.3,0.5c0,0.3,0.2,0.5,0.6,0.5c0.3,0,0.5-0.1,0.7-0.2c0.2-0.2,0.3-0.4,0.3-0.7V13
	h-0.5C32,13.2,31.7,13.2,31.5,13.3z"/>
<path class="st0" d="M11.6,10.3c-0.5,0-0.9,0.2-1.1,0.5c-0.3,0.3-0.4,0.8-0.4,1.5s0.1,1.2,0.4,1.5c0.2,0.3,0.6,0.5,1.1,0.5
	c1,0,1.5-0.7,1.5-2C13,10.9,12.6,10.3,11.6,10.3z"/>
<path class="st0" d="M45.5,5.2H10.3c-1.9,0-3.6,0.8-4.9,2s-2,3-2,4.9c0,3.8,3.1,6.9,6.9,6.9h35.2c1.9,0,3.6-0.8,4.9-2s2-3,2-4.9
	C52.4,8.3,49.3,5.2,45.5,5.2z M13.6,14.5c-0.5,0.5-1.2,0.8-2.1,0.8c-0.9,0-1.6-0.3-2.1-0.8C9,14,8.7,13.2,8.7,12.3
	c0-1,0.2-1.7,0.7-2.2s1.2-0.8,2.1-0.8s1.6,0.3,2.1,0.8s0.7,1.3,0.7,2.2C14.4,13.2,14.1,14,13.6,14.5z M17.7,10.7v0.9h-1.1v3.6h-1.2
	v-3.6h-0.7V11l0.7-0.3v-0.3c0-0.5,0.1-0.9,0.4-1.1C16,9,16.4,8.9,17,8.9c0.4,0,0.8,0.1,1.1,0.2L17.8,10c-0.2-0.1-0.5-0.1-0.7-0.1
	s-0.3,0.1-0.4,0.2c-0.1,0.1-0.1,0.2-0.1,0.4v0.3L17.7,10.7L17.7,10.7z M21,10c-0.2-0.1-0.5-0.1-0.7-0.1S20,10,19.9,10.1
	c-0.1,0.1-0.1,0.2-0.1,0.4v0.3h1.1v0.9h-1.1v3.6h-1.2v-3.6h-0.7V11l0.7-0.3v-0.3c0-0.5,0.1-0.9,0.4-1.1c0.3-0.2,0.7-0.4,1.2-0.4
	c0.4,0,0.8,0.1,1.1,0.2L21,10z M22.8,15.2h-1.2v-4.5h1.2V15.2z M22.7,10c-0.1,0.1-0.3,0.2-0.5,0.2c-0.4,0-0.7-0.2-0.7-0.6
	c0-0.4,0.2-0.6,0.7-0.6c0.4,0,0.7,0.2,0.7,0.6C22.9,9.7,22.8,9.9,22.7,10z M25.8,14.3c0.2,0,0.5,0,0.7-0.1s0.4-0.2,0.6-0.3V15
	c-0.2,0.1-0.4,0.2-0.6,0.3c-0.2,0-0.5,0.1-0.8,0.1c-1.4,0-2.1-0.8-2.1-2.3c0-0.8,0.2-1.3,0.6-1.8c0.4-0.4,0.9-0.6,1.6-0.6
	c0.5,0,1,0.1,1.4,0.3l-0.4,1c-0.2-0.1-0.4-0.1-0.5-0.2c-0.2,0-0.3-0.1-0.5-0.1c-0.6,0-1,0.5-1,1.4C24.8,13.9,25.1,14.3,25.8,14.3z
	 M29.3,15.2h-1.2v-4.5h1.2V15.2z M29.2,10c-0.1,0.1-0.3,0.2-0.5,0.2c-0.4,0-0.7-0.2-0.7-0.6C28,9.2,28.2,9,28.7,9
	c0.4,0,0.7,0.2,0.7,0.6C29.4,9.7,29.3,9.9,29.2,10z M34,15.2h-0.9l-0.2-0.6l0,0c-0.2,0.3-0.4,0.4-0.6,0.5c-0.2,0.1-0.5,0.2-0.9,0.2
	s-0.8-0.1-1-0.4c-0.2-0.2-0.4-0.6-0.4-1.1s0.2-0.8,0.5-1.1c0.3-0.2,0.8-0.4,1.5-0.4h0.8v-0.2c0-0.5-0.2-0.7-0.7-0.7
	c-0.4,0-0.8,0.1-1.3,0.3L30.4,11c0.5-0.3,1.1-0.4,1.7-0.4s1.1,0.1,1.4,0.4c0.3,0.3,0.5,0.7,0.5,1.2V15.2z M36.2,15.2H35V8.9h1.2
	V15.2z M45.1,17.1c-2.8,0-5-2.2-5-5s2.2-5,5-5s5,2.2,5,5C50.1,14.8,47.9,17.1,45.1,17.1z"/>
<polygon class="st0" points="47.7,14 45.9,12.1 47.7,10.2 46.9,9.5 45.3,11.4 43.6,9.5 42.9,10.2 44.6,12.1 42.9,14 43.6,14.7 
	45.3,12.9 46.9,14.7 "/>
</svg>
