<?xml version="1.0" encoding="utf-8"?>
<!-- Generator: Adobe Illustrator 24.1.2, SVG Export Plug-In . SVG Version: 6.00 Build 0)  -->
<svg version="1.1" id="Layer_1" xmlns="http://www.w3.org/2000/svg" xmlns:xlink="http://www.w3.org/1999/xlink" x="0px" y="0px"
	 viewBox="0 0 57.3 24" style="enable-background:new 0 0 57.3 24;" xml:space="preserve">
<style type="text/css">
	.st0{fill:#FFFFFF;}
	.st1{fill:none;}
	.st2{fill:#00E06D;}
</style>
<circle class="st0" cx="45.1" cy="12.2" r="5.5"/>
<g>
	<path class="st1" d="M45.1,7.1c-2.8,0-5,2.2-5,5s2.2,5,5,5s5-2.3,5-5C50.1,9.3,47.9,7.1,45.1,7.1z M45,14.1l-0.5,0.8h-0.1l0,0
		l-0.7-0.5l-1.5-1.1l0.5-0.8l1.5,1.1l3-4.3l0.7,0.6L45,14.1z"/>
	<path class="st2" d="M31.5,13.3c-0.2,0.1-0.3,0.3-0.3,0.5c0,0.3,0.2,0.5,0.6,0.5c0.3,0,0.5-0.1,0.7-0.2c0.2-0.2,0.3-0.4,0.3-0.7V13
		h-0.5C32,13.2,31.7,13.2,31.5,13.3z"/>
	<path class="st2" d="M11.6,10.3c-0.5,0-0.9,0.2-1.1,0.5c-0.3,0.3-0.4,0.8-0.4,1.5s0.1,1.2,0.4,1.5c0.2,0.3,0.6,0.5,1.1,0.5
		c1,0,1.5-0.7,1.5-2C13,10.9,12.6,10.3,11.6,10.3z"/>
	<polygon class="st2" points="42.2,13.3 43.7,14.4 44.4,14.9 44.4,14.9 43.8,14.4 	"/>
	<polygon class="st2" points="47.8,9.9 44.9,14.1 44.4,14.9 44.5,14.9 45,14.1 47.9,9.9 47.2,9.3 	"/>
	<path class="st2" d="M45.5,5.2H10.3c-1.9,0-3.6,0.8-4.9,2s-2,3-2,4.9c0,3.8,3.1,6.9,6.9,6.9h35.2c1.9,0,3.6-0.8,4.9-2s2-3,2-4.9
		C52.4,8.3,49.3,5.2,45.5,5.2z M13.6,14.5c-0.5,0.5-1.2,0.8-2.1,0.8c-0.9,0-1.6-0.3-2.1-0.8C9,14,8.7,13.2,8.7,12.3
		c0-1,0.2-1.7,0.7-2.2s1.2-0.8,2.1-0.8s1.6,0.3,2.1,0.8s0.7,1.3,0.7,2.2C14.4,13.2,14.1,14,13.6,14.5z M17.7,10.7v0.9h-1.1v3.6h-1.2
		v-3.6h-0.7V11l0.7-0.3v-0.3c0-0.5,0.1-0.9,0.4-1.1C16,9,16.4,8.9,17,8.9c0.4,0,0.8,0.1,1.1,0.2L17.8,10c-0.2-0.1-0.5-0.1-0.7-0.1
		s-0.3,0.1-0.4,0.2c-0.1,0.1-0.1,0.2-0.1,0.4v0.3L17.7,10.7L17.7,10.7z M21,10c-0.2-0.1-0.5-0.1-0.7-0.1S20,10,19.9,10.1
		c-0.1,0.1-0.1,0.2-0.1,0.4v0.3h1.1v0.9h-1.1v3.6h-1.2v-3.6h-0.7V11l0.7-0.3v-0.3c0-0.5,0.1-0.9,0.4-1.1c0.3-0.2,0.7-0.4,1.2-0.4
		c0.4,0,0.8,0.1,1.1,0.2L21,10z M22.8,15.2h-1.2v-4.5h1.2V15.2z M22.7,10c-0.1,0.1-0.3,0.2-0.5,0.2c-0.4,0-0.7-0.2-0.7-0.6
		c0-0.4,0.2-0.6,0.7-0.6c0.4,0,0.7,0.2,0.7,0.6C22.9,9.7,22.8,9.9,22.7,10z M25.8,14.3c0.2,0,0.5,0,0.7-0.1s0.4-0.2,0.6-0.3V15
		c-0.2,0.1-0.4,0.2-0.6,0.3c-0.2,0-0.5,0.1-0.8,0.1c-1.4,0-2.1-0.8-2.1-2.3c0-0.8,0.2-1.3,0.6-1.8c0.4-0.4,0.9-0.6,1.6-0.6
		c0.5,0,1,0.1,1.4,0.3l-0.4,1c-0.2-0.1-0.4-0.1-0.5-0.2c-0.2,0-0.3-0.1-0.5-0.1c-0.6,0-1,0.5-1,1.4C24.8,13.9,25.1,14.3,25.8,14.3z
		 M29.3,15.2h-1.2v-4.5h1.2V15.2z M29.2,10c-0.1,0.1-0.3,0.2-0.5,0.2c-0.4,0-0.7-0.2-0.7-0.6C28,9.2,28.2,9,28.7,9
		c0.4,0,0.7,0.2,0.7,0.6C29.4,9.7,29.3,9.9,29.2,10z M34,15.2h-0.9l-0.2-0.6l0,0c-0.2,0.3-0.4,0.4-0.6,0.5c-0.2,0.1-0.5,0.2-0.9,0.2
		s-0.8-0.1-1-0.4c-0.2-0.2-0.4-0.6-0.4-1.1s0.2-0.8,0.5-1.1c0.3-0.2,0.8-0.4,1.5-0.4h0.8v-0.2c0-0.5-0.2-0.7-0.7-0.7
		c-0.4,0-0.8,0.1-1.3,0.3L30.4,11c0.5-0.3,1.1-0.4,1.7-0.4s1.1,0.1,1.4,0.4c0.3,0.3,0.5,0.7,0.5,1.2V15.2z M36.2,15.2H35V8.9h1.2
		V15.2z M45.1,17.1c-2.8,0-5-2.2-5-5s2.2-5,5-5s5,2.2,5,5C50.1,14.8,47.9,17.1,45.1,17.1z"/>
	<polygon class="st2" points="47.8,9.9 47.2,9.3 44.2,13.6 42.7,12.5 42.2,13.3 43.8,14.4 44.4,14.9 44.9,14.1 	"/>
	<path class="st0" d="M11.6,9.2c-0.9,0-1.6,0.3-2.1,0.8s-0.7,1.3-0.7,2.2c0,1,0.2,1.7,0.7,2.3c0.5,0.5,1.2,0.8,2.1,0.8
		c0.9,0,1.6-0.3,2.1-0.8s0.7-1.3,0.7-2.2c0-1-0.2-1.7-0.7-2.2C13.2,9.5,12.5,9.2,11.6,9.2z M11.6,14.2c-0.5,0-0.9-0.2-1.1-0.5
		c-0.2-0.3-0.4-0.8-0.4-1.5s0.1-1.2,0.4-1.5c0.3-0.3,0.6-0.5,1.1-0.5c1,0,1.5,0.7,1.5,2C13,13.6,12.5,14.2,11.6,14.2z"/>
	<path class="st0" d="M19,9.3c-0.3,0.2-0.4,0.6-0.4,1.1v0.3L17.9,11v0.6h0.7v3.6h1.2v-3.6h1.1v-0.9h-1.1v-0.3c0-0.2,0-0.3,0.1-0.4
		c0.1-0.1,0.2-0.2,0.4-0.2c0.2,0,0.4,0,0.7,0.1L21.3,9c-0.3,0-0.7-0.1-1.1-0.1C19.6,8.9,19.2,9,19,9.3z"/>
	<path class="st0" d="M22.2,8.9c-0.4,0-0.7,0.2-0.7,0.6c0,0.4,0.2,0.6,0.7,0.6c0.2,0,0.4-0.1,0.5-0.2c0.1-0.1,0.2-0.3,0.2-0.4
		C22.9,9.1,22.6,8.9,22.2,8.9z"/>
	<path class="st0" d="M16.7,10c0.1-0.1,0.2-0.2,0.4-0.2c0.2,0,0.4,0,0.7,0.1L18.1,9c-0.3,0-0.7-0.1-1.1-0.1c-0.6,0-1,0.1-1.2,0.4
		c-0.3,0.2-0.4,0.6-0.4,1.1v0.3L14.7,11v0.6h0.7v3.6h1.2v-3.6h1.1v-0.9h-1.1v-0.3C16.6,10.3,16.7,10.1,16.7,10z"/>
	<rect x="21.6" y="10.7" class="st0" width="1.2" height="4.5"/>
	<path class="st0" d="M25.8,11.6c0.2,0,0.3,0,0.5,0.1c0.2,0,0.3,0.1,0.5,0.2l0.4-1c-0.4-0.2-0.9-0.3-1.4-0.3c-0.7,0-1.3,0.2-1.6,0.6
		c-0.4,0.4-0.6,1-0.6,1.8c0,1.5,0.7,2.3,2.1,2.3c0.3,0,0.6,0,0.8-0.1c0.2,0,0.4-0.1,0.6-0.3v-1.1c-0.2,0.1-0.4,0.2-0.6,0.3
		s-0.4,0.1-0.7,0.1c-0.6,0-1-0.4-1-1.3C24.8,12.1,25.1,11.6,25.8,11.6z"/>
	<rect x="28.1" y="10.7" class="st0" width="1.2" height="4.5"/>
	<path class="st0" d="M28.7,8.9c-0.4,0-0.7,0.2-0.7,0.6c0,0.4,0.2,0.6,0.7,0.6c0.2,0,0.4-0.1,0.5-0.2c0.1-0.1,0.2-0.3,0.2-0.4
		C29.4,9.1,29.1,8.9,28.7,8.9z"/>
	<path class="st0" d="M32.1,10.6c-0.6,0-1.2,0.1-1.7,0.4l0.4,0.8c0.5-0.2,0.9-0.3,1.3-0.3c0.5,0,0.7,0.2,0.7,0.7v0.2H32
		c-0.7,0-1.2,0.1-1.5,0.4C30.2,13,30,13.4,30,13.9s0.1,0.8,0.4,1.1c0.2,0.2,0.6,0.4,1,0.4s0.6-0.1,0.9-0.2c0.2-0.1,0.4-0.3,0.6-0.5
		l0,0l0.2,0.6H34v-3c0-0.5-0.2-0.9-0.5-1.2S32.8,10.6,32.1,10.6z M32.8,13.5c0,0.3-0.1,0.5-0.3,0.7s-0.4,0.2-0.7,0.2
		c-0.4,0-0.6-0.2-0.6-0.5c0-0.2,0.1-0.4,0.3-0.5c0.2-0.1,0.4-0.2,0.8-0.2h0.5V13.5z"/>
	<rect x="35" y="8.9" class="st0" width="1.2" height="6.3"/>
</g>
</svg>
