<?xml version="1.0" encoding="utf-8"?>
<!-- Generator: Adobe Illustrator 24.1.2, SVG Export Plug-In . SVG Version: 6.00 Build 0)  -->
<svg version="1.1" id="Layer_1" xmlns="http://www.w3.org/2000/svg" xmlns:xlink="http://www.w3.org/1999/xlink" x="0px" y="0px"
	 viewBox="0 0 70.5 24" style="enable-background:new 0 0 70.5 24;" xml:space="preserve">
<style type="text/css">
	.st0{fill:#FFFFFF;}
	.st1{fill:#00C4FF;}
</style>
<circle class="st0" cx="59.6" cy="12.1" r="5.3"/>
<path class="st1" d="M60,5.2H11.1c-1.9,0-3.6,0.8-4.9,2s-2,3-2,4.9c0,3.8,3.1,6.9,6.9,6.9H60c1.9,0,3.6-0.8,4.9-2c1.3-1.2,2-3,2-4.9
	C66.9,8.3,63.8,5.2,60,5.2z M59.6,17.1c-2.8,0-5-2.2-5-5s2.2-5,5-5s5,2.2,5,5C64.6,14.8,62.4,17.1,59.6,17.1z M58.7,13.6l-1.5-1.1
	l-0.5,0.8l1.5,1.1l0.7,0.5l0.5-0.8l2.9-4.2l-0.6-0.6L58.7,13.6z M62.4,9.9l-2.9,4.2L59,14.9l-0.7-0.5l-1.6-1.1l0.5-0.8l1.5,1.1
	l3-4.3L62.4,9.9z M62.4,9.9l-2.9,4.2L59,14.9l-0.7-0.5l-1.6-1.1l0.5-0.8l1.5,1.1l3-4.3L62.4,9.9z"/>
<g>
	<path class="st0" d="M13.5,10.6c0,0.7-0.2,1.2-0.6,1.5s-1,0.5-1.7,0.5h-0.6v2.2H9.3V8.7h1.9c0.7,0,1.3,0.2,1.7,0.5
		C13.3,9.5,13.5,10,13.5,10.6z M10.6,11.6H11c0.4,0,0.7-0.1,0.9-0.2c0.2-0.2,0.3-0.4,0.3-0.7c0-0.3-0.1-0.5-0.2-0.7
		s-0.4-0.2-0.8-0.2h-0.6V11.6z"/>
	<path class="st0" d="M17.1,10.1c0.2,0,0.3,0,0.4,0l-0.1,1.2c-0.1,0-0.2,0-0.4,0c-0.4,0-0.7,0.1-0.9,0.3c-0.2,0.2-0.3,0.5-0.3,0.9
		v2.4h-1.3v-4.7h1l0.2,0.8h0.1c0.1-0.3,0.3-0.5,0.6-0.6C16.6,10.2,16.9,10.1,17.1,10.1z"/>
	<path class="st0" d="M22.6,12.5c0,0.8-0.2,1.4-0.6,1.8s-1,0.6-1.7,0.6c-0.4,0-0.8-0.1-1.2-0.3c-0.3-0.2-0.6-0.5-0.8-0.8
		c-0.2-0.4-0.3-0.8-0.3-1.3c0-0.8,0.2-1.4,0.6-1.8s1-0.6,1.7-0.6c0.4,0,0.8,0.1,1.2,0.3c0.3,0.2,0.6,0.5,0.8,0.8
		C22.6,11.6,22.6,12,22.6,12.5z M19.4,12.5c0,0.5,0.1,0.8,0.2,1c0.2,0.2,0.4,0.4,0.7,0.4c0.3,0,0.6-0.1,0.7-0.4
		c0.1-0.2,0.2-0.6,0.2-1c0-0.5-0.1-0.8-0.2-1s-0.4-0.3-0.7-0.3c-0.3,0-0.6,0.1-0.7,0.3S19.4,12,19.4,12.5z"/>
	<path class="st0" d="M25.6,14.9c-1.5,0-2.2-0.8-2.2-2.4c0-0.8,0.2-1.4,0.6-1.8c0.4-0.4,1-0.6,1.7-0.6c0.5,0,1,0.1,1.4,0.3l-0.4,1
		c-0.2-0.1-0.4-0.1-0.6-0.2s-0.3-0.1-0.5-0.1c-0.7,0-1,0.5-1,1.4c0,0.9,0.3,1.4,1,1.4c0.2,0,0.5,0,0.7-0.1c0.2-0.1,0.4-0.2,0.6-0.3
		v1.1c-0.2,0.1-0.4,0.2-0.6,0.3C26.2,14.9,25.9,14.9,25.6,14.9z"/>
	<path class="st0" d="M30.2,14.9c-0.7,0-1.3-0.2-1.8-0.6c-0.4-0.4-0.6-1-0.6-1.8c0-0.8,0.2-1.4,0.6-1.8c0.4-0.4,0.9-0.6,1.6-0.6
		c0.7,0,1.2,0.2,1.5,0.6c0.4,0.4,0.5,0.9,0.5,1.6v0.6h-3c0,0.4,0.1,0.6,0.3,0.8c0.2,0.2,0.5,0.3,0.8,0.3c0.3,0,0.5,0,0.8-0.1
		s0.5-0.2,0.8-0.3v1c-0.2,0.1-0.5,0.2-0.7,0.2C30.9,14.9,30.6,14.9,30.2,14.9z M30,11c-0.3,0-0.5,0.1-0.6,0.3
		c-0.2,0.2-0.2,0.4-0.3,0.7h1.8c0-0.3-0.1-0.6-0.2-0.7C30.5,11.1,30.3,11,30,11z"/>
	<path class="st0" d="M36.4,13.4c0,0.5-0.2,0.8-0.5,1.1s-0.8,0.4-1.5,0.4c-0.3,0-0.6,0-0.9-0.1c-0.2,0-0.5-0.1-0.7-0.2v-1
		c0.2,0.1,0.5,0.2,0.8,0.3c0.3,0.1,0.6,0.1,0.8,0.1c0.5,0,0.7-0.1,0.7-0.4c0-0.1,0-0.2-0.1-0.2c-0.1-0.1-0.2-0.1-0.3-0.2
		c-0.2-0.1-0.3-0.2-0.6-0.3c-0.4-0.1-0.6-0.3-0.8-0.4C33.2,12.3,33,12.1,33,12c-0.1-0.2-0.1-0.4-0.1-0.6c0-0.4,0.2-0.7,0.5-1
		c0.3-0.2,0.8-0.3,1.4-0.3c0.6,0,1.1,0.1,1.6,0.4l-0.4,0.9c-0.2-0.1-0.5-0.2-0.7-0.2C35.1,11,34.9,11,34.7,11
		c-0.4,0-0.6,0.1-0.6,0.3c0,0.1,0.1,0.2,0.2,0.3c0.1,0.1,0.4,0.2,0.8,0.4c0.4,0.1,0.6,0.3,0.8,0.4c0.2,0.1,0.3,0.3,0.4,0.4
		C36.3,13,36.4,13.2,36.4,13.4z"/>
	<path class="st0" d="M40.6,13.4c0,0.5-0.2,0.8-0.5,1.1s-0.8,0.4-1.5,0.4c-0.3,0-0.6,0-0.9-0.1c-0.2,0-0.5-0.1-0.7-0.2v-1
		c0.2,0.1,0.5,0.2,0.8,0.3s0.6,0.1,0.8,0.1c0.5,0,0.7-0.1,0.7-0.4c0-0.1,0-0.2-0.1-0.2c-0.1-0.1-0.2-0.1-0.3-0.2
		c-0.2-0.1-0.3-0.2-0.6-0.3c-0.4-0.1-0.6-0.3-0.8-0.4c-0.2-0.1-0.3-0.3-0.4-0.4s-0.1-0.4-0.1-0.6c0-0.4,0.2-0.7,0.5-1
		c0.3-0.2,0.8-0.3,1.4-0.3c0.6,0,1.1,0.1,1.6,0.4l-0.4,0.9c-0.2-0.1-0.5-0.2-0.7-0.2C39.3,11,39.1,11,38.9,11
		c-0.4,0-0.6,0.1-0.6,0.3c0,0.1,0.1,0.2,0.2,0.3c0.1,0.1,0.4,0.2,0.8,0.4c0.4,0.1,0.6,0.3,0.8,0.4c0.2,0.1,0.3,0.3,0.4,0.4
		C40.6,13,40.6,13.2,40.6,13.4z"/>
	<path class="st0" d="M43.7,14.9c-0.8,0-1.3-0.2-1.8-0.6c-0.4-0.4-0.6-1-0.6-1.8c0-0.8,0.2-1.4,0.6-1.8c0.4-0.4,0.9-0.6,1.6-0.6
		c0.7,0,1.2,0.2,1.5,0.6c0.4,0.4,0.5,0.9,0.5,1.6v0.6h-3c0,0.4,0.1,0.6,0.3,0.8c0.2,0.2,0.5,0.3,0.8,0.3c0.3,0,0.5,0,0.8-0.1
		s0.5-0.2,0.8-0.3v1c-0.2,0.1-0.5,0.2-0.7,0.2C44.4,14.9,44.1,14.9,43.7,14.9z M43.5,11c-0.3,0-0.5,0.1-0.6,0.3
		c-0.2,0.2-0.2,0.4-0.3,0.7h1.8c0-0.3-0.1-0.6-0.2-0.7S43.8,11,43.5,11z"/>
	<path class="st0" d="M48.1,14.9c-0.5,0-1-0.2-1.3-0.6c-0.3-0.4-0.5-1-0.5-1.8c0-0.8,0.2-1.4,0.5-1.8s0.8-0.6,1.3-0.6
		c0.6,0,1,0.2,1.3,0.7h0c-0.1-0.3-0.1-0.7-0.1-0.9V8.3h1.3v6.5h-1l-0.2-0.6h-0.1C49.2,14.7,48.7,14.9,48.1,14.9z M48.6,13.9
		c0.3,0,0.6-0.1,0.7-0.3c0.2-0.2,0.2-0.5,0.2-1v-0.1c0-0.5-0.1-0.9-0.2-1.1c-0.2-0.2-0.4-0.3-0.8-0.3c-0.3,0-0.5,0.1-0.7,0.4
		c-0.2,0.2-0.2,0.6-0.2,1c0,0.5,0.1,0.8,0.2,1C48,13.8,48.3,13.9,48.6,13.9z"/>
</g>
</svg>
