<?xml version="1.0" encoding="utf-8"?>
<!-- Generator: Adobe Illustrator 24.1.2, SVG Export Plug-In . SVG Version: 6.00 Build 0)  -->
<svg version="1.1" id="Layer_1" xmlns="http://www.w3.org/2000/svg" xmlns:xlink="http://www.w3.org/1999/xlink" x="0px" y="0px"
	 viewBox="0 0 70.5 24" style="enable-background:new 0 0 70.5 24;" xml:space="preserve">
<style type="text/css">
	.st0{fill:#FFFFFF;}
</style>
<g>
	<path class="st0" d="M13.5,9.1v4c0,0.5-0.1,0.9-0.3,1.2s-0.5,0.6-0.9,0.8s-0.8,0.3-1.4,0.3c-0.8,0-1.4-0.2-1.9-0.6
		c-0.4-0.4-0.7-1-0.7-1.7v-4h1.3v3.8c0,0.5,0.1,0.8,0.3,1.1c0.2,0.2,0.5,0.3,1,0.3c0.4,0,0.7-0.1,0.9-0.3s0.3-0.6,0.3-1.1V9.1H13.5z
		"/>
	<path class="st0" d="M19.3,15.3H18v-2.8c0-0.3-0.1-0.6-0.2-0.8s-0.3-0.3-0.6-0.3c-0.4,0-0.6,0.1-0.8,0.4c-0.2,0.2-0.2,0.6-0.2,1.2
		v2.2h-1.3v-4.8h1l0.2,0.6h0.1c0.1-0.2,0.3-0.4,0.6-0.5s0.5-0.2,0.9-0.2c0.6,0,1,0.1,1.3,0.4c0.3,0.3,0.4,0.7,0.4,1.3L19.3,15.3
		L19.3,15.3z"/>
	<path class="st0" d="M23.3,15.4c-0.6,0-1-0.2-1.3-0.6h-0.1c0,0.4,0.1,0.6,0.1,0.7v1.9h-1.3v-6.8h1.1l0.2,0.6h0.1
		c0.3-0.5,0.8-0.7,1.3-0.7c0.6,0,1,0.2,1.3,0.7c0.3,0.4,0.5,1,0.5,1.8c0,0.5-0.1,0.9-0.2,1.3c-0.1,0.4-0.4,0.7-0.6,0.9
		C24,15.3,23.6,15.4,23.3,15.4z M22.9,11.5c-0.3,0-0.6,0.1-0.7,0.3s-0.2,0.5-0.2,1v0.1c0,0.5,0.1,0.9,0.2,1.1
		c0.2,0.2,0.4,0.3,0.7,0.3c0.6,0,0.9-0.5,0.9-1.4c0-0.5-0.1-0.8-0.2-1.1C23.4,11.6,23.2,11.5,22.9,11.5z"/>
	<path class="st0" d="M28.8,10.5c0.2,0,0.3,0,0.4,0l-0.1,1.2c-0.1,0-0.2,0-0.4,0c-0.4,0-0.7,0.1-1,0.3c-0.2,0.2-0.3,0.5-0.3,0.9v2.4
		h-1.3v-4.8h1l0.2,0.8h0.1c0.1-0.3,0.3-0.5,0.6-0.6C28.2,10.5,28.5,10.5,28.8,10.5z"/>
	<path class="st0" d="M34.4,12.9c0,0.8-0.2,1.4-0.6,1.8c-0.4,0.4-1,0.7-1.7,0.7c-0.5,0-0.9-0.1-1.2-0.3s-0.6-0.5-0.8-0.9
		c-0.2-0.4-0.3-0.8-0.3-1.3c0-0.8,0.2-1.4,0.6-1.8s1-0.6,1.7-0.6c0.5,0,0.9,0.1,1.2,0.3s0.6,0.5,0.8,0.9
		C34.3,12,34.4,12.4,34.4,12.9z M31.1,12.9c0,0.5,0.1,0.8,0.2,1.1s0.4,0.4,0.8,0.4c0.3,0,0.6-0.1,0.7-0.4s0.2-0.6,0.2-1.1
		s-0.1-0.8-0.2-1.1c-0.2-0.2-0.4-0.4-0.8-0.4c-0.3,0-0.6,0.1-0.7,0.4C31.2,12.1,31.1,12.4,31.1,12.9z"/>
	<path class="st0" d="M37.4,15.4c-1.5,0-2.2-0.8-2.2-2.4c0-0.8,0.2-1.4,0.6-1.9c0.4-0.4,1-0.6,1.7-0.6c0.5,0,1,0.1,1.5,0.3l-0.4,1
		c-0.2-0.1-0.4-0.1-0.6-0.2s-0.4-0.1-0.5-0.1c-0.7,0-1,0.5-1,1.4s0.3,1.4,1,1.4c0.2,0,0.5,0,0.7-0.1s0.4-0.2,0.6-0.3V15
		c-0.2,0.1-0.4,0.2-0.6,0.3S37.7,15.4,37.4,15.4z"/>
	<path class="st0" d="M42.1,15.4c-0.8,0-1.4-0.2-1.8-0.6c-0.4-0.4-0.6-1-0.6-1.8s0.2-1.4,0.6-1.8c0.4-0.4,0.9-0.7,1.7-0.7
		c0.7,0,1.2,0.2,1.6,0.6c0.4,0.4,0.6,0.9,0.6,1.6v0.6h-3.1c0,0.4,0.1,0.7,0.3,0.9s0.5,0.3,0.9,0.3c0.3,0,0.6,0,0.8-0.1
		c0.3-0.1,0.5-0.2,0.8-0.3v1c-0.2,0.1-0.5,0.2-0.7,0.3C42.8,15.3,42.5,15.4,42.1,15.4z M41.9,11.4c-0.3,0-0.5,0.1-0.6,0.3
		c-0.2,0.2-0.2,0.4-0.3,0.7h1.8c0-0.3-0.1-0.6-0.3-0.7C42.4,11.5,42.2,11.4,41.9,11.4z"/>
	<path class="st0" d="M48.4,13.9c0,0.5-0.2,0.9-0.5,1.1c-0.3,0.3-0.8,0.4-1.5,0.4c-0.3,0-0.6,0-0.9-0.1c-0.2,0-0.5-0.1-0.7-0.2V14
		c0.2,0.1,0.5,0.2,0.8,0.3s0.6,0.1,0.8,0.1c0.5,0,0.7-0.1,0.7-0.4c0-0.1,0-0.2-0.1-0.2c-0.1-0.1-0.2-0.1-0.3-0.2
		c-0.2-0.1-0.4-0.2-0.6-0.3c-0.4-0.2-0.6-0.3-0.8-0.4s-0.3-0.3-0.4-0.4c-0.1-0.2-0.1-0.4-0.1-0.6c0-0.4,0.2-0.7,0.5-1
		c0.3-0.2,0.8-0.3,1.4-0.3c0.6,0,1.1,0.1,1.7,0.4L48,11.9c-0.2-0.1-0.5-0.2-0.7-0.3c-0.2-0.2-0.4-0.2-0.6-0.2
		c-0.4,0-0.6,0.1-0.6,0.3c0,0.1,0.1,0.2,0.2,0.3c0.1,0.1,0.4,0.2,0.8,0.4c0.4,0.2,0.6,0.3,0.8,0.4c0.2,0.1,0.3,0.3,0.4,0.5
		C48.4,13.4,48.4,13.6,48.4,13.9z"/>
	<path class="st0" d="M52.7,13.9c0,0.5-0.2,0.9-0.5,1.1s-0.8,0.4-1.5,0.4c-0.3,0-0.6,0-0.9-0.1s-0.5-0.1-0.7-0.2V14
		c0.2,0.1,0.5,0.2,0.8,0.3c0.4,0.1,0.6,0.1,0.9,0.1c0.5,0,0.7-0.1,0.7-0.4c0-0.1,0-0.2-0.1-0.2c-0.1-0.1-0.2-0.1-0.3-0.2
		s-0.4-0.2-0.6-0.3c-0.4-0.2-0.6-0.3-0.8-0.4s-0.3-0.3-0.4-0.4c-0.1-0.2-0.1-0.4-0.1-0.6c0-0.4,0.2-0.7,0.5-1
		c0.3-0.2,0.8-0.3,1.4-0.3c0.6,0,1.1,0.1,1.7,0.4l-0.4,0.9c-0.2-0.1-0.5-0.2-0.7-0.3c-0.3-0.2-0.5-0.2-0.7-0.2
		c-0.4,0-0.6,0.1-0.6,0.3c0,0.1,0.1,0.2,0.2,0.3c0.1,0.1,0.4,0.2,0.8,0.4c0.4,0.2,0.6,0.3,0.8,0.4s0.3,0.3,0.4,0.5
		C52.7,13.4,52.7,13.6,52.7,13.9z"/>
	<path class="st0" d="M55.9,15.4c-0.8,0-1.4-0.2-1.8-0.6s-0.6-1-0.6-1.8s0.2-1.4,0.6-1.8c0.4-0.4,0.9-0.7,1.7-0.7
		c0.7,0,1.2,0.2,1.6,0.6c0.4,0.4,0.6,0.9,0.6,1.6v0.6h-3.1c0,0.4,0.1,0.7,0.3,0.9s0.5,0.3,0.9,0.3c0.3,0,0.6,0,0.8-0.1
		c0.3-0.1,0.5-0.2,0.8-0.3v1c-0.2,0.1-0.5,0.2-0.7,0.3C56.6,15.3,56.3,15.4,55.9,15.4z M55.7,11.4c-0.3,0-0.5,0.1-0.6,0.3
		c-0.2,0.2-0.2,0.4-0.3,0.7h1.8c0-0.3-0.1-0.6-0.3-0.7C56.2,11.5,56,11.4,55.7,11.4z"/>
	<path class="st0" d="M60.4,15.4c-0.6,0-1-0.2-1.3-0.7c-0.3-0.4-0.5-1-0.5-1.8s0.2-1.4,0.5-1.8c0.3-0.4,0.8-0.7,1.3-0.7
		c0.6,0,1.1,0.2,1.4,0.7l0,0c-0.1-0.4-0.1-0.7-0.1-0.9V8.7H63v6.6h-1l-0.3-0.6h-0.1C61.5,15.1,61,15.4,60.4,15.4z M60.9,14.3
		c0.3,0,0.6-0.1,0.7-0.3c0.2-0.2,0.2-0.5,0.3-1v-0.1c0-0.5-0.1-0.9-0.2-1.1s-0.4-0.3-0.8-0.3c-0.3,0-0.5,0.1-0.7,0.4
		C60,12.1,60,12.5,60,13s0.1,0.8,0.2,1.1C60.3,14.2,60.6,14.3,60.9,14.3z"/>
</g>
<path class="st0" d="M60.4,19.4H11c-3.9,0-7.1-3.2-7.1-7.1c0-2,0.8-3.9,2.1-5.1c1.4-1.3,3.2-2.1,5-2.1h49.4c3.9,0,7.2,3.2,7.2,7.2
	c0,2-0.8,3.9-2.1,5.1C64.1,18.7,62.3,19.4,60.4,19.4z M11,5.6c-1.7,0-3.4,0.7-4.7,1.9c-1.2,1.1-1.9,2.8-1.9,4.7c0,3.7,3,6.6,6.6,6.6
	h49.4c1.7,0,3.4-0.7,4.7-1.9c1.2-1.1,1.9-2.8,1.9-4.7c0-3.7-3-6.7-6.7-6.7L11,5.6L11,5.6z"/>
</svg>
