<?xml version="1.0" encoding="utf-8"?>
<!-- Generator: Adobe Illustrator 24.1.2, SVG Export Plug-In . SVG Version: 6.00 Build 0)  -->
<svg version="1.1" id="Layer_1" xmlns="http://www.w3.org/2000/svg" xmlns:xlink="http://www.w3.org/1999/xlink" x="0px" y="0px"
	 viewBox="0 0 70.5 24" style="enable-background:new 0 0 70.5 24;" xml:space="preserve">
<style type="text/css">
	.st0{fill:#FFFFFF;}
</style>
<g>
	<path class="st0" d="M20.4,11.1c-0.3,0-0.6,0.1-0.7,0.3s-0.2,0.6-0.2,1c0,0.5,0.1,0.8,0.2,1c0.2,0.2,0.4,0.4,0.7,0.4
		c0.3,0,0.6-0.1,0.7-0.4c0.1-0.2,0.2-0.6,0.2-1c0-0.5-0.1-0.8-0.2-1S20.7,11.1,20.4,11.1z"/>
	<path class="st0" d="M43.5,11c-0.3,0-0.5,0.1-0.6,0.3c-0.2,0.2-0.2,0.4-0.3,0.7h1.8c0-0.3-0.1-0.6-0.2-0.7S43.8,11,43.5,11z"/>
	<path class="st0" d="M60,5.2H11.1c-1.9,0-3.6,0.8-4.9,2c-1.3,1.2-2,3-2,4.9c0,3.8,3.1,6.9,6.9,6.9H60c1.9,0,3.6-0.8,4.9-2
		s2-3,2-4.9C66.9,8.3,63.8,5.2,60,5.2z M12.9,12.1c-0.4,0.3-1,0.5-1.7,0.5h-0.6v2.2H9.3V8.7h1.9c0.7,0,1.3,0.2,1.7,0.5
		c0.4,0.3,0.6,0.8,0.6,1.4C13.5,11.3,13.3,11.8,12.9,12.1z M17.5,11.3c-0.1,0-0.2,0-0.4,0c-0.4,0-0.7,0.1-0.9,0.3
		c-0.2,0.2-0.3,0.5-0.3,0.9v2.4h-1.3v-4.7h1l0.2,0.8h0.1c0.1-0.3,0.3-0.5,0.6-0.6c0.2-0.2,0.5-0.2,0.8-0.2c0.2,0,0.3,0,0.4,0
		L17.5,11.3z M22,14.3c-0.4,0.4-1,0.6-1.7,0.6c-0.4,0-0.8-0.1-1.2-0.3c-0.3-0.2-0.6-0.5-0.8-0.8c-0.2-0.4-0.3-0.8-0.3-1.3
		c0-0.8,0.2-1.4,0.6-1.8s1-0.6,1.7-0.6c0.4,0,0.8,0.1,1.2,0.3c0.3,0.2,0.6,0.5,0.8,0.8c0.2,0.4,0.3,0.8,0.3,1.3
		C22.6,13.2,22.4,13.8,22,14.3z M25.7,13.9c0.2,0,0.5,0,0.7-0.1c0.2-0.1,0.4-0.2,0.6-0.3v1.1c-0.2,0.1-0.4,0.2-0.6,0.3
		c-0.2,0-0.5,0.1-0.8,0.1c-1.5,0-2.2-0.8-2.2-2.4c0-0.8,0.2-1.4,0.6-1.8c0.4-0.4,1-0.6,1.7-0.6c0.5,0,1,0.1,1.4,0.3l-0.4,1
		c-0.2-0.1-0.4-0.1-0.6-0.2s-0.3-0.1-0.5-0.1c-0.7,0-1,0.5-1,1.4C24.7,13.4,25,13.9,25.7,13.9z M32.1,12.8h-3c0,0.4,0.1,0.6,0.3,0.8
		c0.2,0.2,0.5,0.3,0.8,0.3c0.3,0,0.5,0,0.8-0.1s0.5-0.2,0.8-0.3v1c-0.2,0.1-0.5,0.2-0.7,0.2c-0.3,0.1-0.6,0.1-0.9,0.1
		c-0.7,0-1.3-0.2-1.8-0.6c-0.4-0.4-0.6-1-0.6-1.8c0-0.8,0.2-1.4,0.6-1.8c0.4-0.4,0.9-0.6,1.6-0.6c0.7,0,1.2,0.2,1.5,0.6
		c0.4,0.4,0.5,0.9,0.5,1.6V12.8z M35.9,14.5c-0.3,0.2-0.8,0.4-1.5,0.4c-0.3,0-0.6,0-0.9-0.1c-0.2,0-0.5-0.1-0.7-0.2v-1
		c0.2,0.1,0.5,0.2,0.8,0.3c0.3,0.1,0.6,0.1,0.8,0.1c0.5,0,0.7-0.1,0.7-0.4c0-0.1,0-0.2-0.1-0.2c-0.1-0.1-0.2-0.1-0.3-0.2
		c-0.2-0.1-0.3-0.2-0.6-0.3c-0.4-0.1-0.6-0.3-0.8-0.4C33.2,12.3,33,12.1,33,12c-0.1-0.2-0.1-0.4-0.1-0.6c0-0.4,0.2-0.7,0.5-1
		c0.3-0.2,0.8-0.3,1.4-0.3c0.6,0,1.1,0.1,1.6,0.4l-0.4,0.9c-0.2-0.1-0.5-0.2-0.7-0.2C35.1,11,34.9,11,34.7,11
		c-0.4,0-0.6,0.1-0.6,0.3c0,0.1,0.1,0.2,0.2,0.3c0.1,0.1,0.4,0.2,0.8,0.4c0.4,0.1,0.6,0.3,0.8,0.4c0.2,0.1,0.3,0.3,0.4,0.4
		c0.1,0.2,0.1,0.4,0.1,0.6C36.4,13.9,36.2,14.3,35.9,14.5z M40.1,14.5c-0.3,0.2-0.8,0.4-1.5,0.4c-0.3,0-0.6,0-0.9-0.1
		c-0.2,0-0.5-0.1-0.7-0.2v-1c0.2,0.1,0.5,0.2,0.8,0.3s0.6,0.1,0.8,0.1c0.5,0,0.7-0.1,0.7-0.4c0-0.1,0-0.2-0.1-0.2
		c-0.1-0.1-0.2-0.1-0.3-0.2c-0.2-0.1-0.3-0.2-0.6-0.3c-0.4-0.1-0.6-0.3-0.8-0.4c-0.2-0.1-0.3-0.3-0.4-0.4s-0.1-0.4-0.1-0.6
		c0-0.4,0.2-0.7,0.5-1c0.3-0.2,0.8-0.3,1.4-0.3c0.6,0,1.1,0.1,1.6,0.4l-0.4,0.9c-0.2-0.1-0.5-0.2-0.7-0.2C39.3,11,39.1,11,38.9,11
		c-0.4,0-0.6,0.1-0.6,0.3c0,0.1,0.1,0.2,0.2,0.3c0.1,0.1,0.4,0.2,0.8,0.4c0.4,0.1,0.6,0.3,0.8,0.4c0.2,0.1,0.3,0.3,0.4,0.4
		c0.1,0.2,0.1,0.4,0.1,0.6C40.6,13.9,40.4,14.3,40.1,14.5z M45.6,12.8h-3c0,0.4,0.1,0.6,0.3,0.8c0.2,0.2,0.5,0.3,0.8,0.3
		c0.3,0,0.5,0,0.8-0.1s0.5-0.2,0.8-0.3v1c-0.2,0.1-0.5,0.2-0.7,0.2c-0.3,0.1-0.6,0.1-0.9,0.1c-0.8,0-1.3-0.2-1.8-0.6
		c-0.4-0.4-0.6-1-0.6-1.8c0-0.8,0.2-1.4,0.6-1.8c0.4-0.4,0.9-0.6,1.6-0.6c0.7,0,1.2,0.2,1.5,0.6c0.4,0.4,0.5,0.9,0.5,1.6V12.8z
		 M50.7,14.8h-1l-0.2-0.6h-0.1c-0.3,0.5-0.7,0.7-1.3,0.7c-0.5,0-1-0.2-1.3-0.6c-0.3-0.4-0.5-1-0.5-1.8c0-0.8,0.2-1.4,0.5-1.8
		s0.8-0.6,1.3-0.6c0.6,0,1,0.2,1.3,0.7h0c-0.1-0.3-0.1-0.7-0.1-0.9V8.3h1.3V14.8z M59.6,17.1c-2.8,0-5-2.2-5-5s2.2-5,5-5
		c2.8,0,5,2.2,5,5C64.6,14.8,62.4,17.1,59.6,17.1z"/>
	<path class="st0" d="M11.2,9.8h-0.6v1.8H11c0.4,0,0.7-0.1,0.9-0.2c0.2-0.2,0.3-0.4,0.3-0.7c0-0.3-0.1-0.5-0.2-0.7
		S11.5,9.8,11.2,9.8z"/>
	<path class="st0" d="M30,11c-0.3,0-0.5,0.1-0.6,0.3c-0.2,0.2-0.2,0.4-0.3,0.7h1.8c0-0.3-0.1-0.6-0.2-0.7C30.5,11.1,30.3,11,30,11z"
		/>
	<path class="st0" d="M48.5,11.1c-0.3,0-0.5,0.1-0.7,0.4c-0.2,0.2-0.2,0.6-0.2,1c0,0.5,0.1,0.8,0.2,1c0.2,0.2,0.4,0.3,0.7,0.3
		c0.3,0,0.6-0.1,0.7-0.3c0.2-0.2,0.2-0.5,0.2-1v-0.1c0-0.5-0.1-0.9-0.2-1.1C49.1,11.2,48.9,11.1,48.5,11.1z"/>
</g>
<polygon class="st0" points="62,14 60.2,12.1 62,10.2 61.2,9.5 59.6,11.4 57.9,9.5 57.2,10.2 58.9,12.1 57.2,14 57.9,14.7 
	59.6,12.9 61.2,14.7 "/>
</svg>
